<?xml version="1.0" encoding="UTF-8"?>
<!DOCTYPE MIDIFile PUBLIC "-//Recordare//DTD MusicXML 0.9 MIDI//EN" "http://www.musicxml.org/dtds/midixml.dtd">
<MIDIFile>
<Format>1</Format>
<TrackCount>7</TrackCount>
<TicksPerBeat>120</TicksPerBeat>
<TimestampType>Delta</TimestampType>
<Track Number="0">
  <Event>
    <Delta>0</Delta>
    <SetTempo Value="500000"/>
  </Event>
  <Event>
    <Delta>0</Delta>
    <TimeSignature Numerator="4" LogDenominator="2" MIDIClocksPerMetronomeClick="24" ThirtySecondsPer24Clocks="8"/>
  </Event>
  <Event>
    <Delta>0</Delta>
    <SetTempo Value="500000"/>
  </Event>
  <Event>
    <Delta>0</Delta>
    <TimeSignature Numerator="4" LogDenominator="2" MIDIClocksPerMetronomeClick="24" ThirtySecondsPer24Clocks="8"/>
  </Event>
  <Event>
    <Delta>0</Delta>
    <TimeSignature Numerator="4" LogDenominator="2" MIDIClocksPerMetronomeClick="24" ThirtySecondsPer24Clocks="8"/>
  </Event>
  <Event>
    <Delta>0</Delta>
    <KeySignature Fifths="1" Mode="0"/>
  </Event>
  <Event>
    <Delta>0</Delta>
    <SetTempo Value="500000"/>
  </Event>
  <Event>
    <Delta>0</Delta>
    <EndOfTrack/>
  </Event>
</Track>
<Track Number="1">
  <Event>
    <Delta>0</Delta>
    <MIDIChannelPrefix Value="00"/>
  </Event>
  <Event>
    <Delta>0</Delta>
    <ProgramChange Channel="1" Number="4"/>
  </Event>
  <Event>
    <Delta>0</Delta>
    <ControlChange Channel="1" Control="7" Value="127"/>
  </Event>
  <Event>
    <Delta>0</Delta>
    <ControlChange Channel="1" Control="10" Value="0"/>
  </Event>
  <Event>
    <Delta>0</Delta>
    <ControlChange Channel="1" Control="93" Value="127"/>
  </Event>
  <Event>
    <Delta>0</Delta>
    <ControlChange Channel="1" Control="91" Value="127"/>
  </Event>
  <Event>
    <Delta>0</Delta>
    <NoteOn Channel="1" Note="59" Velocity="100"/>
  </Event>
  <Event>
    <Delta>90</Delta>
    <NoteOn Channel="1" Note="59" Velocity="0"/>
  </Event>
  <Event>
    <Delta>0</Delta>
    <NoteOn Channel="1" Note="64" Velocity="100"/>
  </Event>
  <Event>
    <Delta>30</Delta>
    <NoteOn Channel="1" Note="64" Velocity="0"/>
  </Event>
  <Event>
    <Delta>0</Delta>
    <NoteOn Channel="1" Note="67" Velocity="100"/>
  </Event>
  <Event>
    <Delta>90</Delta>
    <NoteOn Channel="1" Note="67" Velocity="0"/>
  </Event>
  <Event>
    <Delta>0</Delta>
    <NoteOn Channel="1" Note="71" Velocity="100"/>
  </Event>
  <Event>
    <Delta>30</Delta>
    <NoteOn Channel="1" Note="71" Velocity="0"/>
  </Event>
  <Event>
    <Delta>0</Delta>
    <NoteOn Channel="1" Note="69" Velocity="100"/>
  </Event>
  <Event>
    <Delta>90</Delta>
    <NoteOn Channel="1" Note="69" Velocity="0"/>
  </Event>
  <Event>
    <Delta>0</Delta>
    <NoteOn Channel="1" Note="71" Velocity="100"/>
  </Event>
  <Event>
    <Delta>30</Delta>
    <NoteOn Channel="1" Note="71" Velocity="0"/>
  </Event>
  <Event>
    <Delta>0</Delta>
    <NoteOn Channel="1" Note="69" Velocity="100"/>
  </Event>
  <Event>
    <Delta>90</Delta>
    <NoteOn Channel="1" Note="69" Velocity="0"/>
  </Event>
  <Event>
    <Delta>0</Delta>
    <NoteOn Channel="1" Note="67" Velocity="100"/>
  </Event>
  <Event>
    <Delta>30</Delta>
    <NoteOn Channel="1" Note="67" Velocity="0"/>
  </Event>
  <Event>
    <Delta>0</Delta>
    <NoteOn Channel="1" Note="71" Velocity="100"/>
  </Event>
  <Event>
    <Delta>240</Delta>
    <NoteOn Channel="1" Note="71" Velocity="0"/>
  </Event>
  <Event>
    <Delta>60</Delta>
    <NoteOn Channel="1" Note="59" Velocity="100"/>
  </Event>
  <Event>
    <Delta>30</Delta>
    <NoteOn Channel="1" Note="59" Velocity="0"/>
  </Event>
  <Event>
    <Delta>30</Delta>
    <NoteOn Channel="1" Note="64" Velocity="100"/>
  </Event>
  <Event>
    <Delta>90</Delta>
    <NoteOn Channel="1" Note="64" Velocity="0"/>
  </Event>
  <Event>
    <Delta>0</Delta>
    <NoteOn Channel="1" Note="67" Velocity="100"/>
  </Event>
  <Event>
    <Delta>30</Delta>
    <NoteOn Channel="1" Note="67" Velocity="0"/>
  </Event>
  <Event>
    <Delta>0</Delta>
    <NoteOn Channel="1" Note="71" Velocity="100"/>
  </Event>
  <Event>
    <Delta>90</Delta>
    <NoteOn Channel="1" Note="71" Velocity="0"/>
  </Event>
  <Event>
    <Delta>0</Delta>
    <NoteOn Channel="1" Note="67" Velocity="100"/>
  </Event>
  <Event>
    <Delta>30</Delta>
    <NoteOn Channel="1" Note="67" Velocity="0"/>
  </Event>
  <Event>
    <Delta>0</Delta>
    <NoteOn Channel="1" Note="69" Velocity="100"/>
  </Event>
  <Event>
    <Delta>90</Delta>
    <NoteOn Channel="1" Note="69" Velocity="0"/>
  </Event>
  <Event>
    <Delta>0</Delta>
    <NoteOn Channel="1" Note="71" Velocity="100"/>
  </Event>
  <Event>
    <Delta>30</Delta>
    <NoteOn Channel="1" Note="71" Velocity="0"/>
  </Event>
  <Event>
    <Delta>0</Delta>
    <NoteOn Channel="1" Note="69" Velocity="100"/>
  </Event>
  <Event>
    <Delta>120</Delta>
    <NoteOn Channel="1" Note="69" Velocity="0"/>
  </Event>
  <Event>
    <Delta>60</Delta>
    <NoteOn Channel="1" Note="64" Velocity="100"/>
  </Event>
  <Event>
    <Delta>60</Delta>
    <NoteOn Channel="1" Note="64" Velocity="0"/>
  </Event>
  <Event>
    <Delta>0</Delta>
    <NoteOn Channel="1" Note="67" Velocity="100"/>
  </Event>
  <Event>
    <Delta>90</Delta>
    <NoteOn Channel="1" Note="67" Velocity="0"/>
  </Event>
  <Event>
    <Delta>0</Delta>
    <NoteOn Channel="1" Note="66" Velocity="100"/>
  </Event>
  <Event>
    <Delta>30</Delta>
    <NoteOn Channel="1" Note="66" Velocity="0"/>
  </Event>
  <Event>
    <Delta>0</Delta>
    <NoteOn Channel="1" Note="64" Velocity="100"/>
  </Event>
  <Event>
    <Delta>60</Delta>
    <NoteOn Channel="1" Note="64" Velocity="0"/>
  </Event>
  <Event>
    <Delta>0</Delta>
    <NoteOn Channel="1" Note="66" Velocity="100"/>
  </Event>
  <Event>
    <Delta>180</Delta>
    <NoteOn Channel="1" Note="66" Velocity="0"/>
  </Event>
  <Event>
    <Delta>120</Delta>
    <NoteOn Channel="1" Note="59" Velocity="100"/>
  </Event>
  <Event>
    <Delta>45</Delta>
    <NoteOn Channel="1" Note="59" Velocity="0"/>
  </Event>
  <Event>
    <Delta>45</Delta>
    <NoteOn Channel="1" Note="64" Velocity="100"/>
  </Event>
  <Event>
    <Delta>30</Delta>
    <NoteOn Channel="1" Note="64" Velocity="0"/>
  </Event>
  <Event>
    <Delta>0</Delta>
    <NoteOn Channel="1" Note="67" Velocity="100"/>
  </Event>
  <Event>
    <Delta>90</Delta>
    <NoteOn Channel="1" Note="67" Velocity="0"/>
  </Event>
  <Event>
    <Delta>0</Delta>
    <NoteOn Channel="1" Note="71" Velocity="100"/>
  </Event>
  <Event>
    <Delta>30</Delta>
    <NoteOn Channel="1" Note="71" Velocity="0"/>
  </Event>
  <Event>
    <Delta>0</Delta>
    <NoteOn Channel="1" Note="69" Velocity="100"/>
  </Event>
  <Event>
    <Delta>40</Delta>
    <NoteOn Channel="1" Note="69" Velocity="0"/>
  </Event>
  <Event>
    <Delta>0</Delta>
    <NoteOn Channel="1" Note="71" Velocity="100"/>
  </Event>
  <Event>
    <Delta>40</Delta>
    <NoteOn Channel="1" Note="71" Velocity="0"/>
  </Event>
  <Event>
    <Delta>0</Delta>
    <NoteOn Channel="1" Note="69" Velocity="100"/>
  </Event>
  <Event>
    <Delta>40</Delta>
    <NoteOn Channel="1" Note="69" Velocity="0"/>
  </Event>
  <Event>
    <Delta>0</Delta>
    <NoteOn Channel="1" Note="67" Velocity="100"/>
  </Event>
  <Event>
    <Delta>90</Delta>
    <NoteOn Channel="1" Note="67" Velocity="0"/>
  </Event>
  <Event>
    <Delta>0</Delta>
    <NoteOn Channel="1" Note="69" Velocity="100"/>
  </Event>
  <Event>
    <Delta>30</Delta>
    <NoteOn Channel="1" Note="69" Velocity="0"/>
  </Event>
  <Event>
    <Delta>0</Delta>
    <NoteOn Channel="1" Note="71" Velocity="100"/>
  </Event>
  <Event>
    <Delta>120</Delta>
    <NoteOn Channel="1" Note="71" Velocity="0"/>
  </Event>
  <Event>
    <Delta>0</Delta>
    <NoteOn Channel="1" Note="67" Velocity="100"/>
  </Event>
  <Event>
    <Delta>60</Delta>
    <NoteOn Channel="1" Note="67" Velocity="0"/>
  </Event>
  <Event>
    <Delta>0</Delta>
    <NoteOn Channel="1" Note="64" Velocity="100"/>
  </Event>
  <Event>
    <Delta>300</Delta>
    <NoteOn Channel="1" Note="64" Velocity="0"/>
  </Event>
  <Event>
    <Delta>60</Delta>
    <NoteOn Channel="1" Note="67" Velocity="100"/>
  </Event>
  <Event>
    <Delta>30</Delta>
    <NoteOn Channel="1" Note="67" Velocity="0"/>
  </Event>
  <Event>
    <Delta>30</Delta>
    <NoteOn Channel="1" Note="69" Velocity="100"/>
  </Event>
  <Event>
    <Delta>40</Delta>
    <NoteOn Channel="1" Note="69" Velocity="0"/>
  </Event>
  <Event>
    <Delta>0</Delta>
    <NoteOn Channel="1" Note="69" Velocity="100"/>
  </Event>
  <Event>
    <Delta>40</Delta>
    <NoteOn Channel="1" Note="69" Velocity="0"/>
  </Event>
  <Event>
    <Delta>0</Delta>
    <NoteOn Channel="1" Note="67" Velocity="100"/>
  </Event>
  <Event>
    <Delta>40</Delta>
    <NoteOn Channel="1" Note="67" Velocity="0"/>
  </Event>
  <Event>
    <Delta>0</Delta>
    <NoteOn Channel="1" Note="69" Velocity="100"/>
  </Event>
  <Event>
    <Delta>90</Delta>
    <NoteOn Channel="1" Note="69" Velocity="0"/>
  </Event>
  <Event>
    <Delta>0</Delta>
    <NoteOn Channel="1" Note="67" Velocity="100"/>
  </Event>
  <Event>
    <Delta>30</Delta>
    <NoteOn Channel="1" Note="67" Velocity="0"/>
  </Event>
  <Event>
    <Delta>0</Delta>
    <NoteOn Channel="1" Note="64" Velocity="100"/>
  </Event>
  <Event>
    <Delta>90</Delta>
    <NoteOn Channel="1" Note="64" Velocity="0"/>
  </Event>
  <Event>
    <Delta>0</Delta>
    <NoteOn Channel="1" Note="62" Velocity="100"/>
  </Event>
  <Event>
    <Delta>30</Delta>
    <NoteOn Channel="1" Note="62" Velocity="0"/>
  </Event>
  <Event>
    <Delta>0</Delta>
    <NoteOn Channel="1" Note="64" Velocity="100"/>
  </Event>
  <Event>
    <Delta>120</Delta>
    <NoteOn Channel="1" Note="64" Velocity="0"/>
  </Event>
  <Event>
    <Delta>240</Delta>
    <NoteOn Channel="1" Note="71" Velocity="100"/>
  </Event>
  <Event>
    <Delta>120</Delta>
    <NoteOn Channel="1" Note="71" Velocity="0"/>
  </Event>
  <Event>
    <Delta>0</Delta>
    <NoteOn Channel="1" Note="72" Velocity="100"/>
  </Event>
  <Event>
    <Delta>60</Delta>
    <NoteOn Channel="1" Note="72" Velocity="0"/>
  </Event>
  <Event>
    <Delta>0</Delta>
    <NoteOn Channel="1" Note="69" Velocity="100"/>
  </Event>
  <Event>
    <Delta>60</Delta>
    <NoteOn Channel="1" Note="69" Velocity="0"/>
  </Event>
  <Event>
    <Delta>0</Delta>
    <NoteOn Channel="1" Note="71" Velocity="100"/>
  </Event>
  <Event>
    <Delta>60</Delta>
    <NoteOn Channel="1" Note="71" Velocity="0"/>
  </Event>
  <Event>
    <Delta>0</Delta>
    <NoteOn Channel="1" Note="72" Velocity="100"/>
  </Event>
  <Event>
    <Delta>180</Delta>
    <NoteOn Channel="1" Note="72" Velocity="0"/>
  </Event>
  <Event>
    <Delta>0</Delta>
    <NoteOn Channel="1" Note="69" Velocity="100"/>
  </Event>
  <Event>
    <Delta>60</Delta>
    <NoteOn Channel="1" Note="69" Velocity="0"/>
  </Event>
  <Event>
    <Delta>0</Delta>
    <NoteOn Channel="1" Note="71" Velocity="100"/>
  </Event>
  <Event>
    <Delta>60</Delta>
    <NoteOn Channel="1" Note="71" Velocity="0"/>
  </Event>
  <Event>
    <Delta>0</Delta>
    <NoteOn Channel="1" Note="72" Velocity="100"/>
  </Event>
  <Event>
    <Delta>60</Delta>
    <NoteOn Channel="1" Note="72" Velocity="0"/>
  </Event>
  <Event>
    <Delta>0</Delta>
    <NoteOn Channel="1" Note="69" Velocity="100"/>
  </Event>
  <Event>
    <Delta>60</Delta>
    <NoteOn Channel="1" Note="69" Velocity="0"/>
  </Event>
  <Event>
    <Delta>0</Delta>
    <NoteOn Channel="1" Note="71" Velocity="100"/>
  </Event>
  <Event>
    <Delta>60</Delta>
    <NoteOn Channel="1" Note="71" Velocity="0"/>
  </Event>
  <Event>
    <Delta>0</Delta>
    <NoteOn Channel="1" Note="72" Velocity="100"/>
  </Event>
  <Event>
    <Delta>180</Delta>
    <NoteOn Channel="1" Note="72" Velocity="0"/>
  </Event>
  <Event>
    <Delta>0</Delta>
    <NoteOn Channel="1" Note="69" Velocity="100"/>
  </Event>
  <Event>
    <Delta>120</Delta>
    <NoteOn Channel="1" Note="69" Velocity="0"/>
  </Event>
  <Event>
    <Delta>0</Delta>
    <NoteOn Channel="1" Note="71" Velocity="100"/>
  </Event>
  <Event>
    <Delta>120</Delta>
    <NoteOn Channel="1" Note="71" Velocity="0"/>
  </Event>
  <Event>
    <Delta>0</Delta>
    <NoteOn Channel="1" Note="67" Velocity="100"/>
  </Event>
  <Event>
    <Delta>60</Delta>
    <NoteOn Channel="1" Note="67" Velocity="0"/>
  </Event>
  <Event>
    <Delta>0</Delta>
    <NoteOn Channel="1" Note="62" Velocity="100"/>
  </Event>
  <Event>
    <Delta>180</Delta>
    <NoteOn Channel="1" Note="62" Velocity="0"/>
  </Event>
  <Event>
    <Delta>480</Delta>
    <NoteOn Channel="1" Note="66" Velocity="100"/>
  </Event>
  <Event>
    <Delta>60</Delta>
    <NoteOn Channel="1" Note="66" Velocity="0"/>
  </Event>
  <Event>
    <Delta>0</Delta>
    <NoteOn Channel="1" Note="67" Velocity="100"/>
  </Event>
  <Event>
    <Delta>60</Delta>
    <NoteOn Channel="1" Note="67" Velocity="0"/>
  </Event>
  <Event>
    <Delta>0</Delta>
    <NoteOn Channel="1" Note="69" Velocity="100"/>
  </Event>
  <Event>
    <Delta>60</Delta>
    <NoteOn Channel="1" Note="69" Velocity="0"/>
  </Event>
  <Event>
    <Delta>0</Delta>
    <NoteOn Channel="1" Note="66" Velocity="100"/>
  </Event>
  <Event>
    <Delta>60</Delta>
    <NoteOn Channel="1" Note="66" Velocity="0"/>
  </Event>
  <Event>
    <Delta>0</Delta>
    <NoteOn Channel="1" Note="67" Velocity="100"/>
  </Event>
  <Event>
    <Delta>60</Delta>
    <NoteOn Channel="1" Note="67" Velocity="0"/>
  </Event>
  <Event>
    <Delta>0</Delta>
    <NoteOn Channel="1" Note="69" Velocity="100"/>
  </Event>
  <Event>
    <Delta>180</Delta>
    <NoteOn Channel="1" Note="69" Velocity="0"/>
  </Event>
  <Event>
    <Delta>0</Delta>
    <NoteOn Channel="1" Note="66" Velocity="100"/>
  </Event>
  <Event>
    <Delta>60</Delta>
    <NoteOn Channel="1" Note="66" Velocity="0"/>
  </Event>
  <Event>
    <Delta>0</Delta>
    <NoteOn Channel="1" Note="67" Velocity="100"/>
  </Event>
  <Event>
    <Delta>60</Delta>
    <NoteOn Channel="1" Note="67" Velocity="0"/>
  </Event>
  <Event>
    <Delta>0</Delta>
    <NoteOn Channel="1" Note="69" Velocity="100"/>
  </Event>
  <Event>
    <Delta>60</Delta>
    <NoteOn Channel="1" Note="69" Velocity="0"/>
  </Event>
  <Event>
    <Delta>0</Delta>
    <NoteOn Channel="1" Note="66" Velocity="100"/>
  </Event>
  <Event>
    <Delta>60</Delta>
    <NoteOn Channel="1" Note="66" Velocity="0"/>
  </Event>
  <Event>
    <Delta>0</Delta>
    <NoteOn Channel="1" Note="67" Velocity="100"/>
  </Event>
  <Event>
    <Delta>60</Delta>
    <NoteOn Channel="1" Note="67" Velocity="0"/>
  </Event>
  <Event>
    <Delta>0</Delta>
    <NoteOn Channel="1" Note="69" Velocity="100"/>
  </Event>
  <Event>
    <Delta>180</Delta>
    <NoteOn Channel="1" Note="69" Velocity="0"/>
  </Event>
  <Event>
    <Delta>60</Delta>
    <NoteOn Channel="1" Note="66" Velocity="100"/>
  </Event>
  <Event>
    <Delta>60</Delta>
    <NoteOn Channel="1" Note="66" Velocity="0"/>
  </Event>
  <Event>
    <Delta>0</Delta>
    <NoteOn Channel="1" Note="67" Velocity="100"/>
  </Event>
  <Event>
    <Delta>120</Delta>
    <NoteOn Channel="1" Note="67" Velocity="0"/>
  </Event>
  <Event>
    <Delta>0</Delta>
    <NoteOn Channel="1" Note="69" Velocity="100"/>
  </Event>
  <Event>
    <Delta>60</Delta>
    <NoteOn Channel="1" Note="69" Velocity="0"/>
  </Event>
  <Event>
    <Delta>0</Delta>
    <NoteOn Channel="1" Note="71" Velocity="100"/>
  </Event>
  <Event>
    <Delta>180</Delta>
    <NoteOn Channel="1" Note="71" Velocity="0"/>
  </Event>
  <Event>
    <Delta>570</Delta>
    <NoteOn Channel="1" Note="59" Velocity="100"/>
  </Event>
  <Event>
    <Delta>30</Delta>
    <NoteOn Channel="1" Note="59" Velocity="0"/>
  </Event>
  <Event>
    <Delta>0</Delta>
    <NoteOn Channel="1" Note="59" Velocity="100"/>
  </Event>
  <Event>
    <Delta>90</Delta>
    <NoteOn Channel="1" Note="59" Velocity="0"/>
  </Event>
  <Event>
    <Delta>0</Delta>
    <NoteOn Channel="1" Note="64" Velocity="100"/>
  </Event>
  <Event>
    <Delta>30</Delta>
    <NoteOn Channel="1" Note="64" Velocity="0"/>
  </Event>
  <Event>
    <Delta>0</Delta>
    <NoteOn Channel="1" Note="67" Velocity="100"/>
  </Event>
  <Event>
    <Delta>90</Delta>
    <NoteOn Channel="1" Note="67" Velocity="0"/>
  </Event>
  <Event>
    <Delta>0</Delta>
    <NoteOn Channel="1" Note="71" Velocity="100"/>
  </Event>
  <Event>
    <Delta>30</Delta>
    <NoteOn Channel="1" Note="71" Velocity="0"/>
  </Event>
  <Event>
    <Delta>0</Delta>
    <NoteOn Channel="1" Note="69" Velocity="100"/>
  </Event>
  <Event>
    <Delta>90</Delta>
    <NoteOn Channel="1" Note="69" Velocity="0"/>
  </Event>
  <Event>
    <Delta>0</Delta>
    <NoteOn Channel="1" Note="71" Velocity="100"/>
  </Event>
  <Event>
    <Delta>30</Delta>
    <NoteOn Channel="1" Note="71" Velocity="0"/>
  </Event>
  <Event>
    <Delta>0</Delta>
    <NoteOn Channel="1" Note="69" Velocity="100"/>
  </Event>
  <Event>
    <Delta>90</Delta>
    <NoteOn Channel="1" Note="69" Velocity="0"/>
  </Event>
  <Event>
    <Delta>0</Delta>
    <NoteOn Channel="1" Note="67" Velocity="100"/>
  </Event>
  <Event>
    <Delta>30</Delta>
    <NoteOn Channel="1" Note="67" Velocity="0"/>
  </Event>
  <Event>
    <Delta>0</Delta>
    <NoteOn Channel="1" Note="71" Velocity="100"/>
  </Event>
  <Event>
    <Delta>240</Delta>
    <NoteOn Channel="1" Note="71" Velocity="0"/>
  </Event>
  <Event>
    <Delta>60</Delta>
    <NoteOn Channel="1" Note="59" Velocity="100"/>
  </Event>
  <Event>
    <Delta>30</Delta>
    <NoteOn Channel="1" Note="59" Velocity="0"/>
  </Event>
  <Event>
    <Delta>30</Delta>
    <NoteOn Channel="1" Note="64" Velocity="100"/>
  </Event>
  <Event>
    <Delta>90</Delta>
    <NoteOn Channel="1" Note="64" Velocity="0"/>
  </Event>
  <Event>
    <Delta>0</Delta>
    <NoteOn Channel="1" Note="67" Velocity="100"/>
  </Event>
  <Event>
    <Delta>30</Delta>
    <NoteOn Channel="1" Note="67" Velocity="0"/>
  </Event>
  <Event>
    <Delta>0</Delta>
    <NoteOn Channel="1" Note="71" Velocity="100"/>
  </Event>
  <Event>
    <Delta>90</Delta>
    <NoteOn Channel="1" Note="71" Velocity="0"/>
  </Event>
  <Event>
    <Delta>0</Delta>
    <NoteOn Channel="1" Note="67" Velocity="100"/>
  </Event>
  <Event>
    <Delta>30</Delta>
    <NoteOn Channel="1" Note="67" Velocity="0"/>
  </Event>
  <Event>
    <Delta>0</Delta>
    <NoteOn Channel="1" Note="69" Velocity="100"/>
  </Event>
  <Event>
    <Delta>90</Delta>
    <NoteOn Channel="1" Note="69" Velocity="0"/>
  </Event>
  <Event>
    <Delta>0</Delta>
    <NoteOn Channel="1" Note="71" Velocity="100"/>
  </Event>
  <Event>
    <Delta>30</Delta>
    <NoteOn Channel="1" Note="71" Velocity="0"/>
  </Event>
  <Event>
    <Delta>0</Delta>
    <NoteOn Channel="1" Note="69" Velocity="100"/>
  </Event>
  <Event>
    <Delta>120</Delta>
    <NoteOn Channel="1" Note="69" Velocity="0"/>
  </Event>
  <Event>
    <Delta>60</Delta>
    <NoteOn Channel="1" Note="64" Velocity="100"/>
  </Event>
  <Event>
    <Delta>60</Delta>
    <NoteOn Channel="1" Note="64" Velocity="0"/>
  </Event>
  <Event>
    <Delta>0</Delta>
    <NoteOn Channel="1" Note="67" Velocity="100"/>
  </Event>
  <Event>
    <Delta>90</Delta>
    <NoteOn Channel="1" Note="67" Velocity="0"/>
  </Event>
  <Event>
    <Delta>0</Delta>
    <NoteOn Channel="1" Note="66" Velocity="100"/>
  </Event>
  <Event>
    <Delta>30</Delta>
    <NoteOn Channel="1" Note="66" Velocity="0"/>
  </Event>
  <Event>
    <Delta>0</Delta>
    <NoteOn Channel="1" Note="64" Velocity="100"/>
  </Event>
  <Event>
    <Delta>60</Delta>
    <NoteOn Channel="1" Note="64" Velocity="0"/>
  </Event>
  <Event>
    <Delta>0</Delta>
    <NoteOn Channel="1" Note="66" Velocity="100"/>
  </Event>
  <Event>
    <Delta>180</Delta>
    <NoteOn Channel="1" Note="66" Velocity="0"/>
  </Event>
  <Event>
    <Delta>90</Delta>
    <NoteOn Channel="1" Note="66" Velocity="100"/>
  </Event>
  <Event>
    <Delta>30</Delta>
    <NoteOn Channel="1" Note="66" Velocity="0"/>
  </Event>
  <Event>
    <Delta>0</Delta>
    <NoteOn Channel="1" Note="59" Velocity="100"/>
  </Event>
  <Event>
    <Delta>90</Delta>
    <NoteOn Channel="1" Note="59" Velocity="0"/>
  </Event>
  <Event>
    <Delta>0</Delta>
    <NoteOn Channel="1" Note="64" Velocity="100"/>
  </Event>
  <Event>
    <Delta>30</Delta>
    <NoteOn Channel="1" Note="64" Velocity="0"/>
  </Event>
  <Event>
    <Delta>0</Delta>
    <NoteOn Channel="1" Note="67" Velocity="100"/>
  </Event>
  <Event>
    <Delta>90</Delta>
    <NoteOn Channel="1" Note="67" Velocity="0"/>
  </Event>
  <Event>
    <Delta>0</Delta>
    <NoteOn Channel="1" Note="71" Velocity="100"/>
  </Event>
  <Event>
    <Delta>30</Delta>
    <NoteOn Channel="1" Note="71" Velocity="0"/>
  </Event>
  <Event>
    <Delta>0</Delta>
    <NoteOn Channel="1" Note="69" Velocity="100"/>
  </Event>
  <Event>
    <Delta>90</Delta>
    <NoteOn Channel="1" Note="69" Velocity="0"/>
  </Event>
  <Event>
    <Delta>0</Delta>
    <NoteOn Channel="1" Note="71" Velocity="100"/>
  </Event>
  <Event>
    <Delta>30</Delta>
    <NoteOn Channel="1" Note="71" Velocity="0"/>
  </Event>
  <Event>
    <Delta>0</Delta>
    <NoteOn Channel="1" Note="69" Velocity="100"/>
  </Event>
  <Event>
    <Delta>90</Delta>
    <NoteOn Channel="1" Note="69" Velocity="0"/>
  </Event>
  <Event>
    <Delta>0</Delta>
    <NoteOn Channel="1" Note="67" Velocity="100"/>
  </Event>
  <Event>
    <Delta>30</Delta>
    <NoteOn Channel="1" Note="67" Velocity="0"/>
  </Event>
  <Event>
    <Delta>0</Delta>
    <NoteOn Channel="1" Note="71" Velocity="100"/>
  </Event>
  <Event>
    <Delta>120</Delta>
    <NoteOn Channel="1" Note="71" Velocity="0"/>
  </Event>
  <Event>
    <Delta>0</Delta>
    <NoteOn Channel="1" Note="67" Velocity="100"/>
  </Event>
  <Event>
    <Delta>60</Delta>
    <NoteOn Channel="1" Note="67" Velocity="0"/>
  </Event>
  <Event>
    <Delta>0</Delta>
    <NoteOn Channel="1" Note="64" Velocity="100"/>
  </Event>
  <Event>
    <Delta>300</Delta>
    <NoteOn Channel="1" Note="64" Velocity="0"/>
  </Event>
  <Event>
    <Delta>90</Delta>
    <NoteOn Channel="1" Note="59" Velocity="100"/>
  </Event>
  <Event>
    <Delta>30</Delta>
    <NoteOn Channel="1" Note="59" Velocity="0"/>
  </Event>
  <Event>
    <Delta>0</Delta>
    <NoteOn Channel="1" Note="64" Velocity="100"/>
  </Event>
  <Event>
    <Delta>90</Delta>
    <NoteOn Channel="1" Note="64" Velocity="0"/>
  </Event>
  <Event>
    <Delta>0</Delta>
    <NoteOn Channel="1" Note="67" Velocity="100"/>
  </Event>
  <Event>
    <Delta>30</Delta>
    <NoteOn Channel="1" Note="67" Velocity="0"/>
  </Event>
  <Event>
    <Delta>0</Delta>
    <NoteOn Channel="1" Note="69" Velocity="100"/>
  </Event>
  <Event>
    <Delta>90</Delta>
    <NoteOn Channel="1" Note="69" Velocity="0"/>
  </Event>
  <Event>
    <Delta>0</Delta>
    <NoteOn Channel="1" Note="71" Velocity="100"/>
  </Event>
  <Event>
    <Delta>30</Delta>
    <NoteOn Channel="1" Note="71" Velocity="0"/>
  </Event>
  <Event>
    <Delta>0</Delta>
    <NoteOn Channel="1" Note="69" Velocity="100"/>
  </Event>
  <Event>
    <Delta>90</Delta>
    <NoteOn Channel="1" Note="69" Velocity="0"/>
  </Event>
  <Event>
    <Delta>0</Delta>
    <NoteOn Channel="1" Note="67" Velocity="100"/>
  </Event>
  <Event>
    <Delta>30</Delta>
    <NoteOn Channel="1" Note="67" Velocity="0"/>
  </Event>
  <Event>
    <Delta>0</Delta>
    <NoteOn Channel="1" Note="64" Velocity="100"/>
  </Event>
  <Event>
    <Delta>120</Delta>
    <NoteOn Channel="1" Note="64" Velocity="0"/>
  </Event>
  <Event>
    <Delta>0</Delta>
    <NoteOn Channel="1" Note="62" Velocity="100"/>
  </Event>
  <Event>
    <Delta>60</Delta>
    <NoteOn Channel="1" Note="62" Velocity="0"/>
  </Event>
  <Event>
    <Delta>0</Delta>
    <NoteOn Channel="1" Note="64" Velocity="100"/>
  </Event>
  <Event>
    <Delta>180</Delta>
    <NoteOn Channel="1" Note="64" Velocity="0"/>
  </Event>
  <Event>
    <Delta>600</Delta>
    <NoteOn Channel="1" Note="67" Velocity="100"/>
  </Event>
  <Event>
    <Delta>90</Delta>
    <NoteOn Channel="1" Note="67" Velocity="0"/>
  </Event>
  <Event>
    <Delta>0</Delta>
    <NoteOn Channel="1" Note="66" Velocity="100"/>
  </Event>
  <Event>
    <Delta>30</Delta>
    <NoteOn Channel="1" Note="66" Velocity="0"/>
  </Event>
  <Event>
    <Delta>0</Delta>
    <NoteOn Channel="1" Note="67" Velocity="100"/>
  </Event>
  <Event>
    <Delta>90</Delta>
    <NoteOn Channel="1" Note="67" Velocity="0"/>
  </Event>
  <Event>
    <Delta>0</Delta>
    <NoteOn Channel="1" Note="66" Velocity="100"/>
  </Event>
  <Event>
    <Delta>30</Delta>
    <NoteOn Channel="1" Note="66" Velocity="0"/>
  </Event>
  <Event>
    <Delta>0</Delta>
    <NoteOn Channel="1" Note="67" Velocity="100"/>
  </Event>
  <Event>
    <Delta>40</Delta>
    <NoteOn Channel="1" Note="67" Velocity="0"/>
  </Event>
  <Event>
    <Delta>0</Delta>
    <NoteOn Channel="1" Note="66" Velocity="100"/>
  </Event>
  <Event>
    <Delta>40</Delta>
    <NoteOn Channel="1" Note="66" Velocity="0"/>
  </Event>
  <Event>
    <Delta>0</Delta>
    <NoteOn Channel="1" Note="67" Velocity="100"/>
  </Event>
  <Event>
    <Delta>40</Delta>
    <NoteOn Channel="1" Note="67" Velocity="0"/>
  </Event>
  <Event>
    <Delta>0</Delta>
    <NoteOn Channel="1" Note="67" Velocity="100"/>
  </Event>
  <Event>
    <Delta>60</Delta>
    <NoteOn Channel="1" Note="67" Velocity="0"/>
  </Event>
  <Event>
    <Delta>0</Delta>
    <NoteOn Channel="1" Note="66" Velocity="100"/>
  </Event>
  <Event>
    <Delta>60</Delta>
    <NoteOn Channel="1" Note="66" Velocity="0"/>
  </Event>
  <Event>
    <Delta>0</Delta>
    <NoteOn Channel="1" Note="67" Velocity="100"/>
  </Event>
  <Event>
    <Delta>90</Delta>
    <NoteOn Channel="1" Note="67" Velocity="0"/>
  </Event>
  <Event>
    <Delta>0</Delta>
    <NoteOn Channel="1" Note="66" Velocity="100"/>
  </Event>
  <Event>
    <Delta>30</Delta>
    <NoteOn Channel="1" Note="66" Velocity="0"/>
  </Event>
  <Event>
    <Delta>0</Delta>
    <NoteOn Channel="1" Note="67" Velocity="100"/>
  </Event>
  <Event>
    <Delta>90</Delta>
    <NoteOn Channel="1" Note="67" Velocity="0"/>
  </Event>
  <Event>
    <Delta>0</Delta>
    <NoteOn Channel="1" Note="66" Velocity="100"/>
  </Event>
  <Event>
    <Delta>30</Delta>
    <NoteOn Channel="1" Note="66" Velocity="0"/>
  </Event>
  <Event>
    <Delta>0</Delta>
    <NoteOn Channel="1" Note="67" Velocity="100"/>
  </Event>
  <Event>
    <Delta>40</Delta>
    <NoteOn Channel="1" Note="67" Velocity="0"/>
  </Event>
  <Event>
    <Delta>0</Delta>
    <NoteOn Channel="1" Note="66" Velocity="100"/>
  </Event>
  <Event>
    <Delta>40</Delta>
    <NoteOn Channel="1" Note="66" Velocity="0"/>
  </Event>
  <Event>
    <Delta>0</Delta>
    <NoteOn Channel="1" Note="67" Velocity="100"/>
  </Event>
  <Event>
    <Delta>40</Delta>
    <NoteOn Channel="1" Note="67" Velocity="0"/>
  </Event>
  <Event>
    <Delta>0</Delta>
    <NoteOn Channel="1" Note="67" Velocity="100"/>
  </Event>
  <Event>
    <Delta>60</Delta>
    <NoteOn Channel="1" Note="67" Velocity="0"/>
  </Event>
  <Event>
    <Delta>0</Delta>
    <NoteOn Channel="1" Note="66" Velocity="100"/>
  </Event>
  <Event>
    <Delta>60</Delta>
    <NoteOn Channel="1" Note="66" Velocity="0"/>
  </Event>
  <Event>
    <Delta>0</Delta>
    <NoteOn Channel="1" Note="59" Velocity="100"/>
  </Event>
  <Event>
    <Delta>90</Delta>
    <NoteOn Channel="1" Note="59" Velocity="0"/>
  </Event>
  <Event>
    <Delta>0</Delta>
    <NoteOn Channel="1" Note="59" Velocity="100"/>
  </Event>
  <Event>
    <Delta>30</Delta>
    <NoteOn Channel="1" Note="59" Velocity="0"/>
  </Event>
  <Event>
    <Delta>0</Delta>
    <NoteOn Channel="1" Note="60" Velocity="100"/>
  </Event>
  <Event>
    <Delta>90</Delta>
    <NoteOn Channel="1" Note="60" Velocity="0"/>
  </Event>
  <Event>
    <Delta>0</Delta>
    <NoteOn Channel="1" Note="60" Velocity="100"/>
  </Event>
  <Event>
    <Delta>30</Delta>
    <NoteOn Channel="1" Note="60" Velocity="0"/>
  </Event>
  <Event>
    <Delta>0</Delta>
    <NoteOn Channel="1" Note="61" Velocity="100"/>
  </Event>
  <Event>
    <Delta>90</Delta>
    <NoteOn Channel="1" Note="61" Velocity="0"/>
  </Event>
  <Event>
    <Delta>0</Delta>
    <NoteOn Channel="1" Note="71" Velocity="100"/>
  </Event>
  <Event>
    <Delta>30</Delta>
    <NoteOn Channel="1" Note="71" Velocity="0"/>
  </Event>
  <Event>
    <Delta>0</Delta>
    <NoteOn Channel="1" Note="68" Velocity="100"/>
  </Event>
  <Event>
    <Delta>90</Delta>
    <NoteOn Channel="1" Note="68" Velocity="0"/>
  </Event>
  <Event>
    <Delta>0</Delta>
    <NoteOn Channel="1" Note="66" Velocity="100"/>
  </Event>
  <Event>
    <Delta>30</Delta>
    <NoteOn Channel="1" Note="66" Velocity="0"/>
  </Event>
  <Event>
    <Delta>0</Delta>
    <NoteOn Channel="1" Note="67" Velocity="100"/>
  </Event>
  <Event>
    <Delta>360</Delta>
    <NoteOn Channel="1" Note="67" Velocity="0"/>
  </Event>
  <Event>
    <Delta>540</Delta>
    <NoteOn Channel="1" Note="68" Velocity="100"/>
  </Event>
  <Event>
    <Delta>60</Delta>
    <NoteOn Channel="1" Note="68" Velocity="0"/>
  </Event>
  <Event>
    <Delta>0</Delta>
    <NoteOn Channel="1" Note="69" Velocity="100"/>
  </Event>
  <Event>
    <Delta>90</Delta>
    <NoteOn Channel="1" Note="69" Velocity="0"/>
  </Event>
  <Event>
    <Delta>0</Delta>
    <NoteOn Channel="1" Note="67" Velocity="100"/>
  </Event>
  <Event>
    <Delta>30</Delta>
    <NoteOn Channel="1" Note="67" Velocity="0"/>
  </Event>
  <Event>
    <Delta>0</Delta>
    <NoteOn Channel="1" Note="69" Velocity="100"/>
  </Event>
  <Event>
    <Delta>90</Delta>
    <NoteOn Channel="1" Note="69" Velocity="0"/>
  </Event>
  <Event>
    <Delta>0</Delta>
    <NoteOn Channel="1" Note="67" Velocity="100"/>
  </Event>
  <Event>
    <Delta>30</Delta>
    <NoteOn Channel="1" Note="67" Velocity="0"/>
  </Event>
  <Event>
    <Delta>0</Delta>
    <NoteOn Channel="1" Note="69" Velocity="100"/>
  </Event>
  <Event>
    <Delta>40</Delta>
    <NoteOn Channel="1" Note="69" Velocity="0"/>
  </Event>
  <Event>
    <Delta>0</Delta>
    <NoteOn Channel="1" Note="67" Velocity="100"/>
  </Event>
  <Event>
    <Delta>40</Delta>
    <NoteOn Channel="1" Note="67" Velocity="0"/>
  </Event>
  <Event>
    <Delta>0</Delta>
    <NoteOn Channel="1" Note="69" Velocity="100"/>
  </Event>
  <Event>
    <Delta>40</Delta>
    <NoteOn Channel="1" Note="69" Velocity="0"/>
  </Event>
  <Event>
    <Delta>0</Delta>
    <NoteOn Channel="1" Note="69" Velocity="100"/>
  </Event>
  <Event>
    <Delta>120</Delta>
    <NoteOn Channel="1" Note="69" Velocity="0"/>
  </Event>
  <Event>
    <Delta>0</Delta>
    <NoteOn Channel="1" Note="69" Velocity="100"/>
  </Event>
  <Event>
    <Delta>90</Delta>
    <NoteOn Channel="1" Note="69" Velocity="0"/>
  </Event>
  <Event>
    <Delta>0</Delta>
    <NoteOn Channel="1" Note="67" Velocity="100"/>
  </Event>
  <Event>
    <Delta>30</Delta>
    <NoteOn Channel="1" Note="67" Velocity="0"/>
  </Event>
  <Event>
    <Delta>0</Delta>
    <NoteOn Channel="1" Note="69" Velocity="100"/>
  </Event>
  <Event>
    <Delta>90</Delta>
    <NoteOn Channel="1" Note="69" Velocity="0"/>
  </Event>
  <Event>
    <Delta>0</Delta>
    <NoteOn Channel="1" Note="67" Velocity="100"/>
  </Event>
  <Event>
    <Delta>30</Delta>
    <NoteOn Channel="1" Note="67" Velocity="0"/>
  </Event>
  <Event>
    <Delta>0</Delta>
    <NoteOn Channel="1" Note="69" Velocity="100"/>
  </Event>
  <Event>
    <Delta>40</Delta>
    <NoteOn Channel="1" Note="69" Velocity="0"/>
  </Event>
  <Event>
    <Delta>0</Delta>
    <NoteOn Channel="1" Note="67" Velocity="100"/>
  </Event>
  <Event>
    <Delta>40</Delta>
    <NoteOn Channel="1" Note="67" Velocity="0"/>
  </Event>
  <Event>
    <Delta>0</Delta>
    <NoteOn Channel="1" Note="69" Velocity="100"/>
  </Event>
  <Event>
    <Delta>40</Delta>
    <NoteOn Channel="1" Note="69" Velocity="0"/>
  </Event>
  <Event>
    <Delta>0</Delta>
    <NoteOn Channel="1" Note="69" Velocity="100"/>
  </Event>
  <Event>
    <Delta>60</Delta>
    <NoteOn Channel="1" Note="69" Velocity="0"/>
  </Event>
  <Event>
    <Delta>0</Delta>
    <NoteOn Channel="1" Note="67" Velocity="100"/>
  </Event>
  <Event>
    <Delta>60</Delta>
    <NoteOn Channel="1" Note="67" Velocity="0"/>
  </Event>
  <Event>
    <Delta>0</Delta>
    <NoteOn Channel="1" Note="69" Velocity="100"/>
  </Event>
  <Event>
    <Delta>90</Delta>
    <NoteOn Channel="1" Note="69" Velocity="0"/>
  </Event>
  <Event>
    <Delta>0</Delta>
    <NoteOn Channel="1" Note="72" Velocity="100"/>
  </Event>
  <Event>
    <Delta>30</Delta>
    <NoteOn Channel="1" Note="72" Velocity="0"/>
  </Event>
  <Event>
    <Delta>0</Delta>
    <NoteOn Channel="1" Note="69" Velocity="100"/>
  </Event>
  <Event>
    <Delta>90</Delta>
    <NoteOn Channel="1" Note="69" Velocity="0"/>
  </Event>
  <Event>
    <Delta>0</Delta>
    <NoteOn Channel="1" Note="65" Velocity="100"/>
  </Event>
  <Event>
    <Delta>30</Delta>
    <NoteOn Channel="1" Note="65" Velocity="0"/>
  </Event>
  <Event>
    <Delta>0</Delta>
    <NoteOn Channel="1" Note="62" Velocity="100"/>
  </Event>
  <Event>
    <Delta>90</Delta>
    <NoteOn Channel="1" Note="62" Velocity="0"/>
  </Event>
  <Event>
    <Delta>0</Delta>
    <NoteOn Channel="1" Note="66" Velocity="100"/>
  </Event>
  <Event>
    <Delta>30</Delta>
    <NoteOn Channel="1" Note="66" Velocity="0"/>
  </Event>
  <Event>
    <Delta>0</Delta>
    <NoteOn Channel="1" Note="67" Velocity="100"/>
  </Event>
  <Event>
    <Delta>60</Delta>
    <NoteOn Channel="1" Note="67" Velocity="0"/>
  </Event>
  <Event>
    <Delta>0</Delta>
    <NoteOn Channel="1" Note="66" Velocity="100"/>
  </Event>
  <Event>
    <Delta>60</Delta>
    <NoteOn Channel="1" Note="66" Velocity="0"/>
  </Event>
  <Event>
    <Delta>0</Delta>
    <NoteOn Channel="1" Note="69" Velocity="100"/>
  </Event>
  <Event>
    <Delta>360</Delta>
    <NoteOn Channel="1" Note="69" Velocity="0"/>
  </Event>
  <Event>
    <Delta>60</Delta>
    <NoteOn Channel="1" Note="69" Velocity="100"/>
  </Event>
  <Event>
    <Delta>60</Delta>
    <NoteOn Channel="1" Note="69" Velocity="0"/>
  </Event>
  <Event>
    <Delta>0</Delta>
    <NoteOn Channel="1" Note="70" Velocity="100"/>
  </Event>
  <Event>
    <Delta>90</Delta>
    <NoteOn Channel="1" Note="70" Velocity="0"/>
  </Event>
  <Event>
    <Delta>0</Delta>
    <NoteOn Channel="1" Note="68" Velocity="100"/>
  </Event>
  <Event>
    <Delta>30</Delta>
    <NoteOn Channel="1" Note="68" Velocity="0"/>
  </Event>
  <Event>
    <Delta>0</Delta>
    <NoteOn Channel="1" Note="70" Velocity="100"/>
  </Event>
  <Event>
    <Delta>90</Delta>
    <NoteOn Channel="1" Note="70" Velocity="0"/>
  </Event>
  <Event>
    <Delta>0</Delta>
    <NoteOn Channel="1" Note="68" Velocity="100"/>
  </Event>
  <Event>
    <Delta>30</Delta>
    <NoteOn Channel="1" Note="68" Velocity="0"/>
  </Event>
  <Event>
    <Delta>0</Delta>
    <NoteOn Channel="1" Note="70" Velocity="100"/>
  </Event>
  <Event>
    <Delta>40</Delta>
    <NoteOn Channel="1" Note="70" Velocity="0"/>
  </Event>
  <Event>
    <Delta>0</Delta>
    <NoteOn Channel="1" Note="68" Velocity="100"/>
  </Event>
  <Event>
    <Delta>40</Delta>
    <NoteOn Channel="1" Note="68" Velocity="0"/>
  </Event>
  <Event>
    <Delta>0</Delta>
    <NoteOn Channel="1" Note="70" Velocity="100"/>
  </Event>
  <Event>
    <Delta>40</Delta>
    <NoteOn Channel="1" Note="70" Velocity="0"/>
  </Event>
  <Event>
    <Delta>0</Delta>
    <NoteOn Channel="1" Note="70" Velocity="100"/>
  </Event>
  <Event>
    <Delta>120</Delta>
    <NoteOn Channel="1" Note="70" Velocity="0"/>
  </Event>
  <Event>
    <Delta>0</Delta>
    <NoteOn Channel="1" Note="70" Velocity="100"/>
  </Event>
  <Event>
    <Delta>90</Delta>
    <NoteOn Channel="1" Note="70" Velocity="0"/>
  </Event>
  <Event>
    <Delta>0</Delta>
    <NoteOn Channel="1" Note="68" Velocity="100"/>
  </Event>
  <Event>
    <Delta>30</Delta>
    <NoteOn Channel="1" Note="68" Velocity="0"/>
  </Event>
  <Event>
    <Delta>0</Delta>
    <NoteOn Channel="1" Note="70" Velocity="100"/>
  </Event>
  <Event>
    <Delta>90</Delta>
    <NoteOn Channel="1" Note="70" Velocity="0"/>
  </Event>
  <Event>
    <Delta>0</Delta>
    <NoteOn Channel="1" Note="68" Velocity="100"/>
  </Event>
  <Event>
    <Delta>30</Delta>
    <NoteOn Channel="1" Note="68" Velocity="0"/>
  </Event>
  <Event>
    <Delta>0</Delta>
    <NoteOn Channel="1" Note="70" Velocity="100"/>
  </Event>
  <Event>
    <Delta>40</Delta>
    <NoteOn Channel="1" Note="70" Velocity="0"/>
  </Event>
  <Event>
    <Delta>0</Delta>
    <NoteOn Channel="1" Note="68" Velocity="100"/>
  </Event>
  <Event>
    <Delta>40</Delta>
    <NoteOn Channel="1" Note="68" Velocity="0"/>
  </Event>
  <Event>
    <Delta>0</Delta>
    <NoteOn Channel="1" Note="70" Velocity="100"/>
  </Event>
  <Event>
    <Delta>40</Delta>
    <NoteOn Channel="1" Note="70" Velocity="0"/>
  </Event>
  <Event>
    <Delta>0</Delta>
    <NoteOn Channel="1" Note="70" Velocity="100"/>
  </Event>
  <Event>
    <Delta>60</Delta>
    <NoteOn Channel="1" Note="70" Velocity="0"/>
  </Event>
  <Event>
    <Delta>0</Delta>
    <NoteOn Channel="1" Note="70" Velocity="100"/>
  </Event>
  <Event>
    <Delta>60</Delta>
    <NoteOn Channel="1" Note="70" Velocity="0"/>
  </Event>
  <Event>
    <Delta>0</Delta>
    <NoteOn Channel="1" Note="71" Velocity="100"/>
  </Event>
  <Event>
    <Delta>90</Delta>
    <NoteOn Channel="1" Note="71" Velocity="0"/>
  </Event>
  <Event>
    <Delta>0</Delta>
    <NoteOn Channel="1" Note="69" Velocity="100"/>
  </Event>
  <Event>
    <Delta>30</Delta>
    <NoteOn Channel="1" Note="69" Velocity="0"/>
  </Event>
  <Event>
    <Delta>0</Delta>
    <NoteOn Channel="1" Note="71" Velocity="100"/>
  </Event>
  <Event>
    <Delta>90</Delta>
    <NoteOn Channel="1" Note="71" Velocity="0"/>
  </Event>
  <Event>
    <Delta>0</Delta>
    <NoteOn Channel="1" Note="69" Velocity="100"/>
  </Event>
  <Event>
    <Delta>30</Delta>
    <NoteOn Channel="1" Note="69" Velocity="0"/>
  </Event>
  <Event>
    <Delta>0</Delta>
    <NoteOn Channel="1" Note="71" Velocity="100"/>
  </Event>
  <Event>
    <Delta>40</Delta>
    <NoteOn Channel="1" Note="71" Velocity="0"/>
  </Event>
  <Event>
    <Delta>0</Delta>
    <NoteOn Channel="1" Note="69" Velocity="100"/>
  </Event>
  <Event>
    <Delta>40</Delta>
    <NoteOn Channel="1" Note="69" Velocity="0"/>
  </Event>
  <Event>
    <Delta>0</Delta>
    <NoteOn Channel="1" Note="71" Velocity="100"/>
  </Event>
  <Event>
    <Delta>40</Delta>
    <NoteOn Channel="1" Note="71" Velocity="0"/>
  </Event>
  <Event>
    <Delta>0</Delta>
    <NoteOn Channel="1" Note="71" Velocity="100"/>
  </Event>
  <Event>
    <Delta>60</Delta>
    <NoteOn Channel="1" Note="71" Velocity="0"/>
  </Event>
  <Event>
    <Delta>0</Delta>
    <NoteOn Channel="1" Note="69" Velocity="100"/>
  </Event>
  <Event>
    <Delta>60</Delta>
    <NoteOn Channel="1" Note="69" Velocity="0"/>
  </Event>
  <Event>
    <Delta>0</Delta>
    <NoteOn Channel="1" Note="71" Velocity="100"/>
  </Event>
  <Event>
    <Delta>90</Delta>
    <NoteOn Channel="1" Note="71" Velocity="0"/>
  </Event>
  <Event>
    <Delta>0</Delta>
    <NoteOn Channel="1" Note="69" Velocity="100"/>
  </Event>
  <Event>
    <Delta>30</Delta>
    <NoteOn Channel="1" Note="69" Velocity="0"/>
  </Event>
  <Event>
    <Delta>0</Delta>
    <NoteOn Channel="1" Note="71" Velocity="100"/>
  </Event>
  <Event>
    <Delta>90</Delta>
    <NoteOn Channel="1" Note="71" Velocity="0"/>
  </Event>
  <Event>
    <Delta>0</Delta>
    <NoteOn Channel="1" Note="69" Velocity="100"/>
  </Event>
  <Event>
    <Delta>30</Delta>
    <NoteOn Channel="1" Note="69" Velocity="0"/>
  </Event>
  <Event>
    <Delta>0</Delta>
    <NoteOn Channel="1" Note="75" Velocity="100"/>
  </Event>
  <Event>
    <Delta>180</Delta>
    <NoteOn Channel="1" Note="75" Velocity="0"/>
  </Event>
  <Event>
    <Delta>0</Delta>
    <NoteOn Channel="1" Note="72" Velocity="100"/>
  </Event>
  <Event>
    <Delta>60</Delta>
    <NoteOn Channel="1" Note="72" Velocity="0"/>
  </Event>
  <Event>
    <Delta>0</Delta>
    <NoteOn Channel="1" Note="71" Velocity="100"/>
  </Event>
  <Event>
    <Delta>480</Delta>
    <NoteOn Channel="1" Note="71" Velocity="0"/>
  </Event>
  <Event>
    <Delta>0</Delta>
    <NoteOn Channel="1" Note="59" Velocity="100"/>
  </Event>
  <Event>
    <Delta>90</Delta>
    <NoteOn Channel="1" Note="59" Velocity="0"/>
  </Event>
  <Event>
    <Delta>0</Delta>
    <NoteOn Channel="1" Note="64" Velocity="100"/>
  </Event>
  <Event>
    <Delta>30</Delta>
    <NoteOn Channel="1" Note="64" Velocity="0"/>
  </Event>
  <Event>
    <Delta>0</Delta>
    <NoteOn Channel="1" Note="67" Velocity="100"/>
  </Event>
  <Event>
    <Delta>90</Delta>
    <NoteOn Channel="1" Note="67" Velocity="0"/>
  </Event>
  <Event>
    <Delta>0</Delta>
    <NoteOn Channel="1" Note="71" Velocity="100"/>
  </Event>
  <Event>
    <Delta>30</Delta>
    <NoteOn Channel="1" Note="71" Velocity="0"/>
  </Event>
  <Event>
    <Delta>0</Delta>
    <NoteOn Channel="1" Note="69" Velocity="100"/>
  </Event>
  <Event>
    <Delta>90</Delta>
    <NoteOn Channel="1" Note="69" Velocity="0"/>
  </Event>
  <Event>
    <Delta>0</Delta>
    <NoteOn Channel="1" Note="71" Velocity="100"/>
  </Event>
  <Event>
    <Delta>30</Delta>
    <NoteOn Channel="1" Note="71" Velocity="0"/>
  </Event>
  <Event>
    <Delta>0</Delta>
    <NoteOn Channel="1" Note="69" Velocity="100"/>
  </Event>
  <Event>
    <Delta>90</Delta>
    <NoteOn Channel="1" Note="69" Velocity="0"/>
  </Event>
  <Event>
    <Delta>0</Delta>
    <NoteOn Channel="1" Note="67" Velocity="100"/>
  </Event>
  <Event>
    <Delta>30</Delta>
    <NoteOn Channel="1" Note="67" Velocity="0"/>
  </Event>
  <Event>
    <Delta>0</Delta>
    <NoteOn Channel="1" Note="71" Velocity="100"/>
  </Event>
  <Event>
    <Delta>240</Delta>
    <NoteOn Channel="1" Note="71" Velocity="0"/>
  </Event>
  <Event>
    <Delta>60</Delta>
    <NoteOn Channel="1" Note="59" Velocity="100"/>
  </Event>
  <Event>
    <Delta>30</Delta>
    <NoteOn Channel="1" Note="59" Velocity="0"/>
  </Event>
  <Event>
    <Delta>30</Delta>
    <NoteOn Channel="1" Note="64" Velocity="100"/>
  </Event>
  <Event>
    <Delta>90</Delta>
    <NoteOn Channel="1" Note="64" Velocity="0"/>
  </Event>
  <Event>
    <Delta>0</Delta>
    <NoteOn Channel="1" Note="67" Velocity="100"/>
  </Event>
  <Event>
    <Delta>30</Delta>
    <NoteOn Channel="1" Note="67" Velocity="0"/>
  </Event>
  <Event>
    <Delta>0</Delta>
    <NoteOn Channel="1" Note="71" Velocity="100"/>
  </Event>
  <Event>
    <Delta>90</Delta>
    <NoteOn Channel="1" Note="71" Velocity="0"/>
  </Event>
  <Event>
    <Delta>0</Delta>
    <NoteOn Channel="1" Note="67" Velocity="100"/>
  </Event>
  <Event>
    <Delta>30</Delta>
    <NoteOn Channel="1" Note="67" Velocity="0"/>
  </Event>
  <Event>
    <Delta>0</Delta>
    <NoteOn Channel="1" Note="69" Velocity="100"/>
  </Event>
  <Event>
    <Delta>90</Delta>
    <NoteOn Channel="1" Note="69" Velocity="0"/>
  </Event>
  <Event>
    <Delta>0</Delta>
    <NoteOn Channel="1" Note="71" Velocity="100"/>
  </Event>
  <Event>
    <Delta>30</Delta>
    <NoteOn Channel="1" Note="71" Velocity="0"/>
  </Event>
  <Event>
    <Delta>0</Delta>
    <NoteOn Channel="1" Note="69" Velocity="100"/>
  </Event>
  <Event>
    <Delta>120</Delta>
    <NoteOn Channel="1" Note="69" Velocity="0"/>
  </Event>
  <Event>
    <Delta>60</Delta>
    <NoteOn Channel="1" Note="64" Velocity="100"/>
  </Event>
  <Event>
    <Delta>60</Delta>
    <NoteOn Channel="1" Note="64" Velocity="0"/>
  </Event>
  <Event>
    <Delta>0</Delta>
    <NoteOn Channel="1" Note="67" Velocity="100"/>
  </Event>
  <Event>
    <Delta>90</Delta>
    <NoteOn Channel="1" Note="67" Velocity="0"/>
  </Event>
  <Event>
    <Delta>0</Delta>
    <NoteOn Channel="1" Note="66" Velocity="100"/>
  </Event>
  <Event>
    <Delta>30</Delta>
    <NoteOn Channel="1" Note="66" Velocity="0"/>
  </Event>
  <Event>
    <Delta>0</Delta>
    <NoteOn Channel="1" Note="64" Velocity="100"/>
  </Event>
  <Event>
    <Delta>60</Delta>
    <NoteOn Channel="1" Note="64" Velocity="0"/>
  </Event>
  <Event>
    <Delta>0</Delta>
    <NoteOn Channel="1" Note="66" Velocity="100"/>
  </Event>
  <Event>
    <Delta>180</Delta>
    <NoteOn Channel="1" Note="66" Velocity="0"/>
  </Event>
  <Event>
    <Delta>120</Delta>
    <NoteOn Channel="1" Note="59" Velocity="100"/>
  </Event>
  <Event>
    <Delta>45</Delta>
    <NoteOn Channel="1" Note="59" Velocity="0"/>
  </Event>
  <Event>
    <Delta>45</Delta>
    <NoteOn Channel="1" Note="64" Velocity="100"/>
  </Event>
  <Event>
    <Delta>30</Delta>
    <NoteOn Channel="1" Note="64" Velocity="0"/>
  </Event>
  <Event>
    <Delta>0</Delta>
    <NoteOn Channel="1" Note="67" Velocity="100"/>
  </Event>
  <Event>
    <Delta>90</Delta>
    <NoteOn Channel="1" Note="67" Velocity="0"/>
  </Event>
  <Event>
    <Delta>0</Delta>
    <NoteOn Channel="1" Note="71" Velocity="100"/>
  </Event>
  <Event>
    <Delta>30</Delta>
    <NoteOn Channel="1" Note="71" Velocity="0"/>
  </Event>
  <Event>
    <Delta>0</Delta>
    <NoteOn Channel="1" Note="69" Velocity="100"/>
  </Event>
  <Event>
    <Delta>40</Delta>
    <NoteOn Channel="1" Note="69" Velocity="0"/>
  </Event>
  <Event>
    <Delta>0</Delta>
    <NoteOn Channel="1" Note="71" Velocity="100"/>
  </Event>
  <Event>
    <Delta>40</Delta>
    <NoteOn Channel="1" Note="71" Velocity="0"/>
  </Event>
  <Event>
    <Delta>0</Delta>
    <NoteOn Channel="1" Note="69" Velocity="100"/>
  </Event>
  <Event>
    <Delta>40</Delta>
    <NoteOn Channel="1" Note="69" Velocity="0"/>
  </Event>
  <Event>
    <Delta>0</Delta>
    <NoteOn Channel="1" Note="67" Velocity="100"/>
  </Event>
  <Event>
    <Delta>90</Delta>
    <NoteOn Channel="1" Note="67" Velocity="0"/>
  </Event>
  <Event>
    <Delta>0</Delta>
    <NoteOn Channel="1" Note="69" Velocity="100"/>
  </Event>
  <Event>
    <Delta>30</Delta>
    <NoteOn Channel="1" Note="69" Velocity="0"/>
  </Event>
  <Event>
    <Delta>0</Delta>
    <NoteOn Channel="1" Note="71" Velocity="100"/>
  </Event>
  <Event>
    <Delta>120</Delta>
    <NoteOn Channel="1" Note="71" Velocity="0"/>
  </Event>
  <Event>
    <Delta>0</Delta>
    <NoteOn Channel="1" Note="67" Velocity="100"/>
  </Event>
  <Event>
    <Delta>60</Delta>
    <NoteOn Channel="1" Note="67" Velocity="0"/>
  </Event>
  <Event>
    <Delta>0</Delta>
    <NoteOn Channel="1" Note="64" Velocity="100"/>
  </Event>
  <Event>
    <Delta>300</Delta>
    <NoteOn Channel="1" Note="64" Velocity="0"/>
  </Event>
  <Event>
    <Delta>60</Delta>
    <NoteOn Channel="1" Note="67" Velocity="100"/>
  </Event>
  <Event>
    <Delta>30</Delta>
    <NoteOn Channel="1" Note="67" Velocity="0"/>
  </Event>
  <Event>
    <Delta>30</Delta>
    <NoteOn Channel="1" Note="69" Velocity="100"/>
  </Event>
  <Event>
    <Delta>40</Delta>
    <NoteOn Channel="1" Note="69" Velocity="0"/>
  </Event>
  <Event>
    <Delta>0</Delta>
    <NoteOn Channel="1" Note="69" Velocity="100"/>
  </Event>
  <Event>
    <Delta>40</Delta>
    <NoteOn Channel="1" Note="69" Velocity="0"/>
  </Event>
  <Event>
    <Delta>0</Delta>
    <NoteOn Channel="1" Note="67" Velocity="100"/>
  </Event>
  <Event>
    <Delta>40</Delta>
    <NoteOn Channel="1" Note="67" Velocity="0"/>
  </Event>
  <Event>
    <Delta>0</Delta>
    <NoteOn Channel="1" Note="69" Velocity="100"/>
  </Event>
  <Event>
    <Delta>90</Delta>
    <NoteOn Channel="1" Note="69" Velocity="0"/>
  </Event>
  <Event>
    <Delta>0</Delta>
    <NoteOn Channel="1" Note="67" Velocity="100"/>
  </Event>
  <Event>
    <Delta>30</Delta>
    <NoteOn Channel="1" Note="67" Velocity="0"/>
  </Event>
  <Event>
    <Delta>0</Delta>
    <NoteOn Channel="1" Note="64" Velocity="100"/>
  </Event>
  <Event>
    <Delta>90</Delta>
    <NoteOn Channel="1" Note="64" Velocity="0"/>
  </Event>
  <Event>
    <Delta>0</Delta>
    <NoteOn Channel="1" Note="62" Velocity="100"/>
  </Event>
  <Event>
    <Delta>30</Delta>
    <NoteOn Channel="1" Note="62" Velocity="0"/>
  </Event>
  <Event>
    <Delta>0</Delta>
    <NoteOn Channel="1" Note="64" Velocity="100"/>
  </Event>
  <Event>
    <Delta>120</Delta>
    <NoteOn Channel="1" Note="64" Velocity="0"/>
  </Event>
  <Event>
    <Delta>240</Delta>
    <NoteOn Channel="1" Note="71" Velocity="100"/>
  </Event>
  <Event>
    <Delta>120</Delta>
    <NoteOn Channel="1" Note="71" Velocity="0"/>
  </Event>
  <Event>
    <Delta>0</Delta>
    <NoteOn Channel="1" Note="72" Velocity="100"/>
  </Event>
  <Event>
    <Delta>60</Delta>
    <NoteOn Channel="1" Note="72" Velocity="0"/>
  </Event>
  <Event>
    <Delta>0</Delta>
    <NoteOn Channel="1" Note="69" Velocity="100"/>
  </Event>
  <Event>
    <Delta>60</Delta>
    <NoteOn Channel="1" Note="69" Velocity="0"/>
  </Event>
  <Event>
    <Delta>0</Delta>
    <NoteOn Channel="1" Note="71" Velocity="100"/>
  </Event>
  <Event>
    <Delta>60</Delta>
    <NoteOn Channel="1" Note="71" Velocity="0"/>
  </Event>
  <Event>
    <Delta>0</Delta>
    <NoteOn Channel="1" Note="72" Velocity="100"/>
  </Event>
  <Event>
    <Delta>180</Delta>
    <NoteOn Channel="1" Note="72" Velocity="0"/>
  </Event>
  <Event>
    <Delta>0</Delta>
    <NoteOn Channel="1" Note="69" Velocity="100"/>
  </Event>
  <Event>
    <Delta>60</Delta>
    <NoteOn Channel="1" Note="69" Velocity="0"/>
  </Event>
  <Event>
    <Delta>0</Delta>
    <NoteOn Channel="1" Note="71" Velocity="100"/>
  </Event>
  <Event>
    <Delta>60</Delta>
    <NoteOn Channel="1" Note="71" Velocity="0"/>
  </Event>
  <Event>
    <Delta>0</Delta>
    <NoteOn Channel="1" Note="72" Velocity="100"/>
  </Event>
  <Event>
    <Delta>60</Delta>
    <NoteOn Channel="1" Note="72" Velocity="0"/>
  </Event>
  <Event>
    <Delta>0</Delta>
    <NoteOn Channel="1" Note="69" Velocity="100"/>
  </Event>
  <Event>
    <Delta>60</Delta>
    <NoteOn Channel="1" Note="69" Velocity="0"/>
  </Event>
  <Event>
    <Delta>0</Delta>
    <NoteOn Channel="1" Note="71" Velocity="100"/>
  </Event>
  <Event>
    <Delta>60</Delta>
    <NoteOn Channel="1" Note="71" Velocity="0"/>
  </Event>
  <Event>
    <Delta>0</Delta>
    <NoteOn Channel="1" Note="72" Velocity="100"/>
  </Event>
  <Event>
    <Delta>180</Delta>
    <NoteOn Channel="1" Note="72" Velocity="0"/>
  </Event>
  <Event>
    <Delta>0</Delta>
    <NoteOn Channel="1" Note="69" Velocity="100"/>
  </Event>
  <Event>
    <Delta>120</Delta>
    <NoteOn Channel="1" Note="69" Velocity="0"/>
  </Event>
  <Event>
    <Delta>0</Delta>
    <NoteOn Channel="1" Note="71" Velocity="100"/>
  </Event>
  <Event>
    <Delta>120</Delta>
    <NoteOn Channel="1" Note="71" Velocity="0"/>
  </Event>
  <Event>
    <Delta>0</Delta>
    <NoteOn Channel="1" Note="67" Velocity="100"/>
  </Event>
  <Event>
    <Delta>60</Delta>
    <NoteOn Channel="1" Note="67" Velocity="0"/>
  </Event>
  <Event>
    <Delta>0</Delta>
    <NoteOn Channel="1" Note="62" Velocity="100"/>
  </Event>
  <Event>
    <Delta>180</Delta>
    <NoteOn Channel="1" Note="62" Velocity="0"/>
  </Event>
  <Event>
    <Delta>480</Delta>
    <NoteOn Channel="1" Note="66" Velocity="100"/>
  </Event>
  <Event>
    <Delta>60</Delta>
    <NoteOn Channel="1" Note="66" Velocity="0"/>
  </Event>
  <Event>
    <Delta>0</Delta>
    <NoteOn Channel="1" Note="67" Velocity="100"/>
  </Event>
  <Event>
    <Delta>60</Delta>
    <NoteOn Channel="1" Note="67" Velocity="0"/>
  </Event>
  <Event>
    <Delta>0</Delta>
    <NoteOn Channel="1" Note="69" Velocity="100"/>
  </Event>
  <Event>
    <Delta>60</Delta>
    <NoteOn Channel="1" Note="69" Velocity="0"/>
  </Event>
  <Event>
    <Delta>0</Delta>
    <NoteOn Channel="1" Note="66" Velocity="100"/>
  </Event>
  <Event>
    <Delta>60</Delta>
    <NoteOn Channel="1" Note="66" Velocity="0"/>
  </Event>
  <Event>
    <Delta>0</Delta>
    <NoteOn Channel="1" Note="67" Velocity="100"/>
  </Event>
  <Event>
    <Delta>60</Delta>
    <NoteOn Channel="1" Note="67" Velocity="0"/>
  </Event>
  <Event>
    <Delta>0</Delta>
    <NoteOn Channel="1" Note="69" Velocity="100"/>
  </Event>
  <Event>
    <Delta>180</Delta>
    <NoteOn Channel="1" Note="69" Velocity="0"/>
  </Event>
  <Event>
    <Delta>0</Delta>
    <NoteOn Channel="1" Note="66" Velocity="100"/>
  </Event>
  <Event>
    <Delta>60</Delta>
    <NoteOn Channel="1" Note="66" Velocity="0"/>
  </Event>
  <Event>
    <Delta>0</Delta>
    <NoteOn Channel="1" Note="67" Velocity="100"/>
  </Event>
  <Event>
    <Delta>60</Delta>
    <NoteOn Channel="1" Note="67" Velocity="0"/>
  </Event>
  <Event>
    <Delta>0</Delta>
    <NoteOn Channel="1" Note="69" Velocity="100"/>
  </Event>
  <Event>
    <Delta>60</Delta>
    <NoteOn Channel="1" Note="69" Velocity="0"/>
  </Event>
  <Event>
    <Delta>0</Delta>
    <NoteOn Channel="1" Note="66" Velocity="100"/>
  </Event>
  <Event>
    <Delta>60</Delta>
    <NoteOn Channel="1" Note="66" Velocity="0"/>
  </Event>
  <Event>
    <Delta>0</Delta>
    <NoteOn Channel="1" Note="67" Velocity="100"/>
  </Event>
  <Event>
    <Delta>60</Delta>
    <NoteOn Channel="1" Note="67" Velocity="0"/>
  </Event>
  <Event>
    <Delta>0</Delta>
    <NoteOn Channel="1" Note="69" Velocity="100"/>
  </Event>
  <Event>
    <Delta>180</Delta>
    <NoteOn Channel="1" Note="69" Velocity="0"/>
  </Event>
  <Event>
    <Delta>60</Delta>
    <NoteOn Channel="1" Note="66" Velocity="100"/>
  </Event>
  <Event>
    <Delta>60</Delta>
    <NoteOn Channel="1" Note="66" Velocity="0"/>
  </Event>
  <Event>
    <Delta>0</Delta>
    <NoteOn Channel="1" Note="67" Velocity="100"/>
  </Event>
  <Event>
    <Delta>120</Delta>
    <NoteOn Channel="1" Note="67" Velocity="0"/>
  </Event>
  <Event>
    <Delta>0</Delta>
    <NoteOn Channel="1" Note="69" Velocity="100"/>
  </Event>
  <Event>
    <Delta>60</Delta>
    <NoteOn Channel="1" Note="69" Velocity="0"/>
  </Event>
  <Event>
    <Delta>0</Delta>
    <NoteOn Channel="1" Note="71" Velocity="100"/>
  </Event>
  <Event>
    <Delta>180</Delta>
    <NoteOn Channel="1" Note="71" Velocity="0"/>
  </Event>
  <Event>
    <Delta>570</Delta>
    <NoteOn Channel="1" Note="59" Velocity="100"/>
  </Event>
  <Event>
    <Delta>30</Delta>
    <NoteOn Channel="1" Note="59" Velocity="0"/>
  </Event>
  <Event>
    <Delta>0</Delta>
    <NoteOn Channel="1" Note="59" Velocity="100"/>
  </Event>
  <Event>
    <Delta>90</Delta>
    <NoteOn Channel="1" Note="59" Velocity="0"/>
  </Event>
  <Event>
    <Delta>0</Delta>
    <NoteOn Channel="1" Note="64" Velocity="100"/>
  </Event>
  <Event>
    <Delta>30</Delta>
    <NoteOn Channel="1" Note="64" Velocity="0"/>
  </Event>
  <Event>
    <Delta>0</Delta>
    <NoteOn Channel="1" Note="67" Velocity="100"/>
  </Event>
  <Event>
    <Delta>90</Delta>
    <NoteOn Channel="1" Note="67" Velocity="0"/>
  </Event>
  <Event>
    <Delta>0</Delta>
    <NoteOn Channel="1" Note="71" Velocity="100"/>
  </Event>
  <Event>
    <Delta>30</Delta>
    <NoteOn Channel="1" Note="71" Velocity="0"/>
  </Event>
  <Event>
    <Delta>0</Delta>
    <NoteOn Channel="1" Note="69" Velocity="100"/>
  </Event>
  <Event>
    <Delta>90</Delta>
    <NoteOn Channel="1" Note="69" Velocity="0"/>
  </Event>
  <Event>
    <Delta>0</Delta>
    <NoteOn Channel="1" Note="71" Velocity="100"/>
  </Event>
  <Event>
    <Delta>30</Delta>
    <NoteOn Channel="1" Note="71" Velocity="0"/>
  </Event>
  <Event>
    <Delta>0</Delta>
    <NoteOn Channel="1" Note="69" Velocity="100"/>
  </Event>
  <Event>
    <Delta>90</Delta>
    <NoteOn Channel="1" Note="69" Velocity="0"/>
  </Event>
  <Event>
    <Delta>0</Delta>
    <NoteOn Channel="1" Note="67" Velocity="100"/>
  </Event>
  <Event>
    <Delta>30</Delta>
    <NoteOn Channel="1" Note="67" Velocity="0"/>
  </Event>
  <Event>
    <Delta>0</Delta>
    <NoteOn Channel="1" Note="71" Velocity="100"/>
  </Event>
  <Event>
    <Delta>240</Delta>
    <NoteOn Channel="1" Note="71" Velocity="0"/>
  </Event>
  <Event>
    <Delta>60</Delta>
    <NoteOn Channel="1" Note="59" Velocity="100"/>
  </Event>
  <Event>
    <Delta>30</Delta>
    <NoteOn Channel="1" Note="59" Velocity="0"/>
  </Event>
  <Event>
    <Delta>30</Delta>
    <NoteOn Channel="1" Note="64" Velocity="100"/>
  </Event>
  <Event>
    <Delta>90</Delta>
    <NoteOn Channel="1" Note="64" Velocity="0"/>
  </Event>
  <Event>
    <Delta>0</Delta>
    <NoteOn Channel="1" Note="67" Velocity="100"/>
  </Event>
  <Event>
    <Delta>30</Delta>
    <NoteOn Channel="1" Note="67" Velocity="0"/>
  </Event>
  <Event>
    <Delta>0</Delta>
    <NoteOn Channel="1" Note="71" Velocity="100"/>
  </Event>
  <Event>
    <Delta>90</Delta>
    <NoteOn Channel="1" Note="71" Velocity="0"/>
  </Event>
  <Event>
    <Delta>0</Delta>
    <NoteOn Channel="1" Note="67" Velocity="100"/>
  </Event>
  <Event>
    <Delta>30</Delta>
    <NoteOn Channel="1" Note="67" Velocity="0"/>
  </Event>
  <Event>
    <Delta>0</Delta>
    <NoteOn Channel="1" Note="69" Velocity="100"/>
  </Event>
  <Event>
    <Delta>90</Delta>
    <NoteOn Channel="1" Note="69" Velocity="0"/>
  </Event>
  <Event>
    <Delta>0</Delta>
    <NoteOn Channel="1" Note="71" Velocity="100"/>
  </Event>
  <Event>
    <Delta>30</Delta>
    <NoteOn Channel="1" Note="71" Velocity="0"/>
  </Event>
  <Event>
    <Delta>0</Delta>
    <NoteOn Channel="1" Note="69" Velocity="100"/>
  </Event>
  <Event>
    <Delta>120</Delta>
    <NoteOn Channel="1" Note="69" Velocity="0"/>
  </Event>
  <Event>
    <Delta>60</Delta>
    <NoteOn Channel="1" Note="64" Velocity="100"/>
  </Event>
  <Event>
    <Delta>60</Delta>
    <NoteOn Channel="1" Note="64" Velocity="0"/>
  </Event>
  <Event>
    <Delta>0</Delta>
    <NoteOn Channel="1" Note="67" Velocity="100"/>
  </Event>
  <Event>
    <Delta>90</Delta>
    <NoteOn Channel="1" Note="67" Velocity="0"/>
  </Event>
  <Event>
    <Delta>0</Delta>
    <NoteOn Channel="1" Note="66" Velocity="100"/>
  </Event>
  <Event>
    <Delta>30</Delta>
    <NoteOn Channel="1" Note="66" Velocity="0"/>
  </Event>
  <Event>
    <Delta>0</Delta>
    <NoteOn Channel="1" Note="64" Velocity="100"/>
  </Event>
  <Event>
    <Delta>60</Delta>
    <NoteOn Channel="1" Note="64" Velocity="0"/>
  </Event>
  <Event>
    <Delta>0</Delta>
    <NoteOn Channel="1" Note="66" Velocity="100"/>
  </Event>
  <Event>
    <Delta>180</Delta>
    <NoteOn Channel="1" Note="66" Velocity="0"/>
  </Event>
  <Event>
    <Delta>90</Delta>
    <NoteOn Channel="1" Note="66" Velocity="100"/>
  </Event>
  <Event>
    <Delta>30</Delta>
    <NoteOn Channel="1" Note="66" Velocity="0"/>
  </Event>
  <Event>
    <Delta>0</Delta>
    <NoteOn Channel="1" Note="59" Velocity="100"/>
  </Event>
  <Event>
    <Delta>90</Delta>
    <NoteOn Channel="1" Note="59" Velocity="0"/>
  </Event>
  <Event>
    <Delta>0</Delta>
    <NoteOn Channel="1" Note="64" Velocity="100"/>
  </Event>
  <Event>
    <Delta>30</Delta>
    <NoteOn Channel="1" Note="64" Velocity="0"/>
  </Event>
  <Event>
    <Delta>0</Delta>
    <NoteOn Channel="1" Note="67" Velocity="100"/>
  </Event>
  <Event>
    <Delta>90</Delta>
    <NoteOn Channel="1" Note="67" Velocity="0"/>
  </Event>
  <Event>
    <Delta>0</Delta>
    <NoteOn Channel="1" Note="71" Velocity="100"/>
  </Event>
  <Event>
    <Delta>30</Delta>
    <NoteOn Channel="1" Note="71" Velocity="0"/>
  </Event>
  <Event>
    <Delta>0</Delta>
    <NoteOn Channel="1" Note="69" Velocity="100"/>
  </Event>
  <Event>
    <Delta>90</Delta>
    <NoteOn Channel="1" Note="69" Velocity="0"/>
  </Event>
  <Event>
    <Delta>0</Delta>
    <NoteOn Channel="1" Note="71" Velocity="100"/>
  </Event>
  <Event>
    <Delta>30</Delta>
    <NoteOn Channel="1" Note="71" Velocity="0"/>
  </Event>
  <Event>
    <Delta>0</Delta>
    <NoteOn Channel="1" Note="69" Velocity="100"/>
  </Event>
  <Event>
    <Delta>90</Delta>
    <NoteOn Channel="1" Note="69" Velocity="0"/>
  </Event>
  <Event>
    <Delta>0</Delta>
    <NoteOn Channel="1" Note="67" Velocity="100"/>
  </Event>
  <Event>
    <Delta>30</Delta>
    <NoteOn Channel="1" Note="67" Velocity="0"/>
  </Event>
  <Event>
    <Delta>0</Delta>
    <NoteOn Channel="1" Note="71" Velocity="100"/>
  </Event>
  <Event>
    <Delta>120</Delta>
    <NoteOn Channel="1" Note="71" Velocity="0"/>
  </Event>
  <Event>
    <Delta>0</Delta>
    <NoteOn Channel="1" Note="67" Velocity="100"/>
  </Event>
  <Event>
    <Delta>60</Delta>
    <NoteOn Channel="1" Note="67" Velocity="0"/>
  </Event>
  <Event>
    <Delta>0</Delta>
    <NoteOn Channel="1" Note="64" Velocity="100"/>
  </Event>
  <Event>
    <Delta>300</Delta>
    <NoteOn Channel="1" Note="64" Velocity="0"/>
  </Event>
  <Event>
    <Delta>90</Delta>
    <NoteOn Channel="1" Note="59" Velocity="100"/>
  </Event>
  <Event>
    <Delta>30</Delta>
    <NoteOn Channel="1" Note="59" Velocity="0"/>
  </Event>
  <Event>
    <Delta>0</Delta>
    <NoteOn Channel="1" Note="64" Velocity="100"/>
  </Event>
  <Event>
    <Delta>90</Delta>
    <NoteOn Channel="1" Note="64" Velocity="0"/>
  </Event>
  <Event>
    <Delta>0</Delta>
    <NoteOn Channel="1" Note="67" Velocity="100"/>
  </Event>
  <Event>
    <Delta>30</Delta>
    <NoteOn Channel="1" Note="67" Velocity="0"/>
  </Event>
  <Event>
    <Delta>0</Delta>
    <NoteOn Channel="1" Note="69" Velocity="100"/>
  </Event>
  <Event>
    <Delta>90</Delta>
    <NoteOn Channel="1" Note="69" Velocity="0"/>
  </Event>
  <Event>
    <Delta>0</Delta>
    <NoteOn Channel="1" Note="71" Velocity="100"/>
  </Event>
  <Event>
    <Delta>30</Delta>
    <NoteOn Channel="1" Note="71" Velocity="0"/>
  </Event>
  <Event>
    <Delta>0</Delta>
    <NoteOn Channel="1" Note="69" Velocity="100"/>
  </Event>
  <Event>
    <Delta>90</Delta>
    <NoteOn Channel="1" Note="69" Velocity="0"/>
  </Event>
  <Event>
    <Delta>0</Delta>
    <NoteOn Channel="1" Note="67" Velocity="100"/>
  </Event>
  <Event>
    <Delta>30</Delta>
    <NoteOn Channel="1" Note="67" Velocity="0"/>
  </Event>
  <Event>
    <Delta>0</Delta>
    <NoteOn Channel="1" Note="64" Velocity="100"/>
  </Event>
  <Event>
    <Delta>120</Delta>
    <NoteOn Channel="1" Note="64" Velocity="0"/>
  </Event>
  <Event>
    <Delta>0</Delta>
    <NoteOn Channel="1" Note="62" Velocity="100"/>
  </Event>
  <Event>
    <Delta>60</Delta>
    <NoteOn Channel="1" Note="62" Velocity="0"/>
  </Event>
  <Event>
    <Delta>0</Delta>
    <NoteOn Channel="1" Note="64" Velocity="100"/>
  </Event>
  <Event>
    <Delta>180</Delta>
    <NoteOn Channel="1" Note="64" Velocity="0"/>
  </Event>
  <Event>
    <Delta>0</Delta>
    <EndOfTrack/>
  </Event>
</Track>
<Track Number="2">
  <Event>
    <Delta>0</Delta>
    <MIDIChannelPrefix Value="00"/>
  </Event>
  <Event>
    <Delta>0</Delta>
    <ProgramChange Channel="2" Number="84"/>
  </Event>
  <Event>
    <Delta>0</Delta>
    <ControlChange Channel="2" Control="7" Value="100"/>
  </Event>
  <Event>
    <Delta>0</Delta>
    <ControlChange Channel="2" Control="10" Value="64"/>
  </Event>
  <Event>
    <Delta>0</Delta>
    <ControlChange Channel="2" Control="93" Value="127"/>
  </Event>
  <Event>
    <Delta>0</Delta>
    <ControlChange Channel="2" Control="91" Value="127"/>
  </Event>
  <Event>
    <Delta>0</Delta>
    <NoteOn Channel="2" Note="59" Velocity="100"/>
  </Event>
  <Event>
    <Delta>90</Delta>
    <NoteOn Channel="2" Note="59" Velocity="0"/>
  </Event>
  <Event>
    <Delta>0</Delta>
    <NoteOn Channel="2" Note="64" Velocity="100"/>
  </Event>
  <Event>
    <Delta>30</Delta>
    <NoteOn Channel="2" Note="64" Velocity="0"/>
  </Event>
  <Event>
    <Delta>0</Delta>
    <NoteOn Channel="2" Note="67" Velocity="100"/>
  </Event>
  <Event>
    <Delta>90</Delta>
    <NoteOn Channel="2" Note="67" Velocity="0"/>
  </Event>
  <Event>
    <Delta>0</Delta>
    <NoteOn Channel="2" Note="71" Velocity="100"/>
  </Event>
  <Event>
    <Delta>30</Delta>
    <NoteOn Channel="2" Note="71" Velocity="0"/>
  </Event>
  <Event>
    <Delta>0</Delta>
    <NoteOn Channel="2" Note="69" Velocity="100"/>
  </Event>
  <Event>
    <Delta>90</Delta>
    <NoteOn Channel="2" Note="69" Velocity="0"/>
  </Event>
  <Event>
    <Delta>0</Delta>
    <NoteOn Channel="2" Note="71" Velocity="100"/>
  </Event>
  <Event>
    <Delta>30</Delta>
    <NoteOn Channel="2" Note="71" Velocity="0"/>
  </Event>
  <Event>
    <Delta>0</Delta>
    <NoteOn Channel="2" Note="69" Velocity="100"/>
  </Event>
  <Event>
    <Delta>90</Delta>
    <NoteOn Channel="2" Note="69" Velocity="0"/>
  </Event>
  <Event>
    <Delta>0</Delta>
    <NoteOn Channel="2" Note="67" Velocity="100"/>
  </Event>
  <Event>
    <Delta>30</Delta>
    <NoteOn Channel="2" Note="67" Velocity="0"/>
  </Event>
  <Event>
    <Delta>0</Delta>
    <NoteOn Channel="2" Note="71" Velocity="100"/>
  </Event>
  <Event>
    <Delta>240</Delta>
    <NoteOn Channel="2" Note="71" Velocity="0"/>
  </Event>
  <Event>
    <Delta>60</Delta>
    <NoteOn Channel="2" Note="59" Velocity="100"/>
  </Event>
  <Event>
    <Delta>30</Delta>
    <NoteOn Channel="2" Note="59" Velocity="0"/>
  </Event>
  <Event>
    <Delta>30</Delta>
    <NoteOn Channel="2" Note="64" Velocity="100"/>
  </Event>
  <Event>
    <Delta>90</Delta>
    <NoteOn Channel="2" Note="64" Velocity="0"/>
  </Event>
  <Event>
    <Delta>0</Delta>
    <NoteOn Channel="2" Note="67" Velocity="100"/>
  </Event>
  <Event>
    <Delta>30</Delta>
    <NoteOn Channel="2" Note="67" Velocity="0"/>
  </Event>
  <Event>
    <Delta>0</Delta>
    <NoteOn Channel="2" Note="64" Velocity="100"/>
  </Event>
  <Event>
    <Delta>0</Delta>
    <NoteOn Channel="2" Note="71" Velocity="100"/>
  </Event>
  <Event>
    <Delta>90</Delta>
    <NoteOn Channel="2" Note="71" Velocity="0"/>
  </Event>
  <Event>
    <Delta>0</Delta>
    <NoteOn Channel="2" Note="67" Velocity="100"/>
  </Event>
  <Event>
    <Delta>30</Delta>
    <NoteOn Channel="2" Note="67" Velocity="0"/>
  </Event>
  <Event>
    <Delta>0</Delta>
    <NoteOn Channel="2" Note="69" Velocity="100"/>
  </Event>
  <Event>
    <Delta>90</Delta>
    <NoteOn Channel="2" Note="69" Velocity="0"/>
  </Event>
  <Event>
    <Delta>0</Delta>
    <NoteOn Channel="2" Note="71" Velocity="100"/>
  </Event>
  <Event>
    <Delta>30</Delta>
    <NoteOn Channel="2" Note="71" Velocity="0"/>
  </Event>
  <Event>
    <Delta>0</Delta>
    <NoteOn Channel="2" Note="69" Velocity="100"/>
  </Event>
  <Event>
    <Delta>120</Delta>
    <NoteOn Channel="2" Note="69" Velocity="0"/>
  </Event>
  <Event>
    <Delta>0</Delta>
    <NoteOn Channel="2" Note="64" Velocity="0"/>
  </Event>
  <Event>
    <Delta>60</Delta>
    <NoteOn Channel="2" Note="64" Velocity="100"/>
  </Event>
  <Event>
    <Delta>60</Delta>
    <NoteOn Channel="2" Note="64" Velocity="0"/>
  </Event>
  <Event>
    <Delta>0</Delta>
    <NoteOn Channel="2" Note="67" Velocity="100"/>
  </Event>
  <Event>
    <Delta>90</Delta>
    <NoteOn Channel="2" Note="67" Velocity="0"/>
  </Event>
  <Event>
    <Delta>0</Delta>
    <NoteOn Channel="2" Note="66" Velocity="100"/>
  </Event>
  <Event>
    <Delta>30</Delta>
    <NoteOn Channel="2" Note="66" Velocity="0"/>
  </Event>
  <Event>
    <Delta>0</Delta>
    <NoteOn Channel="2" Note="64" Velocity="100"/>
  </Event>
  <Event>
    <Delta>60</Delta>
    <NoteOn Channel="2" Note="64" Velocity="0"/>
  </Event>
  <Event>
    <Delta>0</Delta>
    <NoteOn Channel="2" Note="66" Velocity="100"/>
  </Event>
  <Event>
    <Delta>180</Delta>
    <NoteOn Channel="2" Note="66" Velocity="0"/>
  </Event>
  <Event>
    <Delta>120</Delta>
    <NoteOn Channel="2" Note="59" Velocity="100"/>
  </Event>
  <Event>
    <Delta>45</Delta>
    <NoteOn Channel="2" Note="59" Velocity="0"/>
  </Event>
  <Event>
    <Delta>45</Delta>
    <NoteOn Channel="2" Note="64" Velocity="100"/>
  </Event>
  <Event>
    <Delta>30</Delta>
    <NoteOn Channel="2" Note="64" Velocity="0"/>
  </Event>
  <Event>
    <Delta>0</Delta>
    <NoteOn Channel="2" Note="67" Velocity="100"/>
  </Event>
  <Event>
    <Delta>90</Delta>
    <NoteOn Channel="2" Note="67" Velocity="0"/>
  </Event>
  <Event>
    <Delta>0</Delta>
    <NoteOn Channel="2" Note="71" Velocity="100"/>
  </Event>
  <Event>
    <Delta>30</Delta>
    <NoteOn Channel="2" Note="71" Velocity="0"/>
  </Event>
  <Event>
    <Delta>0</Delta>
    <NoteOn Channel="2" Note="69" Velocity="100"/>
  </Event>
  <Event>
    <Delta>40</Delta>
    <NoteOn Channel="2" Note="69" Velocity="0"/>
  </Event>
  <Event>
    <Delta>0</Delta>
    <NoteOn Channel="2" Note="71" Velocity="100"/>
  </Event>
  <Event>
    <Delta>40</Delta>
    <NoteOn Channel="2" Note="71" Velocity="0"/>
  </Event>
  <Event>
    <Delta>0</Delta>
    <NoteOn Channel="2" Note="69" Velocity="100"/>
  </Event>
  <Event>
    <Delta>40</Delta>
    <NoteOn Channel="2" Note="69" Velocity="0"/>
  </Event>
  <Event>
    <Delta>0</Delta>
    <NoteOn Channel="2" Note="67" Velocity="100"/>
  </Event>
  <Event>
    <Delta>90</Delta>
    <NoteOn Channel="2" Note="67" Velocity="0"/>
  </Event>
  <Event>
    <Delta>0</Delta>
    <NoteOn Channel="2" Note="69" Velocity="100"/>
  </Event>
  <Event>
    <Delta>30</Delta>
    <NoteOn Channel="2" Note="69" Velocity="0"/>
  </Event>
  <Event>
    <Delta>0</Delta>
    <NoteOn Channel="2" Note="71" Velocity="100"/>
  </Event>
  <Event>
    <Delta>120</Delta>
    <NoteOn Channel="2" Note="71" Velocity="0"/>
  </Event>
  <Event>
    <Delta>0</Delta>
    <NoteOn Channel="2" Note="67" Velocity="100"/>
  </Event>
  <Event>
    <Delta>60</Delta>
    <NoteOn Channel="2" Note="67" Velocity="0"/>
  </Event>
  <Event>
    <Delta>0</Delta>
    <NoteOn Channel="2" Note="64" Velocity="100"/>
  </Event>
  <Event>
    <Delta>300</Delta>
    <NoteOn Channel="2" Note="64" Velocity="0"/>
  </Event>
  <Event>
    <Delta>0</Delta>
    <NoteOn Channel="2" Note="64" Velocity="100"/>
  </Event>
  <Event>
    <Delta>60</Delta>
    <NoteOn Channel="2" Note="67" Velocity="100"/>
  </Event>
  <Event>
    <Delta>30</Delta>
    <NoteOn Channel="2" Note="67" Velocity="0"/>
  </Event>
  <Event>
    <Delta>30</Delta>
    <NoteOn Channel="2" Note="69" Velocity="100"/>
  </Event>
  <Event>
    <Delta>40</Delta>
    <NoteOn Channel="2" Note="69" Velocity="0"/>
  </Event>
  <Event>
    <Delta>0</Delta>
    <NoteOn Channel="2" Note="69" Velocity="100"/>
  </Event>
  <Event>
    <Delta>40</Delta>
    <NoteOn Channel="2" Note="69" Velocity="0"/>
  </Event>
  <Event>
    <Delta>0</Delta>
    <NoteOn Channel="2" Note="67" Velocity="100"/>
  </Event>
  <Event>
    <Delta>40</Delta>
    <NoteOn Channel="2" Note="67" Velocity="0"/>
  </Event>
  <Event>
    <Delta>0</Delta>
    <NoteOn Channel="2" Note="64" Velocity="0"/>
  </Event>
  <Event>
    <Delta>0</Delta>
    <NoteOn Channel="2" Note="62" Velocity="100"/>
  </Event>
  <Event>
    <Delta>0</Delta>
    <NoteOn Channel="2" Note="69" Velocity="100"/>
  </Event>
  <Event>
    <Delta>90</Delta>
    <NoteOn Channel="2" Note="69" Velocity="0"/>
  </Event>
  <Event>
    <Delta>0</Delta>
    <NoteOn Channel="2" Note="67" Velocity="100"/>
  </Event>
  <Event>
    <Delta>30</Delta>
    <NoteOn Channel="2" Note="67" Velocity="0"/>
  </Event>
  <Event>
    <Delta>0</Delta>
    <NoteOn Channel="2" Note="64" Velocity="100"/>
  </Event>
  <Event>
    <Delta>90</Delta>
    <NoteOn Channel="2" Note="64" Velocity="0"/>
  </Event>
  <Event>
    <Delta>0</Delta>
    <NoteOn Channel="2" Note="62" Velocity="100"/>
  </Event>
  <Event>
    <Delta>30</Delta>
    <NoteOn Channel="2" Note="62" Velocity="0"/>
  </Event>
  <Event>
    <Delta>0</Delta>
    <NoteOn Channel="2" Note="62" Velocity="0"/>
  </Event>
  <Event>
    <Delta>0</Delta>
    <NoteOn Channel="2" Note="64" Velocity="100"/>
  </Event>
  <Event>
    <Delta>120</Delta>
    <NoteOn Channel="2" Note="64" Velocity="0"/>
  </Event>
  <Event>
    <Delta>0</Delta>
    <NoteOn Channel="2" Note="62" Velocity="100"/>
  </Event>
  <Event>
    <Delta>60</Delta>
    <NoteOn Channel="2" Note="62" Velocity="0"/>
  </Event>
  <Event>
    <Delta>0</Delta>
    <NoteOn Channel="2" Note="64" Velocity="100"/>
  </Event>
  <Event>
    <Delta>180</Delta>
    <NoteOn Channel="2" Note="64" Velocity="0"/>
  </Event>
  <Event>
    <Delta>0</Delta>
    <NoteOn Channel="2" Note="71" Velocity="100"/>
  </Event>
  <Event>
    <Delta>120</Delta>
    <NoteOn Channel="2" Note="71" Velocity="0"/>
  </Event>
  <Event>
    <Delta>0</Delta>
    <NoteOn Channel="2" Note="72" Velocity="100"/>
  </Event>
  <Event>
    <Delta>60</Delta>
    <NoteOn Channel="2" Note="72" Velocity="0"/>
  </Event>
  <Event>
    <Delta>0</Delta>
    <NoteOn Channel="2" Note="69" Velocity="100"/>
  </Event>
  <Event>
    <Delta>60</Delta>
    <NoteOn Channel="2" Note="69" Velocity="0"/>
  </Event>
  <Event>
    <Delta>0</Delta>
    <NoteOn Channel="2" Note="71" Velocity="100"/>
  </Event>
  <Event>
    <Delta>60</Delta>
    <NoteOn Channel="2" Note="71" Velocity="0"/>
  </Event>
  <Event>
    <Delta>0</Delta>
    <NoteOn Channel="2" Note="72" Velocity="100"/>
  </Event>
  <Event>
    <Delta>180</Delta>
    <NoteOn Channel="2" Note="72" Velocity="0"/>
  </Event>
  <Event>
    <Delta>0</Delta>
    <NoteOn Channel="2" Note="69" Velocity="100"/>
  </Event>
  <Event>
    <Delta>60</Delta>
    <NoteOn Channel="2" Note="69" Velocity="0"/>
  </Event>
  <Event>
    <Delta>0</Delta>
    <NoteOn Channel="2" Note="71" Velocity="100"/>
  </Event>
  <Event>
    <Delta>60</Delta>
    <NoteOn Channel="2" Note="71" Velocity="0"/>
  </Event>
  <Event>
    <Delta>0</Delta>
    <NoteOn Channel="2" Note="72" Velocity="100"/>
  </Event>
  <Event>
    <Delta>60</Delta>
    <NoteOn Channel="2" Note="72" Velocity="0"/>
  </Event>
  <Event>
    <Delta>0</Delta>
    <NoteOn Channel="2" Note="69" Velocity="100"/>
  </Event>
  <Event>
    <Delta>60</Delta>
    <NoteOn Channel="2" Note="69" Velocity="0"/>
  </Event>
  <Event>
    <Delta>0</Delta>
    <NoteOn Channel="2" Note="71" Velocity="100"/>
  </Event>
  <Event>
    <Delta>60</Delta>
    <NoteOn Channel="2" Note="71" Velocity="0"/>
  </Event>
  <Event>
    <Delta>0</Delta>
    <NoteOn Channel="2" Note="72" Velocity="100"/>
  </Event>
  <Event>
    <Delta>180</Delta>
    <NoteOn Channel="2" Note="72" Velocity="0"/>
  </Event>
  <Event>
    <Delta>0</Delta>
    <NoteOn Channel="2" Note="69" Velocity="100"/>
  </Event>
  <Event>
    <Delta>120</Delta>
    <NoteOn Channel="2" Note="69" Velocity="0"/>
  </Event>
  <Event>
    <Delta>0</Delta>
    <NoteOn Channel="2" Note="71" Velocity="100"/>
  </Event>
  <Event>
    <Delta>120</Delta>
    <NoteOn Channel="2" Note="71" Velocity="0"/>
  </Event>
  <Event>
    <Delta>0</Delta>
    <NoteOn Channel="2" Note="67" Velocity="100"/>
  </Event>
  <Event>
    <Delta>60</Delta>
    <NoteOn Channel="2" Note="67" Velocity="0"/>
  </Event>
  <Event>
    <Delta>0</Delta>
    <NoteOn Channel="2" Note="62" Velocity="100"/>
  </Event>
  <Event>
    <Delta>420</Delta>
    <NoteOn Channel="2" Note="62" Velocity="0"/>
  </Event>
  <Event>
    <Delta>240</Delta>
    <NoteOn Channel="2" Note="66" Velocity="100"/>
  </Event>
  <Event>
    <Delta>60</Delta>
    <NoteOn Channel="2" Note="66" Velocity="0"/>
  </Event>
  <Event>
    <Delta>0</Delta>
    <NoteOn Channel="2" Note="67" Velocity="100"/>
  </Event>
  <Event>
    <Delta>60</Delta>
    <NoteOn Channel="2" Note="67" Velocity="0"/>
  </Event>
  <Event>
    <Delta>0</Delta>
    <NoteOn Channel="2" Note="69" Velocity="100"/>
  </Event>
  <Event>
    <Delta>60</Delta>
    <NoteOn Channel="2" Note="69" Velocity="0"/>
  </Event>
  <Event>
    <Delta>0</Delta>
    <NoteOn Channel="2" Note="66" Velocity="100"/>
  </Event>
  <Event>
    <Delta>60</Delta>
    <NoteOn Channel="2" Note="66" Velocity="0"/>
  </Event>
  <Event>
    <Delta>0</Delta>
    <NoteOn Channel="2" Note="67" Velocity="100"/>
  </Event>
  <Event>
    <Delta>60</Delta>
    <NoteOn Channel="2" Note="67" Velocity="0"/>
  </Event>
  <Event>
    <Delta>0</Delta>
    <NoteOn Channel="2" Note="69" Velocity="100"/>
  </Event>
  <Event>
    <Delta>180</Delta>
    <NoteOn Channel="2" Note="69" Velocity="0"/>
  </Event>
  <Event>
    <Delta>0</Delta>
    <NoteOn Channel="2" Note="66" Velocity="100"/>
  </Event>
  <Event>
    <Delta>60</Delta>
    <NoteOn Channel="2" Note="66" Velocity="0"/>
  </Event>
  <Event>
    <Delta>0</Delta>
    <NoteOn Channel="2" Note="67" Velocity="100"/>
  </Event>
  <Event>
    <Delta>60</Delta>
    <NoteOn Channel="2" Note="67" Velocity="0"/>
  </Event>
  <Event>
    <Delta>0</Delta>
    <NoteOn Channel="2" Note="69" Velocity="100"/>
  </Event>
  <Event>
    <Delta>60</Delta>
    <NoteOn Channel="2" Note="69" Velocity="0"/>
  </Event>
  <Event>
    <Delta>0</Delta>
    <NoteOn Channel="2" Note="66" Velocity="100"/>
  </Event>
  <Event>
    <Delta>60</Delta>
    <NoteOn Channel="2" Note="66" Velocity="0"/>
  </Event>
  <Event>
    <Delta>0</Delta>
    <NoteOn Channel="2" Note="67" Velocity="100"/>
  </Event>
  <Event>
    <Delta>60</Delta>
    <NoteOn Channel="2" Note="67" Velocity="0"/>
  </Event>
  <Event>
    <Delta>0</Delta>
    <NoteOn Channel="2" Note="69" Velocity="100"/>
  </Event>
  <Event>
    <Delta>180</Delta>
    <NoteOn Channel="2" Note="69" Velocity="0"/>
  </Event>
  <Event>
    <Delta>60</Delta>
    <NoteOn Channel="2" Note="66" Velocity="100"/>
  </Event>
  <Event>
    <Delta>60</Delta>
    <NoteOn Channel="2" Note="66" Velocity="0"/>
  </Event>
  <Event>
    <Delta>0</Delta>
    <NoteOn Channel="2" Note="64" Velocity="100"/>
  </Event>
  <Event>
    <Delta>0</Delta>
    <NoteOn Channel="2" Note="67" Velocity="100"/>
  </Event>
  <Event>
    <Delta>120</Delta>
    <NoteOn Channel="2" Note="67" Velocity="0"/>
  </Event>
  <Event>
    <Delta>0</Delta>
    <NoteOn Channel="2" Note="69" Velocity="100"/>
  </Event>
  <Event>
    <Delta>60</Delta>
    <NoteOn Channel="2" Note="69" Velocity="0"/>
  </Event>
  <Event>
    <Delta>0</Delta>
    <NoteOn Channel="2" Note="64" Velocity="0"/>
  </Event>
  <Event>
    <Delta>0</Delta>
    <NoteOn Channel="2" Note="63" Velocity="100"/>
  </Event>
  <Event>
    <Delta>0</Delta>
    <NoteOn Channel="2" Note="71" Velocity="100"/>
  </Event>
  <Event>
    <Delta>180</Delta>
    <NoteOn Channel="2" Note="71" Velocity="0"/>
  </Event>
  <Event>
    <Delta>0</Delta>
    <NoteOn Channel="2" Note="63" Velocity="0"/>
  </Event>
  <Event>
    <Delta>120</Delta>
    <NoteOn Channel="2" Note="67" Velocity="100"/>
  </Event>
  <Event>
    <Delta>0</Delta>
    <NoteOn Channel="2" Note="64" Velocity="100"/>
  </Event>
  <Event>
    <Delta>90</Delta>
    <NoteOn Channel="2" Note="64" Velocity="0"/>
  </Event>
  <Event>
    <Delta>0</Delta>
    <NoteOn Channel="2" Note="67" Velocity="0"/>
  </Event>
  <Event>
    <Delta>0</Delta>
    <NoteOn Channel="2" Note="69" Velocity="100"/>
  </Event>
  <Event>
    <Delta>0</Delta>
    <NoteOn Channel="2" Note="66" Velocity="100"/>
  </Event>
  <Event>
    <Delta>30</Delta>
    <NoteOn Channel="2" Note="66" Velocity="0"/>
  </Event>
  <Event>
    <Delta>0</Delta>
    <NoteOn Channel="2" Note="69" Velocity="0"/>
  </Event>
  <Event>
    <Delta>0</Delta>
    <NoteOn Channel="2" Note="67" Velocity="100"/>
  </Event>
  <Event>
    <Delta>0</Delta>
    <NoteOn Channel="2" Note="64" Velocity="100"/>
  </Event>
  <Event>
    <Delta>90</Delta>
    <NoteOn Channel="2" Note="64" Velocity="0"/>
  </Event>
  <Event>
    <Delta>0</Delta>
    <NoteOn Channel="2" Note="67" Velocity="0"/>
  </Event>
  <Event>
    <Delta>0</Delta>
    <NoteOn Channel="2" Note="66" Velocity="100"/>
  </Event>
  <Event>
    <Delta>0</Delta>
    <NoteOn Channel="2" Note="63" Velocity="100"/>
  </Event>
  <Event>
    <Delta>150</Delta>
    <NoteOn Channel="2" Note="63" Velocity="0"/>
  </Event>
  <Event>
    <Delta>0</Delta>
    <NoteOn Channel="2" Note="66" Velocity="0"/>
  </Event>
  <Event>
    <Delta>90</Delta>
    <NoteOn Channel="2" Note="59" Velocity="100"/>
  </Event>
  <Event>
    <Delta>30</Delta>
    <NoteOn Channel="2" Note="59" Velocity="0"/>
  </Event>
  <Event>
    <Delta>0</Delta>
    <NoteOn Channel="2" Note="59" Velocity="100"/>
  </Event>
  <Event>
    <Delta>90</Delta>
    <NoteOn Channel="2" Note="59" Velocity="0"/>
  </Event>
  <Event>
    <Delta>0</Delta>
    <NoteOn Channel="2" Note="64" Velocity="100"/>
  </Event>
  <Event>
    <Delta>30</Delta>
    <NoteOn Channel="2" Note="64" Velocity="0"/>
  </Event>
  <Event>
    <Delta>0</Delta>
    <NoteOn Channel="2" Note="67" Velocity="100"/>
  </Event>
  <Event>
    <Delta>90</Delta>
    <NoteOn Channel="2" Note="67" Velocity="0"/>
  </Event>
  <Event>
    <Delta>0</Delta>
    <NoteOn Channel="2" Note="71" Velocity="100"/>
  </Event>
  <Event>
    <Delta>30</Delta>
    <NoteOn Channel="2" Note="71" Velocity="0"/>
  </Event>
  <Event>
    <Delta>0</Delta>
    <NoteOn Channel="2" Note="69" Velocity="100"/>
  </Event>
  <Event>
    <Delta>90</Delta>
    <NoteOn Channel="2" Note="69" Velocity="0"/>
  </Event>
  <Event>
    <Delta>0</Delta>
    <NoteOn Channel="2" Note="71" Velocity="100"/>
  </Event>
  <Event>
    <Delta>30</Delta>
    <NoteOn Channel="2" Note="71" Velocity="0"/>
  </Event>
  <Event>
    <Delta>0</Delta>
    <NoteOn Channel="2" Note="69" Velocity="100"/>
  </Event>
  <Event>
    <Delta>90</Delta>
    <NoteOn Channel="2" Note="69" Velocity="0"/>
  </Event>
  <Event>
    <Delta>0</Delta>
    <NoteOn Channel="2" Note="67" Velocity="100"/>
  </Event>
  <Event>
    <Delta>30</Delta>
    <NoteOn Channel="2" Note="67" Velocity="0"/>
  </Event>
  <Event>
    <Delta>0</Delta>
    <NoteOn Channel="2" Note="71" Velocity="100"/>
  </Event>
  <Event>
    <Delta>240</Delta>
    <NoteOn Channel="2" Note="71" Velocity="0"/>
  </Event>
  <Event>
    <Delta>60</Delta>
    <NoteOn Channel="2" Note="59" Velocity="100"/>
  </Event>
  <Event>
    <Delta>30</Delta>
    <NoteOn Channel="2" Note="59" Velocity="0"/>
  </Event>
  <Event>
    <Delta>30</Delta>
    <NoteOn Channel="2" Note="64" Velocity="100"/>
  </Event>
  <Event>
    <Delta>90</Delta>
    <NoteOn Channel="2" Note="64" Velocity="0"/>
  </Event>
  <Event>
    <Delta>0</Delta>
    <NoteOn Channel="2" Note="67" Velocity="100"/>
  </Event>
  <Event>
    <Delta>30</Delta>
    <NoteOn Channel="2" Note="67" Velocity="0"/>
  </Event>
  <Event>
    <Delta>0</Delta>
    <NoteOn Channel="2" Note="64" Velocity="100"/>
  </Event>
  <Event>
    <Delta>0</Delta>
    <NoteOn Channel="2" Note="71" Velocity="100"/>
  </Event>
  <Event>
    <Delta>90</Delta>
    <NoteOn Channel="2" Note="71" Velocity="0"/>
  </Event>
  <Event>
    <Delta>0</Delta>
    <NoteOn Channel="2" Note="67" Velocity="100"/>
  </Event>
  <Event>
    <Delta>30</Delta>
    <NoteOn Channel="2" Note="67" Velocity="0"/>
  </Event>
  <Event>
    <Delta>0</Delta>
    <NoteOn Channel="2" Note="69" Velocity="100"/>
  </Event>
  <Event>
    <Delta>90</Delta>
    <NoteOn Channel="2" Note="69" Velocity="0"/>
  </Event>
  <Event>
    <Delta>0</Delta>
    <NoteOn Channel="2" Note="71" Velocity="100"/>
  </Event>
  <Event>
    <Delta>30</Delta>
    <NoteOn Channel="2" Note="71" Velocity="0"/>
  </Event>
  <Event>
    <Delta>0</Delta>
    <NoteOn Channel="2" Note="69" Velocity="100"/>
  </Event>
  <Event>
    <Delta>120</Delta>
    <NoteOn Channel="2" Note="69" Velocity="0"/>
  </Event>
  <Event>
    <Delta>0</Delta>
    <NoteOn Channel="2" Note="64" Velocity="0"/>
  </Event>
  <Event>
    <Delta>60</Delta>
    <NoteOn Channel="2" Note="64" Velocity="100"/>
  </Event>
  <Event>
    <Delta>60</Delta>
    <NoteOn Channel="2" Note="64" Velocity="0"/>
  </Event>
  <Event>
    <Delta>0</Delta>
    <NoteOn Channel="2" Note="67" Velocity="100"/>
  </Event>
  <Event>
    <Delta>90</Delta>
    <NoteOn Channel="2" Note="67" Velocity="0"/>
  </Event>
  <Event>
    <Delta>0</Delta>
    <NoteOn Channel="2" Note="66" Velocity="100"/>
  </Event>
  <Event>
    <Delta>30</Delta>
    <NoteOn Channel="2" Note="66" Velocity="0"/>
  </Event>
  <Event>
    <Delta>0</Delta>
    <NoteOn Channel="2" Note="64" Velocity="100"/>
  </Event>
  <Event>
    <Delta>60</Delta>
    <NoteOn Channel="2" Note="64" Velocity="0"/>
  </Event>
  <Event>
    <Delta>0</Delta>
    <NoteOn Channel="2" Note="66" Velocity="100"/>
  </Event>
  <Event>
    <Delta>180</Delta>
    <NoteOn Channel="2" Note="66" Velocity="0"/>
  </Event>
  <Event>
    <Delta>90</Delta>
    <NoteOn Channel="2" Note="66" Velocity="100"/>
  </Event>
  <Event>
    <Delta>30</Delta>
    <NoteOn Channel="2" Note="66" Velocity="0"/>
  </Event>
  <Event>
    <Delta>0</Delta>
    <NoteOn Channel="2" Note="59" Velocity="100"/>
  </Event>
  <Event>
    <Delta>90</Delta>
    <NoteOn Channel="2" Note="59" Velocity="0"/>
  </Event>
  <Event>
    <Delta>0</Delta>
    <NoteOn Channel="2" Note="64" Velocity="100"/>
  </Event>
  <Event>
    <Delta>30</Delta>
    <NoteOn Channel="2" Note="64" Velocity="0"/>
  </Event>
  <Event>
    <Delta>0</Delta>
    <NoteOn Channel="2" Note="67" Velocity="100"/>
  </Event>
  <Event>
    <Delta>90</Delta>
    <NoteOn Channel="2" Note="67" Velocity="0"/>
  </Event>
  <Event>
    <Delta>0</Delta>
    <NoteOn Channel="2" Note="71" Velocity="100"/>
  </Event>
  <Event>
    <Delta>30</Delta>
    <NoteOn Channel="2" Note="71" Velocity="0"/>
  </Event>
  <Event>
    <Delta>0</Delta>
    <NoteOn Channel="2" Note="69" Velocity="100"/>
  </Event>
  <Event>
    <Delta>90</Delta>
    <NoteOn Channel="2" Note="69" Velocity="0"/>
  </Event>
  <Event>
    <Delta>0</Delta>
    <NoteOn Channel="2" Note="71" Velocity="100"/>
  </Event>
  <Event>
    <Delta>30</Delta>
    <NoteOn Channel="2" Note="71" Velocity="0"/>
  </Event>
  <Event>
    <Delta>0</Delta>
    <NoteOn Channel="2" Note="69" Velocity="100"/>
  </Event>
  <Event>
    <Delta>90</Delta>
    <NoteOn Channel="2" Note="69" Velocity="0"/>
  </Event>
  <Event>
    <Delta>0</Delta>
    <NoteOn Channel="2" Note="67" Velocity="100"/>
  </Event>
  <Event>
    <Delta>30</Delta>
    <NoteOn Channel="2" Note="67" Velocity="0"/>
  </Event>
  <Event>
    <Delta>0</Delta>
    <NoteOn Channel="2" Note="71" Velocity="100"/>
  </Event>
  <Event>
    <Delta>120</Delta>
    <NoteOn Channel="2" Note="71" Velocity="0"/>
  </Event>
  <Event>
    <Delta>0</Delta>
    <NoteOn Channel="2" Note="67" Velocity="100"/>
  </Event>
  <Event>
    <Delta>60</Delta>
    <NoteOn Channel="2" Note="67" Velocity="0"/>
  </Event>
  <Event>
    <Delta>0</Delta>
    <NoteOn Channel="2" Note="64" Velocity="100"/>
  </Event>
  <Event>
    <Delta>300</Delta>
    <NoteOn Channel="2" Note="64" Velocity="0"/>
  </Event>
  <Event>
    <Delta>90</Delta>
    <NoteOn Channel="2" Note="59" Velocity="100"/>
  </Event>
  <Event>
    <Delta>30</Delta>
    <NoteOn Channel="2" Note="59" Velocity="0"/>
  </Event>
  <Event>
    <Delta>0</Delta>
    <NoteOn Channel="2" Note="64" Velocity="100"/>
  </Event>
  <Event>
    <Delta>90</Delta>
    <NoteOn Channel="2" Note="64" Velocity="0"/>
  </Event>
  <Event>
    <Delta>0</Delta>
    <NoteOn Channel="2" Note="67" Velocity="100"/>
  </Event>
  <Event>
    <Delta>30</Delta>
    <NoteOn Channel="2" Note="67" Velocity="0"/>
  </Event>
  <Event>
    <Delta>0</Delta>
    <NoteOn Channel="2" Note="69" Velocity="100"/>
  </Event>
  <Event>
    <Delta>90</Delta>
    <NoteOn Channel="2" Note="69" Velocity="0"/>
  </Event>
  <Event>
    <Delta>0</Delta>
    <NoteOn Channel="2" Note="71" Velocity="100"/>
  </Event>
  <Event>
    <Delta>30</Delta>
    <NoteOn Channel="2" Note="71" Velocity="0"/>
  </Event>
  <Event>
    <Delta>0</Delta>
    <NoteOn Channel="2" Note="69" Velocity="100"/>
  </Event>
  <Event>
    <Delta>90</Delta>
    <NoteOn Channel="2" Note="69" Velocity="0"/>
  </Event>
  <Event>
    <Delta>0</Delta>
    <NoteOn Channel="2" Note="67" Velocity="100"/>
  </Event>
  <Event>
    <Delta>30</Delta>
    <NoteOn Channel="2" Note="67" Velocity="0"/>
  </Event>
  <Event>
    <Delta>0</Delta>
    <NoteOn Channel="2" Note="64" Velocity="100"/>
  </Event>
  <Event>
    <Delta>120</Delta>
    <NoteOn Channel="2" Note="64" Velocity="0"/>
  </Event>
  <Event>
    <Delta>0</Delta>
    <NoteOn Channel="2" Note="62" Velocity="100"/>
  </Event>
  <Event>
    <Delta>60</Delta>
    <NoteOn Channel="2" Note="62" Velocity="0"/>
  </Event>
  <Event>
    <Delta>0</Delta>
    <NoteOn Channel="2" Note="64" Velocity="100"/>
  </Event>
  <Event>
    <Delta>180</Delta>
    <NoteOn Channel="2" Note="64" Velocity="0"/>
  </Event>
  <Event>
    <Delta>120</Delta>
    <NoteOn Channel="2" Note="67" Velocity="100"/>
  </Event>
  <Event>
    <Delta>0</Delta>
    <NoteOn Channel="2" Note="64" Velocity="100"/>
  </Event>
  <Event>
    <Delta>60</Delta>
    <NoteOn Channel="2" Note="64" Velocity="0"/>
  </Event>
  <Event>
    <Delta>0</Delta>
    <NoteOn Channel="2" Note="67" Velocity="0"/>
  </Event>
  <Event>
    <Delta>0</Delta>
    <NoteOn Channel="2" Note="60" Velocity="100"/>
  </Event>
  <Event>
    <Delta>60</Delta>
    <NoteOn Channel="2" Note="60" Velocity="0"/>
  </Event>
  <Event>
    <Delta>0</Delta>
    <NoteOn Channel="2" Note="67" Velocity="100"/>
  </Event>
  <Event>
    <Delta>0</Delta>
    <NoteOn Channel="2" Note="64" Velocity="100"/>
  </Event>
  <Event>
    <Delta>60</Delta>
    <NoteOn Channel="2" Note="64" Velocity="0"/>
  </Event>
  <Event>
    <Delta>0</Delta>
    <NoteOn Channel="2" Note="67" Velocity="0"/>
  </Event>
  <Event>
    <Delta>0</Delta>
    <NoteOn Channel="2" Note="66" Velocity="100"/>
  </Event>
  <Event>
    <Delta>0</Delta>
    <NoteOn Channel="2" Note="63" Velocity="100"/>
  </Event>
  <Event>
    <Delta>180</Delta>
    <NoteOn Channel="2" Note="63" Velocity="0"/>
  </Event>
  <Event>
    <Delta>0</Delta>
    <NoteOn Channel="2" Note="66" Velocity="0"/>
  </Event>
  <Event>
    <Delta>120</Delta>
    <NoteOn Channel="2" Note="67" Velocity="100"/>
  </Event>
  <Event>
    <Delta>90</Delta>
    <NoteOn Channel="2" Note="67" Velocity="0"/>
  </Event>
  <Event>
    <Delta>0</Delta>
    <NoteOn Channel="2" Note="66" Velocity="100"/>
  </Event>
  <Event>
    <Delta>30</Delta>
    <NoteOn Channel="2" Note="66" Velocity="0"/>
  </Event>
  <Event>
    <Delta>0</Delta>
    <NoteOn Channel="2" Note="67" Velocity="100"/>
  </Event>
  <Event>
    <Delta>90</Delta>
    <NoteOn Channel="2" Note="67" Velocity="0"/>
  </Event>
  <Event>
    <Delta>0</Delta>
    <NoteOn Channel="2" Note="66" Velocity="100"/>
  </Event>
  <Event>
    <Delta>30</Delta>
    <NoteOn Channel="2" Note="66" Velocity="0"/>
  </Event>
  <Event>
    <Delta>0</Delta>
    <NoteOn Channel="2" Note="67" Velocity="100"/>
  </Event>
  <Event>
    <Delta>40</Delta>
    <NoteOn Channel="2" Note="67" Velocity="0"/>
  </Event>
  <Event>
    <Delta>0</Delta>
    <NoteOn Channel="2" Note="66" Velocity="100"/>
  </Event>
  <Event>
    <Delta>40</Delta>
    <NoteOn Channel="2" Note="66" Velocity="0"/>
  </Event>
  <Event>
    <Delta>0</Delta>
    <NoteOn Channel="2" Note="67" Velocity="100"/>
  </Event>
  <Event>
    <Delta>40</Delta>
    <NoteOn Channel="2" Note="67" Velocity="0"/>
  </Event>
  <Event>
    <Delta>0</Delta>
    <NoteOn Channel="2" Note="67" Velocity="100"/>
  </Event>
  <Event>
    <Delta>60</Delta>
    <NoteOn Channel="2" Note="67" Velocity="0"/>
  </Event>
  <Event>
    <Delta>0</Delta>
    <NoteOn Channel="2" Note="66" Velocity="100"/>
  </Event>
  <Event>
    <Delta>60</Delta>
    <NoteOn Channel="2" Note="66" Velocity="0"/>
  </Event>
  <Event>
    <Delta>0</Delta>
    <NoteOn Channel="2" Note="67" Velocity="100"/>
  </Event>
  <Event>
    <Delta>90</Delta>
    <NoteOn Channel="2" Note="67" Velocity="0"/>
  </Event>
  <Event>
    <Delta>0</Delta>
    <NoteOn Channel="2" Note="66" Velocity="100"/>
  </Event>
  <Event>
    <Delta>30</Delta>
    <NoteOn Channel="2" Note="66" Velocity="0"/>
  </Event>
  <Event>
    <Delta>0</Delta>
    <NoteOn Channel="2" Note="67" Velocity="100"/>
  </Event>
  <Event>
    <Delta>90</Delta>
    <NoteOn Channel="2" Note="67" Velocity="0"/>
  </Event>
  <Event>
    <Delta>0</Delta>
    <NoteOn Channel="2" Note="66" Velocity="100"/>
  </Event>
  <Event>
    <Delta>30</Delta>
    <NoteOn Channel="2" Note="66" Velocity="0"/>
  </Event>
  <Event>
    <Delta>0</Delta>
    <NoteOn Channel="2" Note="67" Velocity="100"/>
  </Event>
  <Event>
    <Delta>40</Delta>
    <NoteOn Channel="2" Note="67" Velocity="0"/>
  </Event>
  <Event>
    <Delta>0</Delta>
    <NoteOn Channel="2" Note="66" Velocity="100"/>
  </Event>
  <Event>
    <Delta>40</Delta>
    <NoteOn Channel="2" Note="66" Velocity="0"/>
  </Event>
  <Event>
    <Delta>0</Delta>
    <NoteOn Channel="2" Note="67" Velocity="100"/>
  </Event>
  <Event>
    <Delta>40</Delta>
    <NoteOn Channel="2" Note="67" Velocity="0"/>
  </Event>
  <Event>
    <Delta>0</Delta>
    <NoteOn Channel="2" Note="67" Velocity="100"/>
  </Event>
  <Event>
    <Delta>60</Delta>
    <NoteOn Channel="2" Note="67" Velocity="0"/>
  </Event>
  <Event>
    <Delta>0</Delta>
    <NoteOn Channel="2" Note="66" Velocity="100"/>
  </Event>
  <Event>
    <Delta>60</Delta>
    <NoteOn Channel="2" Note="66" Velocity="0"/>
  </Event>
  <Event>
    <Delta>0</Delta>
    <NoteOn Channel="2" Note="59" Velocity="100"/>
  </Event>
  <Event>
    <Delta>90</Delta>
    <NoteOn Channel="2" Note="59" Velocity="0"/>
  </Event>
  <Event>
    <Delta>0</Delta>
    <NoteOn Channel="2" Note="59" Velocity="100"/>
  </Event>
  <Event>
    <Delta>30</Delta>
    <NoteOn Channel="2" Note="59" Velocity="0"/>
  </Event>
  <Event>
    <Delta>0</Delta>
    <NoteOn Channel="2" Note="60" Velocity="100"/>
  </Event>
  <Event>
    <Delta>90</Delta>
    <NoteOn Channel="2" Note="60" Velocity="0"/>
  </Event>
  <Event>
    <Delta>0</Delta>
    <NoteOn Channel="2" Note="60" Velocity="100"/>
  </Event>
  <Event>
    <Delta>30</Delta>
    <NoteOn Channel="2" Note="60" Velocity="0"/>
  </Event>
  <Event>
    <Delta>0</Delta>
    <NoteOn Channel="2" Note="61" Velocity="100"/>
  </Event>
  <Event>
    <Delta>90</Delta>
    <NoteOn Channel="2" Note="61" Velocity="0"/>
  </Event>
  <Event>
    <Delta>0</Delta>
    <NoteOn Channel="2" Note="71" Velocity="100"/>
  </Event>
  <Event>
    <Delta>30</Delta>
    <NoteOn Channel="2" Note="71" Velocity="0"/>
  </Event>
  <Event>
    <Delta>0</Delta>
    <NoteOn Channel="2" Note="68" Velocity="100"/>
  </Event>
  <Event>
    <Delta>90</Delta>
    <NoteOn Channel="2" Note="68" Velocity="0"/>
  </Event>
  <Event>
    <Delta>0</Delta>
    <NoteOn Channel="2" Note="66" Velocity="100"/>
  </Event>
  <Event>
    <Delta>30</Delta>
    <NoteOn Channel="2" Note="66" Velocity="0"/>
  </Event>
  <Event>
    <Delta>0</Delta>
    <NoteOn Channel="2" Note="67" Velocity="100"/>
  </Event>
  <Event>
    <Delta>360</Delta>
    <NoteOn Channel="2" Note="67" Velocity="0"/>
  </Event>
  <Event>
    <Delta>120</Delta>
    <NoteOn Channel="2" Note="61" Velocity="100"/>
  </Event>
  <Event>
    <Delta>0</Delta>
    <NoteOn Channel="2" Note="66" Velocity="100"/>
  </Event>
  <Event>
    <Delta>120</Delta>
    <NoteOn Channel="2" Note="66" Velocity="0"/>
  </Event>
  <Event>
    <Delta>0</Delta>
    <NoteOn Channel="2" Note="61" Velocity="0"/>
  </Event>
  <Event>
    <Delta>0</Delta>
    <NoteOn Channel="2" Note="69" Velocity="100"/>
  </Event>
  <Event>
    <Delta>60</Delta>
    <NoteOn Channel="2" Note="69" Velocity="0"/>
  </Event>
  <Event>
    <Delta>0</Delta>
    <NoteOn Channel="2" Note="63" Velocity="100"/>
  </Event>
  <Event>
    <Delta>0</Delta>
    <NoteOn Channel="2" Note="68" Velocity="100"/>
  </Event>
  <Event>
    <Delta>180</Delta>
    <NoteOn Channel="2" Note="68" Velocity="0"/>
  </Event>
  <Event>
    <Delta>0</Delta>
    <NoteOn Channel="2" Note="63" Velocity="0"/>
  </Event>
  <Event>
    <Delta>60</Delta>
    <NoteOn Channel="2" Note="68" Velocity="100"/>
  </Event>
  <Event>
    <Delta>60</Delta>
    <NoteOn Channel="2" Note="68" Velocity="0"/>
  </Event>
  <Event>
    <Delta>0</Delta>
    <NoteOn Channel="2" Note="69" Velocity="100"/>
  </Event>
  <Event>
    <Delta>90</Delta>
    <NoteOn Channel="2" Note="69" Velocity="0"/>
  </Event>
  <Event>
    <Delta>0</Delta>
    <NoteOn Channel="2" Note="67" Velocity="100"/>
  </Event>
  <Event>
    <Delta>30</Delta>
    <NoteOn Channel="2" Note="67" Velocity="0"/>
  </Event>
  <Event>
    <Delta>0</Delta>
    <NoteOn Channel="2" Note="69" Velocity="100"/>
  </Event>
  <Event>
    <Delta>90</Delta>
    <NoteOn Channel="2" Note="69" Velocity="0"/>
  </Event>
  <Event>
    <Delta>0</Delta>
    <NoteOn Channel="2" Note="67" Velocity="100"/>
  </Event>
  <Event>
    <Delta>30</Delta>
    <NoteOn Channel="2" Note="67" Velocity="0"/>
  </Event>
  <Event>
    <Delta>0</Delta>
    <NoteOn Channel="2" Note="69" Velocity="100"/>
  </Event>
  <Event>
    <Delta>40</Delta>
    <NoteOn Channel="2" Note="69" Velocity="0"/>
  </Event>
  <Event>
    <Delta>0</Delta>
    <NoteOn Channel="2" Note="67" Velocity="100"/>
  </Event>
  <Event>
    <Delta>40</Delta>
    <NoteOn Channel="2" Note="67" Velocity="0"/>
  </Event>
  <Event>
    <Delta>0</Delta>
    <NoteOn Channel="2" Note="69" Velocity="100"/>
  </Event>
  <Event>
    <Delta>40</Delta>
    <NoteOn Channel="2" Note="69" Velocity="0"/>
  </Event>
  <Event>
    <Delta>0</Delta>
    <NoteOn Channel="2" Note="69" Velocity="100"/>
  </Event>
  <Event>
    <Delta>120</Delta>
    <NoteOn Channel="2" Note="69" Velocity="0"/>
  </Event>
  <Event>
    <Delta>0</Delta>
    <NoteOn Channel="2" Note="69" Velocity="100"/>
  </Event>
  <Event>
    <Delta>90</Delta>
    <NoteOn Channel="2" Note="69" Velocity="0"/>
  </Event>
  <Event>
    <Delta>0</Delta>
    <NoteOn Channel="2" Note="67" Velocity="100"/>
  </Event>
  <Event>
    <Delta>30</Delta>
    <NoteOn Channel="2" Note="67" Velocity="0"/>
  </Event>
  <Event>
    <Delta>0</Delta>
    <NoteOn Channel="2" Note="69" Velocity="100"/>
  </Event>
  <Event>
    <Delta>90</Delta>
    <NoteOn Channel="2" Note="69" Velocity="0"/>
  </Event>
  <Event>
    <Delta>0</Delta>
    <NoteOn Channel="2" Note="67" Velocity="100"/>
  </Event>
  <Event>
    <Delta>30</Delta>
    <NoteOn Channel="2" Note="67" Velocity="0"/>
  </Event>
  <Event>
    <Delta>0</Delta>
    <NoteOn Channel="2" Note="69" Velocity="100"/>
  </Event>
  <Event>
    <Delta>40</Delta>
    <NoteOn Channel="2" Note="69" Velocity="0"/>
  </Event>
  <Event>
    <Delta>0</Delta>
    <NoteOn Channel="2" Note="67" Velocity="100"/>
  </Event>
  <Event>
    <Delta>40</Delta>
    <NoteOn Channel="2" Note="67" Velocity="0"/>
  </Event>
  <Event>
    <Delta>0</Delta>
    <NoteOn Channel="2" Note="69" Velocity="100"/>
  </Event>
  <Event>
    <Delta>40</Delta>
    <NoteOn Channel="2" Note="69" Velocity="0"/>
  </Event>
  <Event>
    <Delta>0</Delta>
    <NoteOn Channel="2" Note="69" Velocity="100"/>
  </Event>
  <Event>
    <Delta>60</Delta>
    <NoteOn Channel="2" Note="69" Velocity="0"/>
  </Event>
  <Event>
    <Delta>0</Delta>
    <NoteOn Channel="2" Note="67" Velocity="100"/>
  </Event>
  <Event>
    <Delta>60</Delta>
    <NoteOn Channel="2" Note="67" Velocity="0"/>
  </Event>
  <Event>
    <Delta>0</Delta>
    <NoteOn Channel="2" Note="69" Velocity="100"/>
  </Event>
  <Event>
    <Delta>90</Delta>
    <NoteOn Channel="2" Note="69" Velocity="0"/>
  </Event>
  <Event>
    <Delta>0</Delta>
    <NoteOn Channel="2" Note="72" Velocity="100"/>
  </Event>
  <Event>
    <Delta>30</Delta>
    <NoteOn Channel="2" Note="72" Velocity="0"/>
  </Event>
  <Event>
    <Delta>0</Delta>
    <NoteOn Channel="2" Note="69" Velocity="100"/>
  </Event>
  <Event>
    <Delta>90</Delta>
    <NoteOn Channel="2" Note="69" Velocity="0"/>
  </Event>
  <Event>
    <Delta>0</Delta>
    <NoteOn Channel="2" Note="65" Velocity="100"/>
  </Event>
  <Event>
    <Delta>30</Delta>
    <NoteOn Channel="2" Note="65" Velocity="0"/>
  </Event>
  <Event>
    <Delta>0</Delta>
    <NoteOn Channel="2" Note="62" Velocity="100"/>
  </Event>
  <Event>
    <Delta>90</Delta>
    <NoteOn Channel="2" Note="62" Velocity="0"/>
  </Event>
  <Event>
    <Delta>0</Delta>
    <NoteOn Channel="2" Note="66" Velocity="100"/>
  </Event>
  <Event>
    <Delta>30</Delta>
    <NoteOn Channel="2" Note="66" Velocity="0"/>
  </Event>
  <Event>
    <Delta>0</Delta>
    <NoteOn Channel="2" Note="67" Velocity="100"/>
  </Event>
  <Event>
    <Delta>60</Delta>
    <NoteOn Channel="2" Note="67" Velocity="0"/>
  </Event>
  <Event>
    <Delta>0</Delta>
    <NoteOn Channel="2" Note="66" Velocity="100"/>
  </Event>
  <Event>
    <Delta>60</Delta>
    <NoteOn Channel="2" Note="66" Velocity="0"/>
  </Event>
  <Event>
    <Delta>0</Delta>
    <NoteOn Channel="2" Note="69" Velocity="100"/>
  </Event>
  <Event>
    <Delta>360</Delta>
    <NoteOn Channel="2" Note="69" Velocity="0"/>
  </Event>
  <Event>
    <Delta>60</Delta>
    <NoteOn Channel="2" Note="69" Velocity="100"/>
  </Event>
  <Event>
    <Delta>60</Delta>
    <NoteOn Channel="2" Note="69" Velocity="0"/>
  </Event>
  <Event>
    <Delta>0</Delta>
    <NoteOn Channel="2" Note="66" Velocity="100"/>
  </Event>
  <Event>
    <Delta>0</Delta>
    <NoteOn Channel="2" Note="70" Velocity="100"/>
  </Event>
  <Event>
    <Delta>90</Delta>
    <NoteOn Channel="2" Note="70" Velocity="0"/>
  </Event>
  <Event>
    <Delta>0</Delta>
    <NoteOn Channel="2" Note="68" Velocity="100"/>
  </Event>
  <Event>
    <Delta>30</Delta>
    <NoteOn Channel="2" Note="68" Velocity="0"/>
  </Event>
  <Event>
    <Delta>0</Delta>
    <NoteOn Channel="2" Note="70" Velocity="100"/>
  </Event>
  <Event>
    <Delta>90</Delta>
    <NoteOn Channel="2" Note="70" Velocity="0"/>
  </Event>
  <Event>
    <Delta>0</Delta>
    <NoteOn Channel="2" Note="68" Velocity="100"/>
  </Event>
  <Event>
    <Delta>30</Delta>
    <NoteOn Channel="2" Note="68" Velocity="0"/>
  </Event>
  <Event>
    <Delta>0</Delta>
    <NoteOn Channel="2" Note="66" Velocity="0"/>
  </Event>
  <Event>
    <Delta>0</Delta>
    <NoteOn Channel="2" Note="65" Velocity="100"/>
  </Event>
  <Event>
    <Delta>0</Delta>
    <NoteOn Channel="2" Note="70" Velocity="100"/>
  </Event>
  <Event>
    <Delta>40</Delta>
    <NoteOn Channel="2" Note="70" Velocity="0"/>
  </Event>
  <Event>
    <Delta>0</Delta>
    <NoteOn Channel="2" Note="68" Velocity="100"/>
  </Event>
  <Event>
    <Delta>40</Delta>
    <NoteOn Channel="2" Note="68" Velocity="0"/>
  </Event>
  <Event>
    <Delta>0</Delta>
    <NoteOn Channel="2" Note="70" Velocity="100"/>
  </Event>
  <Event>
    <Delta>40</Delta>
    <NoteOn Channel="2" Note="70" Velocity="0"/>
  </Event>
  <Event>
    <Delta>0</Delta>
    <NoteOn Channel="2" Note="70" Velocity="100"/>
  </Event>
  <Event>
    <Delta>120</Delta>
    <NoteOn Channel="2" Note="70" Velocity="0"/>
  </Event>
  <Event>
    <Delta>0</Delta>
    <NoteOn Channel="2" Note="65" Velocity="0"/>
  </Event>
  <Event>
    <Delta>0</Delta>
    <NoteOn Channel="2" Note="66" Velocity="100"/>
  </Event>
  <Event>
    <Delta>0</Delta>
    <NoteOn Channel="2" Note="70" Velocity="100"/>
  </Event>
  <Event>
    <Delta>90</Delta>
    <NoteOn Channel="2" Note="70" Velocity="0"/>
  </Event>
  <Event>
    <Delta>0</Delta>
    <NoteOn Channel="2" Note="68" Velocity="100"/>
  </Event>
  <Event>
    <Delta>30</Delta>
    <NoteOn Channel="2" Note="68" Velocity="0"/>
  </Event>
  <Event>
    <Delta>0</Delta>
    <NoteOn Channel="2" Note="70" Velocity="100"/>
  </Event>
  <Event>
    <Delta>90</Delta>
    <NoteOn Channel="2" Note="70" Velocity="0"/>
  </Event>
  <Event>
    <Delta>0</Delta>
    <NoteOn Channel="2" Note="68" Velocity="100"/>
  </Event>
  <Event>
    <Delta>30</Delta>
    <NoteOn Channel="2" Note="68" Velocity="0"/>
  </Event>
  <Event>
    <Delta>0</Delta>
    <NoteOn Channel="2" Note="66" Velocity="0"/>
  </Event>
  <Event>
    <Delta>0</Delta>
    <NoteOn Channel="2" Note="65" Velocity="100"/>
  </Event>
  <Event>
    <Delta>0</Delta>
    <NoteOn Channel="2" Note="70" Velocity="100"/>
  </Event>
  <Event>
    <Delta>40</Delta>
    <NoteOn Channel="2" Note="70" Velocity="0"/>
  </Event>
  <Event>
    <Delta>0</Delta>
    <NoteOn Channel="2" Note="68" Velocity="100"/>
  </Event>
  <Event>
    <Delta>40</Delta>
    <NoteOn Channel="2" Note="68" Velocity="0"/>
  </Event>
  <Event>
    <Delta>0</Delta>
    <NoteOn Channel="2" Note="70" Velocity="100"/>
  </Event>
  <Event>
    <Delta>40</Delta>
    <NoteOn Channel="2" Note="70" Velocity="0"/>
  </Event>
  <Event>
    <Delta>0</Delta>
    <NoteOn Channel="2" Note="70" Velocity="100"/>
  </Event>
  <Event>
    <Delta>60</Delta>
    <NoteOn Channel="2" Note="70" Velocity="0"/>
  </Event>
  <Event>
    <Delta>0</Delta>
    <NoteOn Channel="2" Note="70" Velocity="100"/>
  </Event>
  <Event>
    <Delta>60</Delta>
    <NoteOn Channel="2" Note="70" Velocity="0"/>
  </Event>
  <Event>
    <Delta>0</Delta>
    <NoteOn Channel="2" Note="65" Velocity="0"/>
  </Event>
  <Event>
    <Delta>0</Delta>
    <NoteOn Channel="2" Note="67" Velocity="100"/>
  </Event>
  <Event>
    <Delta>0</Delta>
    <NoteOn Channel="2" Note="71" Velocity="100"/>
  </Event>
  <Event>
    <Delta>90</Delta>
    <NoteOn Channel="2" Note="71" Velocity="0"/>
  </Event>
  <Event>
    <Delta>0</Delta>
    <NoteOn Channel="2" Note="69" Velocity="100"/>
  </Event>
  <Event>
    <Delta>30</Delta>
    <NoteOn Channel="2" Note="69" Velocity="0"/>
  </Event>
  <Event>
    <Delta>0</Delta>
    <NoteOn Channel="2" Note="71" Velocity="100"/>
  </Event>
  <Event>
    <Delta>90</Delta>
    <NoteOn Channel="2" Note="71" Velocity="0"/>
  </Event>
  <Event>
    <Delta>0</Delta>
    <NoteOn Channel="2" Note="69" Velocity="100"/>
  </Event>
  <Event>
    <Delta>30</Delta>
    <NoteOn Channel="2" Note="69" Velocity="0"/>
  </Event>
  <Event>
    <Delta>0</Delta>
    <NoteOn Channel="2" Note="67" Velocity="0"/>
  </Event>
  <Event>
    <Delta>0</Delta>
    <NoteOn Channel="2" Note="66" Velocity="100"/>
  </Event>
  <Event>
    <Delta>0</Delta>
    <NoteOn Channel="2" Note="71" Velocity="100"/>
  </Event>
  <Event>
    <Delta>40</Delta>
    <NoteOn Channel="2" Note="71" Velocity="0"/>
  </Event>
  <Event>
    <Delta>0</Delta>
    <NoteOn Channel="2" Note="69" Velocity="100"/>
  </Event>
  <Event>
    <Delta>40</Delta>
    <NoteOn Channel="2" Note="69" Velocity="0"/>
  </Event>
  <Event>
    <Delta>0</Delta>
    <NoteOn Channel="2" Note="71" Velocity="100"/>
  </Event>
  <Event>
    <Delta>40</Delta>
    <NoteOn Channel="2" Note="71" Velocity="0"/>
  </Event>
  <Event>
    <Delta>0</Delta>
    <NoteOn Channel="2" Note="71" Velocity="100"/>
  </Event>
  <Event>
    <Delta>60</Delta>
    <NoteOn Channel="2" Note="71" Velocity="0"/>
  </Event>
  <Event>
    <Delta>0</Delta>
    <NoteOn Channel="2" Note="69" Velocity="100"/>
  </Event>
  <Event>
    <Delta>60</Delta>
    <NoteOn Channel="2" Note="69" Velocity="0"/>
  </Event>
  <Event>
    <Delta>0</Delta>
    <NoteOn Channel="2" Note="66" Velocity="0"/>
  </Event>
  <Event>
    <Delta>0</Delta>
    <NoteOn Channel="2" Note="67" Velocity="100"/>
  </Event>
  <Event>
    <Delta>0</Delta>
    <NoteOn Channel="2" Note="71" Velocity="100"/>
  </Event>
  <Event>
    <Delta>90</Delta>
    <NoteOn Channel="2" Note="71" Velocity="0"/>
  </Event>
  <Event>
    <Delta>0</Delta>
    <NoteOn Channel="2" Note="69" Velocity="100"/>
  </Event>
  <Event>
    <Delta>30</Delta>
    <NoteOn Channel="2" Note="69" Velocity="0"/>
  </Event>
  <Event>
    <Delta>0</Delta>
    <NoteOn Channel="2" Note="71" Velocity="100"/>
  </Event>
  <Event>
    <Delta>90</Delta>
    <NoteOn Channel="2" Note="71" Velocity="0"/>
  </Event>
  <Event>
    <Delta>0</Delta>
    <NoteOn Channel="2" Note="69" Velocity="100"/>
  </Event>
  <Event>
    <Delta>30</Delta>
    <NoteOn Channel="2" Note="69" Velocity="0"/>
  </Event>
  <Event>
    <Delta>0</Delta>
    <NoteOn Channel="2" Note="67" Velocity="0"/>
  </Event>
  <Event>
    <Delta>0</Delta>
    <NoteOn Channel="2" Note="67" Velocity="100"/>
  </Event>
  <Event>
    <Delta>0</Delta>
    <NoteOn Channel="2" Note="75" Velocity="100"/>
  </Event>
  <Event>
    <Delta>180</Delta>
    <NoteOn Channel="2" Note="75" Velocity="0"/>
  </Event>
  <Event>
    <Delta>0</Delta>
    <NoteOn Channel="2" Note="72" Velocity="100"/>
  </Event>
  <Event>
    <Delta>60</Delta>
    <NoteOn Channel="2" Note="72" Velocity="0"/>
  </Event>
  <Event>
    <Delta>0</Delta>
    <NoteOn Channel="2" Note="67" Velocity="0"/>
  </Event>
  <Event>
    <Delta>0</Delta>
    <NoteOn Channel="2" Note="64" Velocity="100"/>
  </Event>
  <Event>
    <Delta>0</Delta>
    <NoteOn Channel="2" Note="71" Velocity="100"/>
  </Event>
  <Event>
    <Delta>240</Delta>
    <NoteOn Channel="2" Note="64" Velocity="0"/>
  </Event>
  <Event>
    <Delta>0</Delta>
    <NoteOn Channel="2" Note="63" Velocity="100"/>
  </Event>
  <Event>
    <Delta>240</Delta>
    <NoteOn Channel="2" Note="63" Velocity="0"/>
  </Event>
  <Event>
    <Delta>0</Delta>
    <NoteOn Channel="2" Note="71" Velocity="0"/>
  </Event>
  <Event>
    <Delta>0</Delta>
    <NoteOn Channel="2" Note="59" Velocity="100"/>
  </Event>
  <Event>
    <Delta>90</Delta>
    <NoteOn Channel="2" Note="59" Velocity="0"/>
  </Event>
  <Event>
    <Delta>0</Delta>
    <NoteOn Channel="2" Note="64" Velocity="100"/>
  </Event>
  <Event>
    <Delta>30</Delta>
    <NoteOn Channel="2" Note="64" Velocity="0"/>
  </Event>
  <Event>
    <Delta>0</Delta>
    <NoteOn Channel="2" Note="67" Velocity="100"/>
  </Event>
  <Event>
    <Delta>90</Delta>
    <NoteOn Channel="2" Note="67" Velocity="0"/>
  </Event>
  <Event>
    <Delta>0</Delta>
    <NoteOn Channel="2" Note="71" Velocity="100"/>
  </Event>
  <Event>
    <Delta>30</Delta>
    <NoteOn Channel="2" Note="71" Velocity="0"/>
  </Event>
  <Event>
    <Delta>0</Delta>
    <NoteOn Channel="2" Note="69" Velocity="100"/>
  </Event>
  <Event>
    <Delta>90</Delta>
    <NoteOn Channel="2" Note="69" Velocity="0"/>
  </Event>
  <Event>
    <Delta>0</Delta>
    <NoteOn Channel="2" Note="71" Velocity="100"/>
  </Event>
  <Event>
    <Delta>30</Delta>
    <NoteOn Channel="2" Note="71" Velocity="0"/>
  </Event>
  <Event>
    <Delta>0</Delta>
    <NoteOn Channel="2" Note="69" Velocity="100"/>
  </Event>
  <Event>
    <Delta>90</Delta>
    <NoteOn Channel="2" Note="69" Velocity="0"/>
  </Event>
  <Event>
    <Delta>0</Delta>
    <NoteOn Channel="2" Note="67" Velocity="100"/>
  </Event>
  <Event>
    <Delta>30</Delta>
    <NoteOn Channel="2" Note="67" Velocity="0"/>
  </Event>
  <Event>
    <Delta>0</Delta>
    <NoteOn Channel="2" Note="71" Velocity="100"/>
  </Event>
  <Event>
    <Delta>240</Delta>
    <NoteOn Channel="2" Note="71" Velocity="0"/>
  </Event>
  <Event>
    <Delta>60</Delta>
    <NoteOn Channel="2" Note="59" Velocity="100"/>
  </Event>
  <Event>
    <Delta>30</Delta>
    <NoteOn Channel="2" Note="59" Velocity="0"/>
  </Event>
  <Event>
    <Delta>30</Delta>
    <NoteOn Channel="2" Note="64" Velocity="100"/>
  </Event>
  <Event>
    <Delta>90</Delta>
    <NoteOn Channel="2" Note="64" Velocity="0"/>
  </Event>
  <Event>
    <Delta>0</Delta>
    <NoteOn Channel="2" Note="67" Velocity="100"/>
  </Event>
  <Event>
    <Delta>30</Delta>
    <NoteOn Channel="2" Note="67" Velocity="0"/>
  </Event>
  <Event>
    <Delta>0</Delta>
    <NoteOn Channel="2" Note="64" Velocity="100"/>
  </Event>
  <Event>
    <Delta>0</Delta>
    <NoteOn Channel="2" Note="71" Velocity="100"/>
  </Event>
  <Event>
    <Delta>90</Delta>
    <NoteOn Channel="2" Note="71" Velocity="0"/>
  </Event>
  <Event>
    <Delta>0</Delta>
    <NoteOn Channel="2" Note="67" Velocity="100"/>
  </Event>
  <Event>
    <Delta>30</Delta>
    <NoteOn Channel="2" Note="67" Velocity="0"/>
  </Event>
  <Event>
    <Delta>0</Delta>
    <NoteOn Channel="2" Note="69" Velocity="100"/>
  </Event>
  <Event>
    <Delta>90</Delta>
    <NoteOn Channel="2" Note="69" Velocity="0"/>
  </Event>
  <Event>
    <Delta>0</Delta>
    <NoteOn Channel="2" Note="71" Velocity="100"/>
  </Event>
  <Event>
    <Delta>30</Delta>
    <NoteOn Channel="2" Note="71" Velocity="0"/>
  </Event>
  <Event>
    <Delta>0</Delta>
    <NoteOn Channel="2" Note="69" Velocity="100"/>
  </Event>
  <Event>
    <Delta>120</Delta>
    <NoteOn Channel="2" Note="69" Velocity="0"/>
  </Event>
  <Event>
    <Delta>0</Delta>
    <NoteOn Channel="2" Note="64" Velocity="0"/>
  </Event>
  <Event>
    <Delta>60</Delta>
    <NoteOn Channel="2" Note="64" Velocity="100"/>
  </Event>
  <Event>
    <Delta>60</Delta>
    <NoteOn Channel="2" Note="64" Velocity="0"/>
  </Event>
  <Event>
    <Delta>0</Delta>
    <NoteOn Channel="2" Note="67" Velocity="100"/>
  </Event>
  <Event>
    <Delta>90</Delta>
    <NoteOn Channel="2" Note="67" Velocity="0"/>
  </Event>
  <Event>
    <Delta>0</Delta>
    <NoteOn Channel="2" Note="66" Velocity="100"/>
  </Event>
  <Event>
    <Delta>30</Delta>
    <NoteOn Channel="2" Note="66" Velocity="0"/>
  </Event>
  <Event>
    <Delta>0</Delta>
    <NoteOn Channel="2" Note="64" Velocity="100"/>
  </Event>
  <Event>
    <Delta>60</Delta>
    <NoteOn Channel="2" Note="64" Velocity="0"/>
  </Event>
  <Event>
    <Delta>0</Delta>
    <NoteOn Channel="2" Note="66" Velocity="100"/>
  </Event>
  <Event>
    <Delta>180</Delta>
    <NoteOn Channel="2" Note="66" Velocity="0"/>
  </Event>
  <Event>
    <Delta>120</Delta>
    <NoteOn Channel="2" Note="59" Velocity="100"/>
  </Event>
  <Event>
    <Delta>45</Delta>
    <NoteOn Channel="2" Note="59" Velocity="0"/>
  </Event>
  <Event>
    <Delta>45</Delta>
    <NoteOn Channel="2" Note="64" Velocity="100"/>
  </Event>
  <Event>
    <Delta>30</Delta>
    <NoteOn Channel="2" Note="64" Velocity="0"/>
  </Event>
  <Event>
    <Delta>0</Delta>
    <NoteOn Channel="2" Note="67" Velocity="100"/>
  </Event>
  <Event>
    <Delta>90</Delta>
    <NoteOn Channel="2" Note="67" Velocity="0"/>
  </Event>
  <Event>
    <Delta>0</Delta>
    <NoteOn Channel="2" Note="71" Velocity="100"/>
  </Event>
  <Event>
    <Delta>30</Delta>
    <NoteOn Channel="2" Note="71" Velocity="0"/>
  </Event>
  <Event>
    <Delta>0</Delta>
    <NoteOn Channel="2" Note="69" Velocity="100"/>
  </Event>
  <Event>
    <Delta>40</Delta>
    <NoteOn Channel="2" Note="69" Velocity="0"/>
  </Event>
  <Event>
    <Delta>0</Delta>
    <NoteOn Channel="2" Note="71" Velocity="100"/>
  </Event>
  <Event>
    <Delta>40</Delta>
    <NoteOn Channel="2" Note="71" Velocity="0"/>
  </Event>
  <Event>
    <Delta>0</Delta>
    <NoteOn Channel="2" Note="69" Velocity="100"/>
  </Event>
  <Event>
    <Delta>40</Delta>
    <NoteOn Channel="2" Note="69" Velocity="0"/>
  </Event>
  <Event>
    <Delta>0</Delta>
    <NoteOn Channel="2" Note="67" Velocity="100"/>
  </Event>
  <Event>
    <Delta>90</Delta>
    <NoteOn Channel="2" Note="67" Velocity="0"/>
  </Event>
  <Event>
    <Delta>0</Delta>
    <NoteOn Channel="2" Note="69" Velocity="100"/>
  </Event>
  <Event>
    <Delta>30</Delta>
    <NoteOn Channel="2" Note="69" Velocity="0"/>
  </Event>
  <Event>
    <Delta>0</Delta>
    <NoteOn Channel="2" Note="71" Velocity="100"/>
  </Event>
  <Event>
    <Delta>120</Delta>
    <NoteOn Channel="2" Note="71" Velocity="0"/>
  </Event>
  <Event>
    <Delta>0</Delta>
    <NoteOn Channel="2" Note="67" Velocity="100"/>
  </Event>
  <Event>
    <Delta>60</Delta>
    <NoteOn Channel="2" Note="67" Velocity="0"/>
  </Event>
  <Event>
    <Delta>0</Delta>
    <NoteOn Channel="2" Note="64" Velocity="100"/>
  </Event>
  <Event>
    <Delta>300</Delta>
    <NoteOn Channel="2" Note="64" Velocity="0"/>
  </Event>
  <Event>
    <Delta>0</Delta>
    <NoteOn Channel="2" Note="64" Velocity="100"/>
  </Event>
  <Event>
    <Delta>60</Delta>
    <NoteOn Channel="2" Note="67" Velocity="100"/>
  </Event>
  <Event>
    <Delta>30</Delta>
    <NoteOn Channel="2" Note="67" Velocity="0"/>
  </Event>
  <Event>
    <Delta>30</Delta>
    <NoteOn Channel="2" Note="69" Velocity="100"/>
  </Event>
  <Event>
    <Delta>40</Delta>
    <NoteOn Channel="2" Note="69" Velocity="0"/>
  </Event>
  <Event>
    <Delta>0</Delta>
    <NoteOn Channel="2" Note="69" Velocity="100"/>
  </Event>
  <Event>
    <Delta>40</Delta>
    <NoteOn Channel="2" Note="69" Velocity="0"/>
  </Event>
  <Event>
    <Delta>0</Delta>
    <NoteOn Channel="2" Note="67" Velocity="100"/>
  </Event>
  <Event>
    <Delta>40</Delta>
    <NoteOn Channel="2" Note="67" Velocity="0"/>
  </Event>
  <Event>
    <Delta>0</Delta>
    <NoteOn Channel="2" Note="64" Velocity="0"/>
  </Event>
  <Event>
    <Delta>0</Delta>
    <NoteOn Channel="2" Note="62" Velocity="100"/>
  </Event>
  <Event>
    <Delta>0</Delta>
    <NoteOn Channel="2" Note="69" Velocity="100"/>
  </Event>
  <Event>
    <Delta>90</Delta>
    <NoteOn Channel="2" Note="69" Velocity="0"/>
  </Event>
  <Event>
    <Delta>0</Delta>
    <NoteOn Channel="2" Note="67" Velocity="100"/>
  </Event>
  <Event>
    <Delta>30</Delta>
    <NoteOn Channel="2" Note="67" Velocity="0"/>
  </Event>
  <Event>
    <Delta>0</Delta>
    <NoteOn Channel="2" Note="64" Velocity="100"/>
  </Event>
  <Event>
    <Delta>90</Delta>
    <NoteOn Channel="2" Note="64" Velocity="0"/>
  </Event>
  <Event>
    <Delta>0</Delta>
    <NoteOn Channel="2" Note="62" Velocity="100"/>
  </Event>
  <Event>
    <Delta>30</Delta>
    <NoteOn Channel="2" Note="62" Velocity="0"/>
  </Event>
  <Event>
    <Delta>0</Delta>
    <NoteOn Channel="2" Note="62" Velocity="0"/>
  </Event>
  <Event>
    <Delta>0</Delta>
    <NoteOn Channel="2" Note="64" Velocity="100"/>
  </Event>
  <Event>
    <Delta>120</Delta>
    <NoteOn Channel="2" Note="64" Velocity="0"/>
  </Event>
  <Event>
    <Delta>0</Delta>
    <NoteOn Channel="2" Note="62" Velocity="100"/>
  </Event>
  <Event>
    <Delta>60</Delta>
    <NoteOn Channel="2" Note="62" Velocity="0"/>
  </Event>
  <Event>
    <Delta>0</Delta>
    <NoteOn Channel="2" Note="64" Velocity="100"/>
  </Event>
  <Event>
    <Delta>180</Delta>
    <NoteOn Channel="2" Note="64" Velocity="0"/>
  </Event>
  <Event>
    <Delta>0</Delta>
    <NoteOn Channel="2" Note="71" Velocity="100"/>
  </Event>
  <Event>
    <Delta>120</Delta>
    <NoteOn Channel="2" Note="71" Velocity="0"/>
  </Event>
  <Event>
    <Delta>0</Delta>
    <NoteOn Channel="2" Note="72" Velocity="100"/>
  </Event>
  <Event>
    <Delta>60</Delta>
    <NoteOn Channel="2" Note="72" Velocity="0"/>
  </Event>
  <Event>
    <Delta>0</Delta>
    <NoteOn Channel="2" Note="69" Velocity="100"/>
  </Event>
  <Event>
    <Delta>60</Delta>
    <NoteOn Channel="2" Note="69" Velocity="0"/>
  </Event>
  <Event>
    <Delta>0</Delta>
    <NoteOn Channel="2" Note="71" Velocity="100"/>
  </Event>
  <Event>
    <Delta>60</Delta>
    <NoteOn Channel="2" Note="71" Velocity="0"/>
  </Event>
  <Event>
    <Delta>0</Delta>
    <NoteOn Channel="2" Note="72" Velocity="100"/>
  </Event>
  <Event>
    <Delta>180</Delta>
    <NoteOn Channel="2" Note="72" Velocity="0"/>
  </Event>
  <Event>
    <Delta>0</Delta>
    <NoteOn Channel="2" Note="69" Velocity="100"/>
  </Event>
  <Event>
    <Delta>60</Delta>
    <NoteOn Channel="2" Note="69" Velocity="0"/>
  </Event>
  <Event>
    <Delta>0</Delta>
    <NoteOn Channel="2" Note="71" Velocity="100"/>
  </Event>
  <Event>
    <Delta>60</Delta>
    <NoteOn Channel="2" Note="71" Velocity="0"/>
  </Event>
  <Event>
    <Delta>0</Delta>
    <NoteOn Channel="2" Note="72" Velocity="100"/>
  </Event>
  <Event>
    <Delta>60</Delta>
    <NoteOn Channel="2" Note="72" Velocity="0"/>
  </Event>
  <Event>
    <Delta>0</Delta>
    <NoteOn Channel="2" Note="69" Velocity="100"/>
  </Event>
  <Event>
    <Delta>60</Delta>
    <NoteOn Channel="2" Note="69" Velocity="0"/>
  </Event>
  <Event>
    <Delta>0</Delta>
    <NoteOn Channel="2" Note="71" Velocity="100"/>
  </Event>
  <Event>
    <Delta>60</Delta>
    <NoteOn Channel="2" Note="71" Velocity="0"/>
  </Event>
  <Event>
    <Delta>0</Delta>
    <NoteOn Channel="2" Note="72" Velocity="100"/>
  </Event>
  <Event>
    <Delta>180</Delta>
    <NoteOn Channel="2" Note="72" Velocity="0"/>
  </Event>
  <Event>
    <Delta>0</Delta>
    <NoteOn Channel="2" Note="69" Velocity="100"/>
  </Event>
  <Event>
    <Delta>120</Delta>
    <NoteOn Channel="2" Note="69" Velocity="0"/>
  </Event>
  <Event>
    <Delta>0</Delta>
    <NoteOn Channel="2" Note="71" Velocity="100"/>
  </Event>
  <Event>
    <Delta>120</Delta>
    <NoteOn Channel="2" Note="71" Velocity="0"/>
  </Event>
  <Event>
    <Delta>0</Delta>
    <NoteOn Channel="2" Note="67" Velocity="100"/>
  </Event>
  <Event>
    <Delta>60</Delta>
    <NoteOn Channel="2" Note="67" Velocity="0"/>
  </Event>
  <Event>
    <Delta>0</Delta>
    <NoteOn Channel="2" Note="62" Velocity="100"/>
  </Event>
  <Event>
    <Delta>420</Delta>
    <NoteOn Channel="2" Note="62" Velocity="0"/>
  </Event>
  <Event>
    <Delta>240</Delta>
    <NoteOn Channel="2" Note="66" Velocity="100"/>
  </Event>
  <Event>
    <Delta>60</Delta>
    <NoteOn Channel="2" Note="66" Velocity="0"/>
  </Event>
  <Event>
    <Delta>0</Delta>
    <NoteOn Channel="2" Note="67" Velocity="100"/>
  </Event>
  <Event>
    <Delta>60</Delta>
    <NoteOn Channel="2" Note="67" Velocity="0"/>
  </Event>
  <Event>
    <Delta>0</Delta>
    <NoteOn Channel="2" Note="69" Velocity="100"/>
  </Event>
  <Event>
    <Delta>60</Delta>
    <NoteOn Channel="2" Note="69" Velocity="0"/>
  </Event>
  <Event>
    <Delta>0</Delta>
    <NoteOn Channel="2" Note="66" Velocity="100"/>
  </Event>
  <Event>
    <Delta>60</Delta>
    <NoteOn Channel="2" Note="66" Velocity="0"/>
  </Event>
  <Event>
    <Delta>0</Delta>
    <NoteOn Channel="2" Note="67" Velocity="100"/>
  </Event>
  <Event>
    <Delta>60</Delta>
    <NoteOn Channel="2" Note="67" Velocity="0"/>
  </Event>
  <Event>
    <Delta>0</Delta>
    <NoteOn Channel="2" Note="69" Velocity="100"/>
  </Event>
  <Event>
    <Delta>180</Delta>
    <NoteOn Channel="2" Note="69" Velocity="0"/>
  </Event>
  <Event>
    <Delta>0</Delta>
    <NoteOn Channel="2" Note="66" Velocity="100"/>
  </Event>
  <Event>
    <Delta>60</Delta>
    <NoteOn Channel="2" Note="66" Velocity="0"/>
  </Event>
  <Event>
    <Delta>0</Delta>
    <NoteOn Channel="2" Note="67" Velocity="100"/>
  </Event>
  <Event>
    <Delta>60</Delta>
    <NoteOn Channel="2" Note="67" Velocity="0"/>
  </Event>
  <Event>
    <Delta>0</Delta>
    <NoteOn Channel="2" Note="69" Velocity="100"/>
  </Event>
  <Event>
    <Delta>60</Delta>
    <NoteOn Channel="2" Note="69" Velocity="0"/>
  </Event>
  <Event>
    <Delta>0</Delta>
    <NoteOn Channel="2" Note="66" Velocity="100"/>
  </Event>
  <Event>
    <Delta>60</Delta>
    <NoteOn Channel="2" Note="66" Velocity="0"/>
  </Event>
  <Event>
    <Delta>0</Delta>
    <NoteOn Channel="2" Note="67" Velocity="100"/>
  </Event>
  <Event>
    <Delta>60</Delta>
    <NoteOn Channel="2" Note="67" Velocity="0"/>
  </Event>
  <Event>
    <Delta>0</Delta>
    <NoteOn Channel="2" Note="69" Velocity="100"/>
  </Event>
  <Event>
    <Delta>180</Delta>
    <NoteOn Channel="2" Note="69" Velocity="0"/>
  </Event>
  <Event>
    <Delta>60</Delta>
    <NoteOn Channel="2" Note="66" Velocity="100"/>
  </Event>
  <Event>
    <Delta>60</Delta>
    <NoteOn Channel="2" Note="66" Velocity="0"/>
  </Event>
  <Event>
    <Delta>0</Delta>
    <NoteOn Channel="2" Note="64" Velocity="100"/>
  </Event>
  <Event>
    <Delta>0</Delta>
    <NoteOn Channel="2" Note="67" Velocity="100"/>
  </Event>
  <Event>
    <Delta>120</Delta>
    <NoteOn Channel="2" Note="67" Velocity="0"/>
  </Event>
  <Event>
    <Delta>0</Delta>
    <NoteOn Channel="2" Note="69" Velocity="100"/>
  </Event>
  <Event>
    <Delta>60</Delta>
    <NoteOn Channel="2" Note="69" Velocity="0"/>
  </Event>
  <Event>
    <Delta>0</Delta>
    <NoteOn Channel="2" Note="64" Velocity="0"/>
  </Event>
  <Event>
    <Delta>0</Delta>
    <NoteOn Channel="2" Note="63" Velocity="100"/>
  </Event>
  <Event>
    <Delta>0</Delta>
    <NoteOn Channel="2" Note="71" Velocity="100"/>
  </Event>
  <Event>
    <Delta>180</Delta>
    <NoteOn Channel="2" Note="71" Velocity="0"/>
  </Event>
  <Event>
    <Delta>0</Delta>
    <NoteOn Channel="2" Note="63" Velocity="0"/>
  </Event>
  <Event>
    <Delta>120</Delta>
    <NoteOn Channel="2" Note="67" Velocity="100"/>
  </Event>
  <Event>
    <Delta>0</Delta>
    <NoteOn Channel="2" Note="64" Velocity="100"/>
  </Event>
  <Event>
    <Delta>90</Delta>
    <NoteOn Channel="2" Note="64" Velocity="0"/>
  </Event>
  <Event>
    <Delta>0</Delta>
    <NoteOn Channel="2" Note="67" Velocity="0"/>
  </Event>
  <Event>
    <Delta>0</Delta>
    <NoteOn Channel="2" Note="69" Velocity="100"/>
  </Event>
  <Event>
    <Delta>0</Delta>
    <NoteOn Channel="2" Note="66" Velocity="100"/>
  </Event>
  <Event>
    <Delta>30</Delta>
    <NoteOn Channel="2" Note="66" Velocity="0"/>
  </Event>
  <Event>
    <Delta>0</Delta>
    <NoteOn Channel="2" Note="69" Velocity="0"/>
  </Event>
  <Event>
    <Delta>0</Delta>
    <NoteOn Channel="2" Note="67" Velocity="100"/>
  </Event>
  <Event>
    <Delta>0</Delta>
    <NoteOn Channel="2" Note="64" Velocity="100"/>
  </Event>
  <Event>
    <Delta>90</Delta>
    <NoteOn Channel="2" Note="64" Velocity="0"/>
  </Event>
  <Event>
    <Delta>0</Delta>
    <NoteOn Channel="2" Note="67" Velocity="0"/>
  </Event>
  <Event>
    <Delta>0</Delta>
    <NoteOn Channel="2" Note="66" Velocity="100"/>
  </Event>
  <Event>
    <Delta>0</Delta>
    <NoteOn Channel="2" Note="63" Velocity="100"/>
  </Event>
  <Event>
    <Delta>150</Delta>
    <NoteOn Channel="2" Note="63" Velocity="0"/>
  </Event>
  <Event>
    <Delta>0</Delta>
    <NoteOn Channel="2" Note="66" Velocity="0"/>
  </Event>
  <Event>
    <Delta>90</Delta>
    <NoteOn Channel="2" Note="59" Velocity="100"/>
  </Event>
  <Event>
    <Delta>30</Delta>
    <NoteOn Channel="2" Note="59" Velocity="0"/>
  </Event>
  <Event>
    <Delta>0</Delta>
    <NoteOn Channel="2" Note="59" Velocity="100"/>
  </Event>
  <Event>
    <Delta>90</Delta>
    <NoteOn Channel="2" Note="59" Velocity="0"/>
  </Event>
  <Event>
    <Delta>0</Delta>
    <NoteOn Channel="2" Note="64" Velocity="100"/>
  </Event>
  <Event>
    <Delta>30</Delta>
    <NoteOn Channel="2" Note="64" Velocity="0"/>
  </Event>
  <Event>
    <Delta>0</Delta>
    <NoteOn Channel="2" Note="67" Velocity="100"/>
  </Event>
  <Event>
    <Delta>90</Delta>
    <NoteOn Channel="2" Note="67" Velocity="0"/>
  </Event>
  <Event>
    <Delta>0</Delta>
    <NoteOn Channel="2" Note="71" Velocity="100"/>
  </Event>
  <Event>
    <Delta>30</Delta>
    <NoteOn Channel="2" Note="71" Velocity="0"/>
  </Event>
  <Event>
    <Delta>0</Delta>
    <NoteOn Channel="2" Note="69" Velocity="100"/>
  </Event>
  <Event>
    <Delta>90</Delta>
    <NoteOn Channel="2" Note="69" Velocity="0"/>
  </Event>
  <Event>
    <Delta>0</Delta>
    <NoteOn Channel="2" Note="71" Velocity="100"/>
  </Event>
  <Event>
    <Delta>30</Delta>
    <NoteOn Channel="2" Note="71" Velocity="0"/>
  </Event>
  <Event>
    <Delta>0</Delta>
    <NoteOn Channel="2" Note="69" Velocity="100"/>
  </Event>
  <Event>
    <Delta>90</Delta>
    <NoteOn Channel="2" Note="69" Velocity="0"/>
  </Event>
  <Event>
    <Delta>0</Delta>
    <NoteOn Channel="2" Note="67" Velocity="100"/>
  </Event>
  <Event>
    <Delta>30</Delta>
    <NoteOn Channel="2" Note="67" Velocity="0"/>
  </Event>
  <Event>
    <Delta>0</Delta>
    <NoteOn Channel="2" Note="71" Velocity="100"/>
  </Event>
  <Event>
    <Delta>240</Delta>
    <NoteOn Channel="2" Note="71" Velocity="0"/>
  </Event>
  <Event>
    <Delta>60</Delta>
    <NoteOn Channel="2" Note="59" Velocity="100"/>
  </Event>
  <Event>
    <Delta>30</Delta>
    <NoteOn Channel="2" Note="59" Velocity="0"/>
  </Event>
  <Event>
    <Delta>30</Delta>
    <NoteOn Channel="2" Note="64" Velocity="100"/>
  </Event>
  <Event>
    <Delta>90</Delta>
    <NoteOn Channel="2" Note="64" Velocity="0"/>
  </Event>
  <Event>
    <Delta>0</Delta>
    <NoteOn Channel="2" Note="67" Velocity="100"/>
  </Event>
  <Event>
    <Delta>30</Delta>
    <NoteOn Channel="2" Note="67" Velocity="0"/>
  </Event>
  <Event>
    <Delta>0</Delta>
    <NoteOn Channel="2" Note="64" Velocity="100"/>
  </Event>
  <Event>
    <Delta>0</Delta>
    <NoteOn Channel="2" Note="71" Velocity="100"/>
  </Event>
  <Event>
    <Delta>90</Delta>
    <NoteOn Channel="2" Note="71" Velocity="0"/>
  </Event>
  <Event>
    <Delta>0</Delta>
    <NoteOn Channel="2" Note="67" Velocity="100"/>
  </Event>
  <Event>
    <Delta>30</Delta>
    <NoteOn Channel="2" Note="67" Velocity="0"/>
  </Event>
  <Event>
    <Delta>0</Delta>
    <NoteOn Channel="2" Note="69" Velocity="100"/>
  </Event>
  <Event>
    <Delta>90</Delta>
    <NoteOn Channel="2" Note="69" Velocity="0"/>
  </Event>
  <Event>
    <Delta>0</Delta>
    <NoteOn Channel="2" Note="71" Velocity="100"/>
  </Event>
  <Event>
    <Delta>30</Delta>
    <NoteOn Channel="2" Note="71" Velocity="0"/>
  </Event>
  <Event>
    <Delta>0</Delta>
    <NoteOn Channel="2" Note="69" Velocity="100"/>
  </Event>
  <Event>
    <Delta>120</Delta>
    <NoteOn Channel="2" Note="69" Velocity="0"/>
  </Event>
  <Event>
    <Delta>0</Delta>
    <NoteOn Channel="2" Note="64" Velocity="0"/>
  </Event>
  <Event>
    <Delta>60</Delta>
    <NoteOn Channel="2" Note="64" Velocity="100"/>
  </Event>
  <Event>
    <Delta>60</Delta>
    <NoteOn Channel="2" Note="64" Velocity="0"/>
  </Event>
  <Event>
    <Delta>0</Delta>
    <NoteOn Channel="2" Note="67" Velocity="100"/>
  </Event>
  <Event>
    <Delta>90</Delta>
    <NoteOn Channel="2" Note="67" Velocity="0"/>
  </Event>
  <Event>
    <Delta>0</Delta>
    <NoteOn Channel="2" Note="66" Velocity="100"/>
  </Event>
  <Event>
    <Delta>30</Delta>
    <NoteOn Channel="2" Note="66" Velocity="0"/>
  </Event>
  <Event>
    <Delta>0</Delta>
    <NoteOn Channel="2" Note="64" Velocity="100"/>
  </Event>
  <Event>
    <Delta>60</Delta>
    <NoteOn Channel="2" Note="64" Velocity="0"/>
  </Event>
  <Event>
    <Delta>0</Delta>
    <NoteOn Channel="2" Note="66" Velocity="100"/>
  </Event>
  <Event>
    <Delta>180</Delta>
    <NoteOn Channel="2" Note="66" Velocity="0"/>
  </Event>
  <Event>
    <Delta>90</Delta>
    <NoteOn Channel="2" Note="66" Velocity="100"/>
  </Event>
  <Event>
    <Delta>30</Delta>
    <NoteOn Channel="2" Note="66" Velocity="0"/>
  </Event>
  <Event>
    <Delta>0</Delta>
    <NoteOn Channel="2" Note="59" Velocity="100"/>
  </Event>
  <Event>
    <Delta>90</Delta>
    <NoteOn Channel="2" Note="59" Velocity="0"/>
  </Event>
  <Event>
    <Delta>0</Delta>
    <NoteOn Channel="2" Note="64" Velocity="100"/>
  </Event>
  <Event>
    <Delta>30</Delta>
    <NoteOn Channel="2" Note="64" Velocity="0"/>
  </Event>
  <Event>
    <Delta>0</Delta>
    <NoteOn Channel="2" Note="67" Velocity="100"/>
  </Event>
  <Event>
    <Delta>90</Delta>
    <NoteOn Channel="2" Note="67" Velocity="0"/>
  </Event>
  <Event>
    <Delta>0</Delta>
    <NoteOn Channel="2" Note="71" Velocity="100"/>
  </Event>
  <Event>
    <Delta>30</Delta>
    <NoteOn Channel="2" Note="71" Velocity="0"/>
  </Event>
  <Event>
    <Delta>0</Delta>
    <NoteOn Channel="2" Note="69" Velocity="100"/>
  </Event>
  <Event>
    <Delta>90</Delta>
    <NoteOn Channel="2" Note="69" Velocity="0"/>
  </Event>
  <Event>
    <Delta>0</Delta>
    <NoteOn Channel="2" Note="71" Velocity="100"/>
  </Event>
  <Event>
    <Delta>30</Delta>
    <NoteOn Channel="2" Note="71" Velocity="0"/>
  </Event>
  <Event>
    <Delta>0</Delta>
    <NoteOn Channel="2" Note="69" Velocity="100"/>
  </Event>
  <Event>
    <Delta>90</Delta>
    <NoteOn Channel="2" Note="69" Velocity="0"/>
  </Event>
  <Event>
    <Delta>0</Delta>
    <NoteOn Channel="2" Note="67" Velocity="100"/>
  </Event>
  <Event>
    <Delta>30</Delta>
    <NoteOn Channel="2" Note="67" Velocity="0"/>
  </Event>
  <Event>
    <Delta>0</Delta>
    <NoteOn Channel="2" Note="71" Velocity="100"/>
  </Event>
  <Event>
    <Delta>120</Delta>
    <NoteOn Channel="2" Note="71" Velocity="0"/>
  </Event>
  <Event>
    <Delta>0</Delta>
    <NoteOn Channel="2" Note="67" Velocity="100"/>
  </Event>
  <Event>
    <Delta>60</Delta>
    <NoteOn Channel="2" Note="67" Velocity="0"/>
  </Event>
  <Event>
    <Delta>0</Delta>
    <NoteOn Channel="2" Note="64" Velocity="100"/>
  </Event>
  <Event>
    <Delta>300</Delta>
    <NoteOn Channel="2" Note="64" Velocity="0"/>
  </Event>
  <Event>
    <Delta>90</Delta>
    <NoteOn Channel="2" Note="59" Velocity="100"/>
  </Event>
  <Event>
    <Delta>30</Delta>
    <NoteOn Channel="2" Note="59" Velocity="0"/>
  </Event>
  <Event>
    <Delta>0</Delta>
    <NoteOn Channel="2" Note="64" Velocity="100"/>
  </Event>
  <Event>
    <Delta>90</Delta>
    <NoteOn Channel="2" Note="64" Velocity="0"/>
  </Event>
  <Event>
    <Delta>0</Delta>
    <NoteOn Channel="2" Note="67" Velocity="100"/>
  </Event>
  <Event>
    <Delta>30</Delta>
    <NoteOn Channel="2" Note="67" Velocity="0"/>
  </Event>
  <Event>
    <Delta>0</Delta>
    <NoteOn Channel="2" Note="69" Velocity="100"/>
  </Event>
  <Event>
    <Delta>90</Delta>
    <NoteOn Channel="2" Note="69" Velocity="0"/>
  </Event>
  <Event>
    <Delta>0</Delta>
    <NoteOn Channel="2" Note="71" Velocity="100"/>
  </Event>
  <Event>
    <Delta>30</Delta>
    <NoteOn Channel="2" Note="71" Velocity="0"/>
  </Event>
  <Event>
    <Delta>0</Delta>
    <NoteOn Channel="2" Note="69" Velocity="100"/>
  </Event>
  <Event>
    <Delta>90</Delta>
    <NoteOn Channel="2" Note="69" Velocity="0"/>
  </Event>
  <Event>
    <Delta>0</Delta>
    <NoteOn Channel="2" Note="67" Velocity="100"/>
  </Event>
  <Event>
    <Delta>30</Delta>
    <NoteOn Channel="2" Note="67" Velocity="0"/>
  </Event>
  <Event>
    <Delta>0</Delta>
    <NoteOn Channel="2" Note="64" Velocity="100"/>
  </Event>
  <Event>
    <Delta>120</Delta>
    <NoteOn Channel="2" Note="64" Velocity="0"/>
  </Event>
  <Event>
    <Delta>0</Delta>
    <NoteOn Channel="2" Note="62" Velocity="100"/>
  </Event>
  <Event>
    <Delta>60</Delta>
    <NoteOn Channel="2" Note="62" Velocity="0"/>
  </Event>
  <Event>
    <Delta>0</Delta>
    <NoteOn Channel="2" Note="64" Velocity="100"/>
  </Event>
  <Event>
    <Delta>180</Delta>
    <NoteOn Channel="2" Note="64" Velocity="0"/>
  </Event>
  <Event>
    <Delta>0</Delta>
    <EndOfTrack/>
  </Event>
</Track>
<Track Number="3">
  <Event>
    <Delta>0</Delta>
    <MIDIChannelPrefix Value="00"/>
  </Event>
  <Event>
    <Delta>0</Delta>
    <ProgramChange Channel="3" Number="35"/>
  </Event>
  <Event>
    <Delta>0</Delta>
    <ControlChange Channel="3" Control="7" Value="127"/>
  </Event>
  <Event>
    <Delta>0</Delta>
    <ControlChange Channel="3" Control="10" Value="127"/>
  </Event>
  <Event>
    <Delta>0</Delta>
    <ControlChange Channel="3" Control="93" Value="63"/>
  </Event>
  <Event>
    <Delta>0</Delta>
    <ControlChange Channel="3" Control="91" Value="63"/>
  </Event>
  <Event>
    <Delta>0</Delta>
    <NoteOn Channel="3" Note="52" Velocity="100"/>
  </Event>
  <Event>
    <Delta>0</Delta>
    <NoteOn Channel="3" Note="55" Velocity="100"/>
  </Event>
  <Event>
    <Delta>210</Delta>
    <NoteOn Channel="3" Note="52" Velocity="0"/>
  </Event>
  <Event>
    <Delta>0</Delta>
    <NoteOn Channel="3" Note="52" Velocity="100"/>
  </Event>
  <Event>
    <Delta>30</Delta>
    <NoteOn Channel="3" Note="52" Velocity="0"/>
  </Event>
  <Event>
    <Delta>0</Delta>
    <NoteOn Channel="3" Note="51" Velocity="100"/>
  </Event>
  <Event>
    <Delta>210</Delta>
    <NoteOn Channel="3" Note="51" Velocity="0"/>
  </Event>
  <Event>
    <Delta>0</Delta>
    <NoteOn Channel="3" Note="51" Velocity="100"/>
  </Event>
  <Event>
    <Delta>30</Delta>
    <NoteOn Channel="3" Note="51" Velocity="0"/>
  </Event>
  <Event>
    <Delta>0</Delta>
    <NoteOn Channel="3" Note="50" Velocity="100"/>
  </Event>
  <Event>
    <Delta>210</Delta>
    <NoteOn Channel="3" Note="50" Velocity="0"/>
  </Event>
  <Event>
    <Delta>0</Delta>
    <NoteOn Channel="3" Note="50" Velocity="100"/>
  </Event>
  <Event>
    <Delta>30</Delta>
    <NoteOn Channel="3" Note="50" Velocity="0"/>
  </Event>
  <Event>
    <Delta>0</Delta>
    <NoteOn Channel="3" Note="49" Velocity="100"/>
  </Event>
  <Event>
    <Delta>210</Delta>
    <NoteOn Channel="3" Note="49" Velocity="0"/>
  </Event>
  <Event>
    <Delta>0</Delta>
    <NoteOn Channel="3" Note="49" Velocity="100"/>
  </Event>
  <Event>
    <Delta>30</Delta>
    <NoteOn Channel="3" Note="49" Velocity="0"/>
  </Event>
  <Event>
    <Delta>0</Delta>
    <NoteOn Channel="3" Note="55" Velocity="0"/>
  </Event>
  <Event>
    <Delta>0</Delta>
    <NoteOn Channel="3" Note="48" Velocity="100"/>
  </Event>
  <Event>
    <Delta>0</Delta>
    <NoteOn Channel="3" Note="55" Velocity="100"/>
  </Event>
  <Event>
    <Delta>240</Delta>
    <NoteOn Channel="3" Note="55" Velocity="0"/>
  </Event>
  <Event>
    <Delta>0</Delta>
    <NoteOn Channel="3" Note="54" Velocity="100"/>
  </Event>
  <Event>
    <Delta>240</Delta>
    <NoteOn Channel="3" Note="54" Velocity="0"/>
  </Event>
  <Event>
    <Delta>0</Delta>
    <NoteOn Channel="3" Note="48" Velocity="0"/>
  </Event>
  <Event>
    <Delta>0</Delta>
    <NoteOn Channel="3" Note="48" Velocity="100"/>
  </Event>
  <Event>
    <Delta>0</Delta>
    <NoteOn Channel="3" Note="58" Velocity="100"/>
  </Event>
  <Event>
    <Delta>240</Delta>
    <NoteOn Channel="3" Note="58" Velocity="0"/>
  </Event>
  <Event>
    <Delta>0</Delta>
    <NoteOn Channel="3" Note="48" Velocity="0"/>
  </Event>
  <Event>
    <Delta>0</Delta>
    <NoteOn Channel="3" Note="57" Velocity="100"/>
  </Event>
  <Event>
    <Delta>0</Delta>
    <NoteOn Channel="3" Note="54" Velocity="100"/>
  </Event>
  <Event>
    <Delta>90</Delta>
    <NoteOn Channel="3" Note="54" Velocity="0"/>
  </Event>
  <Event>
    <Delta>0</Delta>
    <NoteOn Channel="3" Note="57" Velocity="0"/>
  </Event>
  <Event>
    <Delta>0</Delta>
    <NoteOn Channel="3" Note="47" Velocity="100"/>
  </Event>
  <Event>
    <Delta>30</Delta>
    <NoteOn Channel="3" Note="47" Velocity="0"/>
  </Event>
  <Event>
    <Delta>0</Delta>
    <NoteOn Channel="3" Note="49" Velocity="100"/>
  </Event>
  <Event>
    <Delta>30</Delta>
    <NoteOn Channel="3" Note="49" Velocity="0"/>
  </Event>
  <Event>
    <Delta>60</Delta>
    <NoteOn Channel="3" Note="51" Velocity="100"/>
  </Event>
  <Event>
    <Delta>30</Delta>
    <NoteOn Channel="3" Note="51" Velocity="0"/>
  </Event>
  <Event>
    <Delta>0</Delta>
    <NoteOn Channel="3" Note="52" Velocity="100"/>
  </Event>
  <Event>
    <Delta>0</Delta>
    <NoteOn Channel="3" Note="55" Velocity="100"/>
  </Event>
  <Event>
    <Delta>210</Delta>
    <NoteOn Channel="3" Note="52" Velocity="0"/>
  </Event>
  <Event>
    <Delta>0</Delta>
    <NoteOn Channel="3" Note="52" Velocity="100"/>
  </Event>
  <Event>
    <Delta>30</Delta>
    <NoteOn Channel="3" Note="52" Velocity="0"/>
  </Event>
  <Event>
    <Delta>0</Delta>
    <NoteOn Channel="3" Note="51" Velocity="100"/>
  </Event>
  <Event>
    <Delta>210</Delta>
    <NoteOn Channel="3" Note="51" Velocity="0"/>
  </Event>
  <Event>
    <Delta>0</Delta>
    <NoteOn Channel="3" Note="51" Velocity="100"/>
  </Event>
  <Event>
    <Delta>30</Delta>
    <NoteOn Channel="3" Note="51" Velocity="0"/>
  </Event>
  <Event>
    <Delta>0</Delta>
    <NoteOn Channel="3" Note="50" Velocity="100"/>
  </Event>
  <Event>
    <Delta>120</Delta>
    <NoteOn Channel="3" Note="50" Velocity="0"/>
  </Event>
  <Event>
    <Delta>0</Delta>
    <NoteOn Channel="3" Note="55" Velocity="0"/>
  </Event>
  <Event>
    <Delta>0</Delta>
    <NoteOn Channel="3" Note="50" Velocity="100"/>
  </Event>
  <Event>
    <Delta>0</Delta>
    <NoteOn Channel="3" Note="55" Velocity="100"/>
  </Event>
  <Event>
    <Delta>60</Delta>
    <NoteOn Channel="3" Note="55" Velocity="0"/>
  </Event>
  <Event>
    <Delta>0</Delta>
    <NoteOn Channel="3" Note="50" Velocity="0"/>
  </Event>
  <Event>
    <Delta>0</Delta>
    <NoteOn Channel="3" Note="49" Velocity="100"/>
  </Event>
  <Event>
    <Delta>0</Delta>
    <NoteOn Channel="3" Note="55" Velocity="100"/>
  </Event>
  <Event>
    <Delta>180</Delta>
    <NoteOn Channel="3" Note="55" Velocity="0"/>
  </Event>
  <Event>
    <Delta>0</Delta>
    <NoteOn Channel="3" Note="49" Velocity="0"/>
  </Event>
  <Event>
    <Delta>0</Delta>
    <NoteOn Channel="3" Note="55" Velocity="100"/>
  </Event>
  <Event>
    <Delta>0</Delta>
    <NoteOn Channel="3" Note="49" Velocity="100"/>
  </Event>
  <Event>
    <Delta>60</Delta>
    <NoteOn Channel="3" Note="49" Velocity="0"/>
  </Event>
  <Event>
    <Delta>0</Delta>
    <NoteOn Channel="3" Note="55" Velocity="0"/>
  </Event>
  <Event>
    <Delta>0</Delta>
    <NoteOn Channel="3" Note="48" Velocity="100"/>
  </Event>
  <Event>
    <Delta>60</Delta>
    <NoteOn Channel="3" Note="55" Velocity="100"/>
  </Event>
  <Event>
    <Delta>240</Delta>
    <NoteOn Channel="3" Note="55" Velocity="0"/>
  </Event>
  <Event>
    <Delta>0</Delta>
    <NoteOn Channel="3" Note="48" Velocity="0"/>
  </Event>
  <Event>
    <Delta>0</Delta>
    <NoteOn Channel="3" Note="47" Velocity="100"/>
  </Event>
  <Event>
    <Delta>0</Delta>
    <NoteOn Channel="3" Note="54" Velocity="100"/>
  </Event>
  <Event>
    <Delta>240</Delta>
    <NoteOn Channel="3" Note="54" Velocity="0"/>
  </Event>
  <Event>
    <Delta>0</Delta>
    <NoteOn Channel="3" Note="47" Velocity="0"/>
  </Event>
  <Event>
    <Delta>0</Delta>
    <NoteOn Channel="3" Note="52" Velocity="100"/>
  </Event>
  <Event>
    <Delta>0</Delta>
    <NoteOn Channel="3" Note="55" Velocity="100"/>
  </Event>
  <Event>
    <Delta>120</Delta>
    <NoteOn Channel="3" Note="55" Velocity="0"/>
  </Event>
  <Event>
    <Delta>0</Delta>
    <NoteOn Channel="3" Note="52" Velocity="0"/>
  </Event>
  <Event>
    <Delta>0</Delta>
    <NoteOn Channel="3" Note="54" Velocity="100"/>
  </Event>
  <Event>
    <Delta>0</Delta>
    <NoteOn Channel="3" Note="57" Velocity="100"/>
  </Event>
  <Event>
    <Delta>0</Delta>
    <NoteOn Channel="3" Note="59" Velocity="100"/>
  </Event>
  <Event>
    <Delta>60</Delta>
    <NoteOn Channel="3" Note="59" Velocity="0"/>
  </Event>
  <Event>
    <Delta>0</Delta>
    <NoteOn Channel="3" Note="57" Velocity="0"/>
  </Event>
  <Event>
    <Delta>0</Delta>
    <NoteOn Channel="3" Note="54" Velocity="0"/>
  </Event>
  <Event>
    <Delta>0</Delta>
    <NoteOn Channel="3" Note="52" Velocity="100"/>
  </Event>
  <Event>
    <Delta>0</Delta>
    <NoteOn Channel="3" Note="55" Velocity="100"/>
  </Event>
  <Event>
    <Delta>0</Delta>
    <NoteOn Channel="3" Note="59" Velocity="100"/>
  </Event>
  <Event>
    <Delta>180</Delta>
    <NoteOn Channel="3" Note="59" Velocity="0"/>
  </Event>
  <Event>
    <Delta>0</Delta>
    <NoteOn Channel="3" Note="55" Velocity="0"/>
  </Event>
  <Event>
    <Delta>0</Delta>
    <NoteOn Channel="3" Note="52" Velocity="0"/>
  </Event>
  <Event>
    <Delta>0</Delta>
    <NoteOn Channel="3" Note="40" Velocity="100"/>
  </Event>
  <Event>
    <Delta>120</Delta>
    <NoteOn Channel="3" Note="40" Velocity="0"/>
  </Event>
  <Event>
    <Delta>0</Delta>
    <NoteOn Channel="3" Note="57" Velocity="100"/>
  </Event>
  <Event>
    <Delta>0</Delta>
    <NoteOn Channel="3" Note="64" Velocity="100"/>
  </Event>
  <Event>
    <Delta>180</Delta>
    <NoteOn Channel="3" Note="57" Velocity="0"/>
  </Event>
  <Event>
    <Delta>0</Delta>
    <NoteOn Channel="3" Note="57" Velocity="100"/>
  </Event>
  <Event>
    <Delta>60</Delta>
    <NoteOn Channel="3" Note="57" Velocity="0"/>
  </Event>
  <Event>
    <Delta>0</Delta>
    <NoteOn Channel="3" Note="56" Velocity="100"/>
  </Event>
  <Event>
    <Delta>180</Delta>
    <NoteOn Channel="3" Note="56" Velocity="0"/>
  </Event>
  <Event>
    <Delta>0</Delta>
    <NoteOn Channel="3" Note="56" Velocity="100"/>
  </Event>
  <Event>
    <Delta>60</Delta>
    <NoteOn Channel="3" Note="56" Velocity="0"/>
  </Event>
  <Event>
    <Delta>0</Delta>
    <NoteOn Channel="3" Note="55" Velocity="100"/>
  </Event>
  <Event>
    <Delta>180</Delta>
    <NoteOn Channel="3" Note="55" Velocity="0"/>
  </Event>
  <Event>
    <Delta>0</Delta>
    <NoteOn Channel="3" Note="55" Velocity="100"/>
  </Event>
  <Event>
    <Delta>60</Delta>
    <NoteOn Channel="3" Note="55" Velocity="0"/>
  </Event>
  <Event>
    <Delta>0</Delta>
    <NoteOn Channel="3" Note="54" Velocity="100"/>
  </Event>
  <Event>
    <Delta>180</Delta>
    <NoteOn Channel="3" Note="54" Velocity="0"/>
  </Event>
  <Event>
    <Delta>0</Delta>
    <NoteOn Channel="3" Note="54" Velocity="100"/>
  </Event>
  <Event>
    <Delta>60</Delta>
    <NoteOn Channel="3" Note="54" Velocity="0"/>
  </Event>
  <Event>
    <Delta>0</Delta>
    <NoteOn Channel="3" Note="64" Velocity="0"/>
  </Event>
  <Event>
    <Delta>0</Delta>
    <NoteOn Channel="3" Note="55" Velocity="100"/>
  </Event>
  <Event>
    <Delta>0</Delta>
    <NoteOn Channel="3" Note="62" Velocity="100"/>
  </Event>
  <Event>
    <Delta>120</Delta>
    <NoteOn Channel="3" Note="59" Velocity="100"/>
  </Event>
  <Event>
    <Delta>60</Delta>
    <NoteOn Channel="3" Note="62" Velocity="0"/>
  </Event>
  <Event>
    <Delta>0</Delta>
    <NoteOn Channel="3" Note="55" Velocity="0"/>
  </Event>
  <Event>
    <Delta>30</Delta>
    <NoteOn Channel="3" Note="59" Velocity="0"/>
  </Event>
  <Event>
    <Delta>30</Delta>
    <NoteOn Channel="3" Note="59" Velocity="100"/>
  </Event>
  <Event>
    <Delta>90</Delta>
    <NoteOn Channel="3" Note="59" Velocity="0"/>
  </Event>
  <Event>
    <Delta>0</Delta>
    <NoteOn Channel="3" Note="50" Velocity="100"/>
  </Event>
  <Event>
    <Delta>30</Delta>
    <NoteOn Channel="3" Note="50" Velocity="0"/>
  </Event>
  <Event>
    <Delta>0</Delta>
    <NoteOn Channel="3" Note="52" Velocity="100"/>
  </Event>
  <Event>
    <Delta>90</Delta>
    <NoteOn Channel="3" Note="52" Velocity="0"/>
  </Event>
  <Event>
    <Delta>0</Delta>
    <NoteOn Channel="3" Note="54" Velocity="100"/>
  </Event>
  <Event>
    <Delta>30</Delta>
    <NoteOn Channel="3" Note="54" Velocity="0"/>
  </Event>
  <Event>
    <Delta>0</Delta>
    <NoteOn Channel="3" Note="55" Velocity="100"/>
  </Event>
  <Event>
    <Delta>120</Delta>
    <NoteOn Channel="3" Note="55" Velocity="0"/>
  </Event>
  <Event>
    <Delta>0</Delta>
    <NoteOn Channel="3" Note="57" Velocity="100"/>
  </Event>
  <Event>
    <Delta>60</Delta>
    <NoteOn Channel="3" Note="57" Velocity="0"/>
  </Event>
  <Event>
    <Delta>0</Delta>
    <NoteOn Channel="3" Note="59" Velocity="100"/>
  </Event>
  <Event>
    <Delta>180</Delta>
    <NoteOn Channel="3" Note="59" Velocity="0"/>
  </Event>
  <Event>
    <Delta>0</Delta>
    <NoteOn Channel="3" Note="51" Velocity="100"/>
  </Event>
  <Event>
    <Delta>60</Delta>
    <NoteOn Channel="3" Note="51" Velocity="0"/>
  </Event>
  <Event>
    <Delta>0</Delta>
    <NoteOn Channel="3" Note="52" Velocity="100"/>
  </Event>
  <Event>
    <Delta>60</Delta>
    <NoteOn Channel="3" Note="52" Velocity="0"/>
  </Event>
  <Event>
    <Delta>0</Delta>
    <NoteOn Channel="3" Note="54" Velocity="100"/>
  </Event>
  <Event>
    <Delta>60</Delta>
    <NoteOn Channel="3" Note="54" Velocity="0"/>
  </Event>
  <Event>
    <Delta>0</Delta>
    <NoteOn Channel="3" Note="51" Velocity="100"/>
  </Event>
  <Event>
    <Delta>60</Delta>
    <NoteOn Channel="3" Note="51" Velocity="0"/>
  </Event>
  <Event>
    <Delta>0</Delta>
    <NoteOn Channel="3" Note="52" Velocity="100"/>
  </Event>
  <Event>
    <Delta>60</Delta>
    <NoteOn Channel="3" Note="52" Velocity="0"/>
  </Event>
  <Event>
    <Delta>0</Delta>
    <NoteOn Channel="3" Note="54" Velocity="100"/>
  </Event>
  <Event>
    <Delta>120</Delta>
    <NoteOn Channel="3" Note="47" Velocity="100"/>
  </Event>
  <Event>
    <Delta>20</Delta>
    <NoteOn Channel="3" Note="54" Velocity="0"/>
  </Event>
  <Event>
    <Delta>40</Delta>
    <NoteOn Channel="3" Note="47" Velocity="0"/>
  </Event>
  <Event>
    <Delta>0</Delta>
    <NoteOn Channel="3" Note="51" Velocity="100"/>
  </Event>
  <Event>
    <Delta>60</Delta>
    <NoteOn Channel="3" Note="51" Velocity="0"/>
  </Event>
  <Event>
    <Delta>0</Delta>
    <NoteOn Channel="3" Note="52" Velocity="100"/>
  </Event>
  <Event>
    <Delta>60</Delta>
    <NoteOn Channel="3" Note="52" Velocity="0"/>
  </Event>
  <Event>
    <Delta>0</Delta>
    <NoteOn Channel="3" Note="54" Velocity="100"/>
  </Event>
  <Event>
    <Delta>60</Delta>
    <NoteOn Channel="3" Note="54" Velocity="0"/>
  </Event>
  <Event>
    <Delta>0</Delta>
    <NoteOn Channel="3" Note="51" Velocity="100"/>
  </Event>
  <Event>
    <Delta>60</Delta>
    <NoteOn Channel="3" Note="51" Velocity="0"/>
  </Event>
  <Event>
    <Delta>0</Delta>
    <NoteOn Channel="3" Note="52" Velocity="100"/>
  </Event>
  <Event>
    <Delta>60</Delta>
    <NoteOn Channel="3" Note="52" Velocity="0"/>
  </Event>
  <Event>
    <Delta>0</Delta>
    <NoteOn Channel="3" Note="54" Velocity="100"/>
  </Event>
  <Event>
    <Delta>180</Delta>
    <NoteOn Channel="3" Note="54" Velocity="0"/>
  </Event>
  <Event>
    <Delta>0</Delta>
    <NoteOn Channel="3" Note="47" Velocity="100"/>
  </Event>
  <Event>
    <Delta>120</Delta>
    <NoteOn Channel="3" Note="47" Velocity="0"/>
  </Event>
  <Event>
    <Delta>0</Delta>
    <NoteOn Channel="3" Note="52" Velocity="100"/>
  </Event>
  <Event>
    <Delta>0</Delta>
    <NoteOn Channel="3" Note="59" Velocity="100"/>
  </Event>
  <Event>
    <Delta>120</Delta>
    <NoteOn Channel="3" Note="59" Velocity="0"/>
  </Event>
  <Event>
    <Delta>0</Delta>
    <NoteOn Channel="3" Note="52" Velocity="0"/>
  </Event>
  <Event>
    <Delta>0</Delta>
    <NoteOn Channel="3" Note="57" Velocity="100"/>
  </Event>
  <Event>
    <Delta>0</Delta>
    <NoteOn Channel="3" Note="60" Velocity="100"/>
  </Event>
  <Event>
    <Delta>60</Delta>
    <NoteOn Channel="3" Note="60" Velocity="0"/>
  </Event>
  <Event>
    <Delta>0</Delta>
    <NoteOn Channel="3" Note="57" Velocity="0"/>
  </Event>
  <Event>
    <Delta>0</Delta>
    <NoteOn Channel="3" Note="54" Velocity="100"/>
  </Event>
  <Event>
    <Delta>0</Delta>
    <NoteOn Channel="3" Note="59" Velocity="100"/>
  </Event>
  <Event>
    <Delta>180</Delta>
    <NoteOn Channel="3" Note="59" Velocity="0"/>
  </Event>
  <Event>
    <Delta>0</Delta>
    <NoteOn Channel="3" Note="54" Velocity="0"/>
  </Event>
  <Event>
    <Delta>0</Delta>
    <NoteOn Channel="3" Note="47" Velocity="100"/>
  </Event>
  <Event>
    <Delta>120</Delta>
    <NoteOn Channel="3" Note="47" Velocity="0"/>
  </Event>
  <Event>
    <Delta>0</Delta>
    <NoteOn Channel="3" Note="48" Velocity="100"/>
  </Event>
  <Event>
    <Delta>180</Delta>
    <NoteOn Channel="3" Note="48" Velocity="0"/>
  </Event>
  <Event>
    <Delta>0</Delta>
    <NoteOn Channel="3" Note="59" Velocity="100"/>
  </Event>
  <Event>
    <Delta>140</Delta>
    <NoteOn Channel="3" Note="59" Velocity="0"/>
  </Event>
  <Event>
    <Delta>10</Delta>
    <NoteOn Channel="3" Note="57" Velocity="100"/>
  </Event>
  <Event>
    <Delta>30</Delta>
    <NoteOn Channel="3" Note="57" Velocity="0"/>
  </Event>
  <Event>
    <Delta>0</Delta>
    <NoteOn Channel="3" Note="54" Velocity="100"/>
  </Event>
  <Event>
    <Delta>90</Delta>
    <NoteOn Channel="3" Note="54" Velocity="0"/>
  </Event>
  <Event>
    <Delta>0</Delta>
    <NoteOn Channel="3" Note="51" Velocity="100"/>
  </Event>
  <Event>
    <Delta>30</Delta>
    <NoteOn Channel="3" Note="51" Velocity="0"/>
  </Event>
  <Event>
    <Delta>0</Delta>
    <NoteOn Channel="3" Note="52" Velocity="100"/>
  </Event>
  <Event>
    <Delta>0</Delta>
    <NoteOn Channel="3" Note="55" Velocity="100"/>
  </Event>
  <Event>
    <Delta>210</Delta>
    <NoteOn Channel="3" Note="52" Velocity="0"/>
  </Event>
  <Event>
    <Delta>0</Delta>
    <NoteOn Channel="3" Note="52" Velocity="100"/>
  </Event>
  <Event>
    <Delta>30</Delta>
    <NoteOn Channel="3" Note="52" Velocity="0"/>
  </Event>
  <Event>
    <Delta>0</Delta>
    <NoteOn Channel="3" Note="51" Velocity="100"/>
  </Event>
  <Event>
    <Delta>210</Delta>
    <NoteOn Channel="3" Note="51" Velocity="0"/>
  </Event>
  <Event>
    <Delta>0</Delta>
    <NoteOn Channel="3" Note="51" Velocity="100"/>
  </Event>
  <Event>
    <Delta>30</Delta>
    <NoteOn Channel="3" Note="51" Velocity="0"/>
  </Event>
  <Event>
    <Delta>0</Delta>
    <NoteOn Channel="3" Note="50" Velocity="100"/>
  </Event>
  <Event>
    <Delta>210</Delta>
    <NoteOn Channel="3" Note="50" Velocity="0"/>
  </Event>
  <Event>
    <Delta>0</Delta>
    <NoteOn Channel="3" Note="50" Velocity="100"/>
  </Event>
  <Event>
    <Delta>30</Delta>
    <NoteOn Channel="3" Note="50" Velocity="0"/>
  </Event>
  <Event>
    <Delta>0</Delta>
    <NoteOn Channel="3" Note="49" Velocity="100"/>
  </Event>
  <Event>
    <Delta>210</Delta>
    <NoteOn Channel="3" Note="49" Velocity="0"/>
  </Event>
  <Event>
    <Delta>0</Delta>
    <NoteOn Channel="3" Note="49" Velocity="100"/>
  </Event>
  <Event>
    <Delta>30</Delta>
    <NoteOn Channel="3" Note="49" Velocity="0"/>
  </Event>
  <Event>
    <Delta>0</Delta>
    <NoteOn Channel="3" Note="55" Velocity="0"/>
  </Event>
  <Event>
    <Delta>0</Delta>
    <NoteOn Channel="3" Note="48" Velocity="100"/>
  </Event>
  <Event>
    <Delta>0</Delta>
    <NoteOn Channel="3" Note="55" Velocity="100"/>
  </Event>
  <Event>
    <Delta>240</Delta>
    <NoteOn Channel="3" Note="55" Velocity="0"/>
  </Event>
  <Event>
    <Delta>0</Delta>
    <NoteOn Channel="3" Note="54" Velocity="100"/>
  </Event>
  <Event>
    <Delta>240</Delta>
    <NoteOn Channel="3" Note="54" Velocity="0"/>
  </Event>
  <Event>
    <Delta>0</Delta>
    <NoteOn Channel="3" Note="48" Velocity="0"/>
  </Event>
  <Event>
    <Delta>0</Delta>
    <NoteOn Channel="3" Note="48" Velocity="100"/>
  </Event>
  <Event>
    <Delta>0</Delta>
    <NoteOn Channel="3" Note="58" Velocity="100"/>
  </Event>
  <Event>
    <Delta>240</Delta>
    <NoteOn Channel="3" Note="58" Velocity="0"/>
  </Event>
  <Event>
    <Delta>0</Delta>
    <NoteOn Channel="3" Note="48" Velocity="0"/>
  </Event>
  <Event>
    <Delta>0</Delta>
    <NoteOn Channel="3" Note="54" Velocity="100"/>
  </Event>
  <Event>
    <Delta>0</Delta>
    <NoteOn Channel="3" Note="57" Velocity="100"/>
  </Event>
  <Event>
    <Delta>90</Delta>
    <NoteOn Channel="3" Note="57" Velocity="0"/>
  </Event>
  <Event>
    <Delta>0</Delta>
    <NoteOn Channel="3" Note="54" Velocity="0"/>
  </Event>
  <Event>
    <Delta>0</Delta>
    <NoteOn Channel="3" Note="47" Velocity="100"/>
  </Event>
  <Event>
    <Delta>30</Delta>
    <NoteOn Channel="3" Note="47" Velocity="0"/>
  </Event>
  <Event>
    <Delta>0</Delta>
    <NoteOn Channel="3" Note="49" Velocity="100"/>
  </Event>
  <Event>
    <Delta>90</Delta>
    <NoteOn Channel="3" Note="49" Velocity="0"/>
  </Event>
  <Event>
    <Delta>0</Delta>
    <NoteOn Channel="3" Note="51" Velocity="100"/>
  </Event>
  <Event>
    <Delta>30</Delta>
    <NoteOn Channel="3" Note="51" Velocity="0"/>
  </Event>
  <Event>
    <Delta>0</Delta>
    <NoteOn Channel="3" Note="52" Velocity="100"/>
  </Event>
  <Event>
    <Delta>0</Delta>
    <NoteOn Channel="3" Note="55" Velocity="100"/>
  </Event>
  <Event>
    <Delta>210</Delta>
    <NoteOn Channel="3" Note="52" Velocity="0"/>
  </Event>
  <Event>
    <Delta>0</Delta>
    <NoteOn Channel="3" Note="52" Velocity="100"/>
  </Event>
  <Event>
    <Delta>30</Delta>
    <NoteOn Channel="3" Note="52" Velocity="0"/>
  </Event>
  <Event>
    <Delta>0</Delta>
    <NoteOn Channel="3" Note="51" Velocity="100"/>
  </Event>
  <Event>
    <Delta>210</Delta>
    <NoteOn Channel="3" Note="51" Velocity="0"/>
  </Event>
  <Event>
    <Delta>0</Delta>
    <NoteOn Channel="3" Note="51" Velocity="100"/>
  </Event>
  <Event>
    <Delta>30</Delta>
    <NoteOn Channel="3" Note="51" Velocity="0"/>
  </Event>
  <Event>
    <Delta>0</Delta>
    <NoteOn Channel="3" Note="55" Velocity="0"/>
  </Event>
  <Event>
    <Delta>0</Delta>
    <NoteOn Channel="3" Note="50" Velocity="100"/>
  </Event>
  <Event>
    <Delta>0</Delta>
    <NoteOn Channel="3" Note="55" Velocity="100"/>
  </Event>
  <Event>
    <Delta>120</Delta>
    <NoteOn Channel="3" Note="55" Velocity="0"/>
  </Event>
  <Event>
    <Delta>0</Delta>
    <NoteOn Channel="3" Note="50" Velocity="0"/>
  </Event>
  <Event>
    <Delta>0</Delta>
    <NoteOn Channel="3" Note="50" Velocity="100"/>
  </Event>
  <Event>
    <Delta>0</Delta>
    <NoteOn Channel="3" Note="55" Velocity="100"/>
  </Event>
  <Event>
    <Delta>60</Delta>
    <NoteOn Channel="3" Note="55" Velocity="0"/>
  </Event>
  <Event>
    <Delta>0</Delta>
    <NoteOn Channel="3" Note="50" Velocity="0"/>
  </Event>
  <Event>
    <Delta>0</Delta>
    <NoteOn Channel="3" Note="49" Velocity="100"/>
  </Event>
  <Event>
    <Delta>0</Delta>
    <NoteOn Channel="3" Note="55" Velocity="100"/>
  </Event>
  <Event>
    <Delta>180</Delta>
    <NoteOn Channel="3" Note="55" Velocity="0"/>
  </Event>
  <Event>
    <Delta>0</Delta>
    <NoteOn Channel="3" Note="49" Velocity="0"/>
  </Event>
  <Event>
    <Delta>0</Delta>
    <NoteOn Channel="3" Note="49" Velocity="100"/>
  </Event>
  <Event>
    <Delta>0</Delta>
    <NoteOn Channel="3" Note="55" Velocity="100"/>
  </Event>
  <Event>
    <Delta>60</Delta>
    <NoteOn Channel="3" Note="55" Velocity="0"/>
  </Event>
  <Event>
    <Delta>0</Delta>
    <NoteOn Channel="3" Note="49" Velocity="0"/>
  </Event>
  <Event>
    <Delta>0</Delta>
    <NoteOn Channel="3" Note="48" Velocity="100"/>
  </Event>
  <Event>
    <Delta>0</Delta>
    <NoteOn Channel="3" Note="55" Velocity="100"/>
  </Event>
  <Event>
    <Delta>420</Delta>
    <NoteOn Channel="3" Note="55" Velocity="0"/>
  </Event>
  <Event>
    <Delta>0</Delta>
    <NoteOn Channel="3" Note="48" Velocity="0"/>
  </Event>
  <Event>
    <Delta>0</Delta>
    <NoteOn Channel="3" Note="47" Velocity="100"/>
  </Event>
  <Event>
    <Delta>120</Delta>
    <NoteOn Channel="3" Note="47" Velocity="0"/>
  </Event>
  <Event>
    <Delta>0</Delta>
    <NoteOn Channel="3" Note="52" Velocity="100"/>
  </Event>
  <Event>
    <Delta>0</Delta>
    <NoteOn Channel="3" Note="55" Velocity="100"/>
  </Event>
  <Event>
    <Delta>120</Delta>
    <NoteOn Channel="3" Note="55" Velocity="0"/>
  </Event>
  <Event>
    <Delta>0</Delta>
    <NoteOn Channel="3" Note="52" Velocity="0"/>
  </Event>
  <Event>
    <Delta>0</Delta>
    <NoteOn Channel="3" Note="54" Velocity="100"/>
  </Event>
  <Event>
    <Delta>0</Delta>
    <NoteOn Channel="3" Note="57" Velocity="100"/>
  </Event>
  <Event>
    <Delta>0</Delta>
    <NoteOn Channel="3" Note="59" Velocity="100"/>
  </Event>
  <Event>
    <Delta>60</Delta>
    <NoteOn Channel="3" Note="59" Velocity="0"/>
  </Event>
  <Event>
    <Delta>0</Delta>
    <NoteOn Channel="3" Note="57" Velocity="0"/>
  </Event>
  <Event>
    <Delta>0</Delta>
    <NoteOn Channel="3" Note="54" Velocity="0"/>
  </Event>
  <Event>
    <Delta>0</Delta>
    <NoteOn Channel="3" Note="52" Velocity="100"/>
  </Event>
  <Event>
    <Delta>0</Delta>
    <NoteOn Channel="3" Note="55" Velocity="100"/>
  </Event>
  <Event>
    <Delta>0</Delta>
    <NoteOn Channel="3" Note="59" Velocity="100"/>
  </Event>
  <Event>
    <Delta>180</Delta>
    <NoteOn Channel="3" Note="59" Velocity="0"/>
  </Event>
  <Event>
    <Delta>0</Delta>
    <NoteOn Channel="3" Note="55" Velocity="0"/>
  </Event>
  <Event>
    <Delta>0</Delta>
    <NoteOn Channel="3" Note="52" Velocity="0"/>
  </Event>
  <Event>
    <Delta>0</Delta>
    <NoteOn Channel="3" Note="47" Velocity="100"/>
  </Event>
  <Event>
    <Delta>120</Delta>
    <NoteOn Channel="3" Note="47" Velocity="0"/>
  </Event>
  <Event>
    <Delta>0</Delta>
    <NoteOn Channel="3" Note="48" Velocity="100"/>
  </Event>
  <Event>
    <Delta>180</Delta>
    <NoteOn Channel="3" Note="48" Velocity="0"/>
  </Event>
  <Event>
    <Delta>0</Delta>
    <NoteOn Channel="3" Note="59" Velocity="100"/>
  </Event>
  <Event>
    <Delta>180</Delta>
    <NoteOn Channel="3" Note="59" Velocity="0"/>
  </Event>
  <Event>
    <Delta>0</Delta>
    <NoteOn Channel="3" Note="54" Velocity="100"/>
  </Event>
  <Event>
    <Delta>120</Delta>
    <NoteOn Channel="3" Note="54" Velocity="0"/>
  </Event>
  <Event>
    <Delta>0</Delta>
    <NoteOn Channel="3" Note="54" Velocity="100"/>
  </Event>
  <Event>
    <Delta>0</Delta>
    <NoteOn Channel="3" Note="57" Velocity="100"/>
  </Event>
  <Event>
    <Delta>0</Delta>
    <NoteOn Channel="3" Note="61" Velocity="100"/>
  </Event>
  <Event>
    <Delta>0</Delta>
    <NoteOn Channel="3" Note="64" Velocity="100"/>
  </Event>
  <Event>
    <Delta>240</Delta>
    <NoteOn Channel="3" Note="64" Velocity="0"/>
  </Event>
  <Event>
    <Delta>0</Delta>
    <NoteOn Channel="3" Note="61" Velocity="0"/>
  </Event>
  <Event>
    <Delta>0</Delta>
    <NoteOn Channel="3" Note="57" Velocity="0"/>
  </Event>
  <Event>
    <Delta>0</Delta>
    <NoteOn Channel="3" Note="57" Velocity="100"/>
  </Event>
  <Event>
    <Delta>0</Delta>
    <NoteOn Channel="3" Note="59" Velocity="100"/>
  </Event>
  <Event>
    <Delta>0</Delta>
    <NoteOn Channel="3" Note="63" Velocity="100"/>
  </Event>
  <Event>
    <Delta>120</Delta>
    <NoteOn Channel="3" Note="63" Velocity="0"/>
  </Event>
  <Event>
    <Delta>0</Delta>
    <NoteOn Channel="3" Note="54" Velocity="0"/>
  </Event>
  <Event>
    <Delta>0</Delta>
    <NoteOn Channel="3" Note="57" Velocity="0"/>
  </Event>
  <Event>
    <Delta>0</Delta>
    <NoteOn Channel="3" Note="59" Velocity="0"/>
  </Event>
  <Event>
    <Delta>0</Delta>
    <NoteOn Channel="3" Note="47" Velocity="100"/>
  </Event>
  <Event>
    <Delta>120</Delta>
    <NoteOn Channel="3" Note="47" Velocity="0"/>
  </Event>
  <Event>
    <Delta>0</Delta>
    <NoteOn Channel="3" Note="54" Velocity="100"/>
  </Event>
  <Event>
    <Delta>0</Delta>
    <NoteOn Channel="3" Note="57" Velocity="100"/>
  </Event>
  <Event>
    <Delta>0</Delta>
    <NoteOn Channel="3" Note="61" Velocity="100"/>
  </Event>
  <Event>
    <Delta>0</Delta>
    <NoteOn Channel="3" Note="64" Velocity="100"/>
  </Event>
  <Event>
    <Delta>240</Delta>
    <NoteOn Channel="3" Note="64" Velocity="0"/>
  </Event>
  <Event>
    <Delta>0</Delta>
    <NoteOn Channel="3" Note="61" Velocity="0"/>
  </Event>
  <Event>
    <Delta>0</Delta>
    <NoteOn Channel="3" Note="57" Velocity="0"/>
  </Event>
  <Event>
    <Delta>0</Delta>
    <NoteOn Channel="3" Note="57" Velocity="100"/>
  </Event>
  <Event>
    <Delta>0</Delta>
    <NoteOn Channel="3" Note="59" Velocity="100"/>
  </Event>
  <Event>
    <Delta>0</Delta>
    <NoteOn Channel="3" Note="63" Velocity="100"/>
  </Event>
  <Event>
    <Delta>120</Delta>
    <NoteOn Channel="3" Note="63" Velocity="0"/>
  </Event>
  <Event>
    <Delta>0</Delta>
    <NoteOn Channel="3" Note="54" Velocity="0"/>
  </Event>
  <Event>
    <Delta>0</Delta>
    <NoteOn Channel="3" Note="57" Velocity="0"/>
  </Event>
  <Event>
    <Delta>0</Delta>
    <NoteOn Channel="3" Note="59" Velocity="0"/>
  </Event>
  <Event>
    <Delta>0</Delta>
    <NoteOn Channel="3" Note="47" Velocity="100"/>
  </Event>
  <Event>
    <Delta>120</Delta>
    <NoteOn Channel="3" Note="47" Velocity="0"/>
  </Event>
  <Event>
    <Delta>0</Delta>
    <NoteOn Channel="3" Note="56" Velocity="100"/>
  </Event>
  <Event>
    <Delta>120</Delta>
    <NoteOn Channel="3" Note="56" Velocity="0"/>
  </Event>
  <Event>
    <Delta>0</Delta>
    <NoteOn Channel="3" Note="58" Velocity="100"/>
  </Event>
  <Event>
    <Delta>120</Delta>
    <NoteOn Channel="3" Note="58" Velocity="0"/>
  </Event>
  <Event>
    <Delta>0</Delta>
    <NoteOn Channel="3" Note="57" Velocity="100"/>
  </Event>
  <Event>
    <Delta>120</Delta>
    <NoteOn Channel="3" Note="47" Velocity="100"/>
  </Event>
  <Event>
    <Delta>120</Delta>
    <NoteOn Channel="3" Note="47" Velocity="0"/>
  </Event>
  <Event>
    <Delta>0</Delta>
    <NoteOn Channel="3" Note="57" Velocity="0"/>
  </Event>
  <Event>
    <Delta>0</Delta>
    <NoteOn Channel="3" Note="52" Velocity="100"/>
  </Event>
  <Event>
    <Delta>0</Delta>
    <NoteOn Channel="3" Note="56" Velocity="100"/>
  </Event>
  <Event>
    <Delta>120</Delta>
    <NoteOn Channel="3" Note="63" Velocity="100"/>
  </Event>
  <Event>
    <Delta>120</Delta>
    <NoteOn Channel="3" Note="63" Velocity="0"/>
  </Event>
  <Event>
    <Delta>0</Delta>
    <NoteOn Channel="3" Note="61" Velocity="100"/>
  </Event>
  <Event>
    <Delta>120</Delta>
    <NoteOn Channel="3" Note="61" Velocity="0"/>
  </Event>
  <Event>
    <Delta>0</Delta>
    <NoteOn Channel="3" Note="59" Velocity="100"/>
  </Event>
  <Event>
    <Delta>120</Delta>
    <NoteOn Channel="3" Note="59" Velocity="0"/>
  </Event>
  <Event>
    <Delta>0</Delta>
    <NoteOn Channel="3" Note="56" Velocity="0"/>
  </Event>
  <Event>
    <Delta>0</Delta>
    <NoteOn Channel="3" Note="52" Velocity="0"/>
  </Event>
  <Event>
    <Delta>0</Delta>
    <NoteOn Channel="3" Note="52" Velocity="100"/>
  </Event>
  <Event>
    <Delta>0</Delta>
    <NoteOn Channel="3" Note="57" Velocity="100"/>
  </Event>
  <Event>
    <Delta>180</Delta>
    <NoteOn Channel="3" Note="57" Velocity="0"/>
  </Event>
  <Event>
    <Delta>0</Delta>
    <NoteOn Channel="3" Note="52" Velocity="0"/>
  </Event>
  <Event>
    <Delta>0</Delta>
    <NoteOn Channel="3" Note="52" Velocity="100"/>
  </Event>
  <Event>
    <Delta>0</Delta>
    <NoteOn Channel="3" Note="59" Velocity="100"/>
  </Event>
  <Event>
    <Delta>180</Delta>
    <NoteOn Channel="3" Note="59" Velocity="0"/>
  </Event>
  <Event>
    <Delta>0</Delta>
    <NoteOn Channel="3" Note="52" Velocity="0"/>
  </Event>
  <Event>
    <Delta>0</Delta>
    <NoteOn Channel="3" Note="47" Velocity="100"/>
  </Event>
  <Event>
    <Delta>120</Delta>
    <NoteOn Channel="3" Note="47" Velocity="0"/>
  </Event>
  <Event>
    <Delta>0</Delta>
    <NoteOn Channel="3" Note="65" Velocity="100"/>
  </Event>
  <Event>
    <Delta>0</Delta>
    <NoteOn Channel="3" Note="58" Velocity="100"/>
  </Event>
  <Event>
    <Delta>0</Delta>
    <NoteOn Channel="3" Note="55" Velocity="100"/>
  </Event>
  <Event>
    <Delta>120</Delta>
    <NoteOn Channel="3" Note="64" Velocity="100"/>
  </Event>
  <Event>
    <Delta>120</Delta>
    <NoteOn Channel="3" Note="64" Velocity="0"/>
  </Event>
  <Event>
    <Delta>0</Delta>
    <NoteOn Channel="3" Note="65" Velocity="0"/>
  </Event>
  <Event>
    <Delta>120</Delta>
    <NoteOn Channel="3" Note="55" Velocity="0"/>
  </Event>
  <Event>
    <Delta>0</Delta>
    <NoteOn Channel="3" Note="58" Velocity="0"/>
  </Event>
  <Event>
    <Delta>0</Delta>
    <NoteOn Channel="3" Note="48" Velocity="100"/>
  </Event>
  <Event>
    <Delta>120</Delta>
    <NoteOn Channel="3" Note="48" Velocity="0"/>
  </Event>
  <Event>
    <Delta>0</Delta>
    <NoteOn Channel="3" Note="65" Velocity="100"/>
  </Event>
  <Event>
    <Delta>0</Delta>
    <NoteOn Channel="3" Note="58" Velocity="100"/>
  </Event>
  <Event>
    <Delta>0</Delta>
    <NoteOn Channel="3" Note="55" Velocity="100"/>
  </Event>
  <Event>
    <Delta>120</Delta>
    <NoteOn Channel="3" Note="64" Velocity="100"/>
  </Event>
  <Event>
    <Delta>120</Delta>
    <NoteOn Channel="3" Note="64" Velocity="0"/>
  </Event>
  <Event>
    <Delta>0</Delta>
    <NoteOn Channel="3" Note="65" Velocity="0"/>
  </Event>
  <Event>
    <Delta>120</Delta>
    <NoteOn Channel="3" Note="55" Velocity="0"/>
  </Event>
  <Event>
    <Delta>0</Delta>
    <NoteOn Channel="3" Note="58" Velocity="0"/>
  </Event>
  <Event>
    <Delta>0</Delta>
    <NoteOn Channel="3" Note="48" Velocity="100"/>
  </Event>
  <Event>
    <Delta>120</Delta>
    <NoteOn Channel="3" Note="48" Velocity="0"/>
  </Event>
  <Event>
    <Delta>0</Delta>
    <NoteOn Channel="3" Note="53" Velocity="100"/>
  </Event>
  <Event>
    <Delta>0</Delta>
    <NoteOn Channel="3" Note="60" Velocity="100"/>
  </Event>
  <Event>
    <Delta>0</Delta>
    <NoteOn Channel="3" Note="64" Velocity="100"/>
  </Event>
  <Event>
    <Delta>240</Delta>
    <NoteOn Channel="3" Note="64" Velocity="0"/>
  </Event>
  <Event>
    <Delta>0</Delta>
    <NoteOn Channel="3" Note="60" Velocity="0"/>
  </Event>
  <Event>
    <Delta>0</Delta>
    <NoteOn Channel="3" Note="53" Velocity="0"/>
  </Event>
  <Event>
    <Delta>0</Delta>
    <NoteOn Channel="3" Note="55" Velocity="100"/>
  </Event>
  <Event>
    <Delta>0</Delta>
    <NoteOn Channel="3" Note="53" Velocity="100"/>
  </Event>
  <Event>
    <Delta>0</Delta>
    <NoteOn Channel="3" Note="58" Velocity="100"/>
  </Event>
  <Event>
    <Delta>240</Delta>
    <NoteOn Channel="3" Note="58" Velocity="0"/>
  </Event>
  <Event>
    <Delta>0</Delta>
    <NoteOn Channel="3" Note="53" Velocity="0"/>
  </Event>
  <Event>
    <Delta>0</Delta>
    <NoteOn Channel="3" Note="55" Velocity="0"/>
  </Event>
  <Event>
    <Delta>0</Delta>
    <NoteOn Channel="3" Note="53" Velocity="100"/>
  </Event>
  <Event>
    <Delta>0</Delta>
    <NoteOn Channel="3" Note="57" Velocity="100"/>
  </Event>
  <Event>
    <Delta>120</Delta>
    <NoteOn Channel="3" Note="64" Velocity="100"/>
  </Event>
  <Event>
    <Delta>120</Delta>
    <NoteOn Channel="3" Note="64" Velocity="0"/>
  </Event>
  <Event>
    <Delta>0</Delta>
    <NoteOn Channel="3" Note="64" Velocity="100"/>
  </Event>
  <Event>
    <Delta>60</Delta>
    <NoteOn Channel="3" Note="64" Velocity="0"/>
  </Event>
  <Event>
    <Delta>0</Delta>
    <NoteOn Channel="3" Note="62" Velocity="100"/>
  </Event>
  <Event>
    <Delta>180</Delta>
    <NoteOn Channel="3" Note="62" Velocity="0"/>
  </Event>
  <Event>
    <Delta>0</Delta>
    <NoteOn Channel="3" Note="57" Velocity="0"/>
  </Event>
  <Event>
    <Delta>0</Delta>
    <NoteOn Channel="3" Note="53" Velocity="0"/>
  </Event>
  <Event>
    <Delta>0</Delta>
    <NoteOn Channel="3" Note="56" Velocity="100"/>
  </Event>
  <Event>
    <Delta>0</Delta>
    <NoteOn Channel="3" Note="59" Velocity="100"/>
  </Event>
  <Event>
    <Delta>240</Delta>
    <NoteOn Channel="3" Note="59" Velocity="0"/>
  </Event>
  <Event>
    <Delta>0</Delta>
    <NoteOn Channel="3" Note="56" Velocity="0"/>
  </Event>
  <Event>
    <Delta>0</Delta>
    <NoteOn Channel="3" Note="49" Velocity="100"/>
  </Event>
  <Event>
    <Delta>120</Delta>
    <NoteOn Channel="3" Note="49" Velocity="0"/>
  </Event>
  <Event>
    <Delta>0</Delta>
    <NoteOn Channel="3" Note="59" Velocity="100"/>
  </Event>
  <Event>
    <Delta>120</Delta>
    <NoteOn Channel="3" Note="59" Velocity="0"/>
  </Event>
  <Event>
    <Delta>0</Delta>
    <NoteOn Channel="3" Note="56" Velocity="100"/>
  </Event>
  <Event>
    <Delta>0</Delta>
    <NoteOn Channel="3" Note="59" Velocity="100"/>
  </Event>
  <Event>
    <Delta>240</Delta>
    <NoteOn Channel="3" Note="59" Velocity="0"/>
  </Event>
  <Event>
    <Delta>0</Delta>
    <NoteOn Channel="3" Note="56" Velocity="0"/>
  </Event>
  <Event>
    <Delta>0</Delta>
    <NoteOn Channel="3" Note="49" Velocity="100"/>
  </Event>
  <Event>
    <Delta>120</Delta>
    <NoteOn Channel="3" Note="49" Velocity="0"/>
  </Event>
  <Event>
    <Delta>0</Delta>
    <NoteOn Channel="3" Note="59" Velocity="100"/>
  </Event>
  <Event>
    <Delta>120</Delta>
    <NoteOn Channel="3" Note="59" Velocity="0"/>
  </Event>
  <Event>
    <Delta>0</Delta>
    <NoteOn Channel="3" Note="56" Velocity="100"/>
  </Event>
  <Event>
    <Delta>0</Delta>
    <NoteOn Channel="3" Note="59" Velocity="100"/>
  </Event>
  <Event>
    <Delta>240</Delta>
    <NoteOn Channel="3" Note="59" Velocity="0"/>
  </Event>
  <Event>
    <Delta>0</Delta>
    <NoteOn Channel="3" Note="56" Velocity="0"/>
  </Event>
  <Event>
    <Delta>0</Delta>
    <NoteOn Channel="3" Note="50" Velocity="100"/>
  </Event>
  <Event>
    <Delta>120</Delta>
    <NoteOn Channel="3" Note="50" Velocity="0"/>
  </Event>
  <Event>
    <Delta>0</Delta>
    <NoteOn Channel="3" Note="59" Velocity="100"/>
  </Event>
  <Event>
    <Delta>120</Delta>
    <NoteOn Channel="3" Note="59" Velocity="0"/>
  </Event>
  <Event>
    <Delta>0</Delta>
    <NoteOn Channel="3" Note="57" Velocity="100"/>
  </Event>
  <Event>
    <Delta>0</Delta>
    <NoteOn Channel="3" Note="60" Velocity="100"/>
  </Event>
  <Event>
    <Delta>360</Delta>
    <NoteOn Channel="3" Note="60" Velocity="0"/>
  </Event>
  <Event>
    <Delta>0</Delta>
    <NoteOn Channel="3" Note="57" Velocity="0"/>
  </Event>
  <Event>
    <Delta>0</Delta>
    <NoteOn Channel="3" Note="45" Velocity="100"/>
  </Event>
  <Event>
    <Delta>120</Delta>
    <NoteOn Channel="3" Note="45" Velocity="0"/>
  </Event>
  <Event>
    <Delta>0</Delta>
    <NoteOn Channel="3" Note="54" Velocity="100"/>
  </Event>
  <Event>
    <Delta>0</Delta>
    <NoteOn Channel="3" Note="57" Velocity="100"/>
  </Event>
  <Event>
    <Delta>240</Delta>
    <NoteOn Channel="3" Note="54" Velocity="0"/>
  </Event>
  <Event>
    <Delta>0</Delta>
    <NoteOn Channel="3" Note="47" Velocity="100"/>
  </Event>
  <Event>
    <Delta>240</Delta>
    <NoteOn Channel="3" Note="47" Velocity="0"/>
  </Event>
  <Event>
    <Delta>0</Delta>
    <NoteOn Channel="3" Note="57" Velocity="0"/>
  </Event>
  <Event>
    <Delta>0</Delta>
    <NoteOn Channel="3" Note="52" Velocity="100"/>
  </Event>
  <Event>
    <Delta>0</Delta>
    <NoteOn Channel="3" Note="55" Velocity="100"/>
  </Event>
  <Event>
    <Delta>210</Delta>
    <NoteOn Channel="3" Note="52" Velocity="0"/>
  </Event>
  <Event>
    <Delta>0</Delta>
    <NoteOn Channel="3" Note="52" Velocity="100"/>
  </Event>
  <Event>
    <Delta>30</Delta>
    <NoteOn Channel="3" Note="52" Velocity="0"/>
  </Event>
  <Event>
    <Delta>0</Delta>
    <NoteOn Channel="3" Note="51" Velocity="100"/>
  </Event>
  <Event>
    <Delta>210</Delta>
    <NoteOn Channel="3" Note="51" Velocity="0"/>
  </Event>
  <Event>
    <Delta>0</Delta>
    <NoteOn Channel="3" Note="51" Velocity="100"/>
  </Event>
  <Event>
    <Delta>30</Delta>
    <NoteOn Channel="3" Note="51" Velocity="0"/>
  </Event>
  <Event>
    <Delta>0</Delta>
    <NoteOn Channel="3" Note="50" Velocity="100"/>
  </Event>
  <Event>
    <Delta>210</Delta>
    <NoteOn Channel="3" Note="50" Velocity="0"/>
  </Event>
  <Event>
    <Delta>0</Delta>
    <NoteOn Channel="3" Note="50" Velocity="100"/>
  </Event>
  <Event>
    <Delta>30</Delta>
    <NoteOn Channel="3" Note="50" Velocity="0"/>
  </Event>
  <Event>
    <Delta>0</Delta>
    <NoteOn Channel="3" Note="49" Velocity="100"/>
  </Event>
  <Event>
    <Delta>210</Delta>
    <NoteOn Channel="3" Note="49" Velocity="0"/>
  </Event>
  <Event>
    <Delta>0</Delta>
    <NoteOn Channel="3" Note="49" Velocity="100"/>
  </Event>
  <Event>
    <Delta>30</Delta>
    <NoteOn Channel="3" Note="49" Velocity="0"/>
  </Event>
  <Event>
    <Delta>0</Delta>
    <NoteOn Channel="3" Note="55" Velocity="0"/>
  </Event>
  <Event>
    <Delta>0</Delta>
    <NoteOn Channel="3" Note="48" Velocity="100"/>
  </Event>
  <Event>
    <Delta>0</Delta>
    <NoteOn Channel="3" Note="55" Velocity="100"/>
  </Event>
  <Event>
    <Delta>240</Delta>
    <NoteOn Channel="3" Note="55" Velocity="0"/>
  </Event>
  <Event>
    <Delta>0</Delta>
    <NoteOn Channel="3" Note="54" Velocity="100"/>
  </Event>
  <Event>
    <Delta>240</Delta>
    <NoteOn Channel="3" Note="54" Velocity="0"/>
  </Event>
  <Event>
    <Delta>0</Delta>
    <NoteOn Channel="3" Note="48" Velocity="0"/>
  </Event>
  <Event>
    <Delta>0</Delta>
    <NoteOn Channel="3" Note="48" Velocity="100"/>
  </Event>
  <Event>
    <Delta>0</Delta>
    <NoteOn Channel="3" Note="58" Velocity="100"/>
  </Event>
  <Event>
    <Delta>240</Delta>
    <NoteOn Channel="3" Note="58" Velocity="0"/>
  </Event>
  <Event>
    <Delta>0</Delta>
    <NoteOn Channel="3" Note="48" Velocity="0"/>
  </Event>
  <Event>
    <Delta>0</Delta>
    <NoteOn Channel="3" Note="57" Velocity="100"/>
  </Event>
  <Event>
    <Delta>0</Delta>
    <NoteOn Channel="3" Note="54" Velocity="100"/>
  </Event>
  <Event>
    <Delta>90</Delta>
    <NoteOn Channel="3" Note="54" Velocity="0"/>
  </Event>
  <Event>
    <Delta>0</Delta>
    <NoteOn Channel="3" Note="57" Velocity="0"/>
  </Event>
  <Event>
    <Delta>0</Delta>
    <NoteOn Channel="3" Note="47" Velocity="100"/>
  </Event>
  <Event>
    <Delta>30</Delta>
    <NoteOn Channel="3" Note="47" Velocity="0"/>
  </Event>
  <Event>
    <Delta>0</Delta>
    <NoteOn Channel="3" Note="49" Velocity="100"/>
  </Event>
  <Event>
    <Delta>30</Delta>
    <NoteOn Channel="3" Note="49" Velocity="0"/>
  </Event>
  <Event>
    <Delta>60</Delta>
    <NoteOn Channel="3" Note="51" Velocity="100"/>
  </Event>
  <Event>
    <Delta>30</Delta>
    <NoteOn Channel="3" Note="51" Velocity="0"/>
  </Event>
  <Event>
    <Delta>0</Delta>
    <NoteOn Channel="3" Note="52" Velocity="100"/>
  </Event>
  <Event>
    <Delta>0</Delta>
    <NoteOn Channel="3" Note="55" Velocity="100"/>
  </Event>
  <Event>
    <Delta>210</Delta>
    <NoteOn Channel="3" Note="52" Velocity="0"/>
  </Event>
  <Event>
    <Delta>0</Delta>
    <NoteOn Channel="3" Note="52" Velocity="100"/>
  </Event>
  <Event>
    <Delta>30</Delta>
    <NoteOn Channel="3" Note="52" Velocity="0"/>
  </Event>
  <Event>
    <Delta>0</Delta>
    <NoteOn Channel="3" Note="51" Velocity="100"/>
  </Event>
  <Event>
    <Delta>210</Delta>
    <NoteOn Channel="3" Note="51" Velocity="0"/>
  </Event>
  <Event>
    <Delta>0</Delta>
    <NoteOn Channel="3" Note="51" Velocity="100"/>
  </Event>
  <Event>
    <Delta>30</Delta>
    <NoteOn Channel="3" Note="51" Velocity="0"/>
  </Event>
  <Event>
    <Delta>0</Delta>
    <NoteOn Channel="3" Note="50" Velocity="100"/>
  </Event>
  <Event>
    <Delta>120</Delta>
    <NoteOn Channel="3" Note="50" Velocity="0"/>
  </Event>
  <Event>
    <Delta>0</Delta>
    <NoteOn Channel="3" Note="55" Velocity="0"/>
  </Event>
  <Event>
    <Delta>0</Delta>
    <NoteOn Channel="3" Note="50" Velocity="100"/>
  </Event>
  <Event>
    <Delta>0</Delta>
    <NoteOn Channel="3" Note="55" Velocity="100"/>
  </Event>
  <Event>
    <Delta>60</Delta>
    <NoteOn Channel="3" Note="55" Velocity="0"/>
  </Event>
  <Event>
    <Delta>0</Delta>
    <NoteOn Channel="3" Note="50" Velocity="0"/>
  </Event>
  <Event>
    <Delta>0</Delta>
    <NoteOn Channel="3" Note="49" Velocity="100"/>
  </Event>
  <Event>
    <Delta>0</Delta>
    <NoteOn Channel="3" Note="55" Velocity="100"/>
  </Event>
  <Event>
    <Delta>180</Delta>
    <NoteOn Channel="3" Note="55" Velocity="0"/>
  </Event>
  <Event>
    <Delta>0</Delta>
    <NoteOn Channel="3" Note="49" Velocity="0"/>
  </Event>
  <Event>
    <Delta>0</Delta>
    <NoteOn Channel="3" Note="55" Velocity="100"/>
  </Event>
  <Event>
    <Delta>0</Delta>
    <NoteOn Channel="3" Note="49" Velocity="100"/>
  </Event>
  <Event>
    <Delta>60</Delta>
    <NoteOn Channel="3" Note="49" Velocity="0"/>
  </Event>
  <Event>
    <Delta>0</Delta>
    <NoteOn Channel="3" Note="55" Velocity="0"/>
  </Event>
  <Event>
    <Delta>0</Delta>
    <NoteOn Channel="3" Note="48" Velocity="100"/>
  </Event>
  <Event>
    <Delta>60</Delta>
    <NoteOn Channel="3" Note="55" Velocity="100"/>
  </Event>
  <Event>
    <Delta>240</Delta>
    <NoteOn Channel="3" Note="55" Velocity="0"/>
  </Event>
  <Event>
    <Delta>0</Delta>
    <NoteOn Channel="3" Note="48" Velocity="0"/>
  </Event>
  <Event>
    <Delta>0</Delta>
    <NoteOn Channel="3" Note="47" Velocity="100"/>
  </Event>
  <Event>
    <Delta>0</Delta>
    <NoteOn Channel="3" Note="54" Velocity="100"/>
  </Event>
  <Event>
    <Delta>240</Delta>
    <NoteOn Channel="3" Note="54" Velocity="0"/>
  </Event>
  <Event>
    <Delta>0</Delta>
    <NoteOn Channel="3" Note="47" Velocity="0"/>
  </Event>
  <Event>
    <Delta>0</Delta>
    <NoteOn Channel="3" Note="52" Velocity="100"/>
  </Event>
  <Event>
    <Delta>0</Delta>
    <NoteOn Channel="3" Note="55" Velocity="100"/>
  </Event>
  <Event>
    <Delta>120</Delta>
    <NoteOn Channel="3" Note="55" Velocity="0"/>
  </Event>
  <Event>
    <Delta>0</Delta>
    <NoteOn Channel="3" Note="52" Velocity="0"/>
  </Event>
  <Event>
    <Delta>0</Delta>
    <NoteOn Channel="3" Note="54" Velocity="100"/>
  </Event>
  <Event>
    <Delta>0</Delta>
    <NoteOn Channel="3" Note="57" Velocity="100"/>
  </Event>
  <Event>
    <Delta>0</Delta>
    <NoteOn Channel="3" Note="59" Velocity="100"/>
  </Event>
  <Event>
    <Delta>60</Delta>
    <NoteOn Channel="3" Note="59" Velocity="0"/>
  </Event>
  <Event>
    <Delta>0</Delta>
    <NoteOn Channel="3" Note="57" Velocity="0"/>
  </Event>
  <Event>
    <Delta>0</Delta>
    <NoteOn Channel="3" Note="54" Velocity="0"/>
  </Event>
  <Event>
    <Delta>0</Delta>
    <NoteOn Channel="3" Note="52" Velocity="100"/>
  </Event>
  <Event>
    <Delta>0</Delta>
    <NoteOn Channel="3" Note="55" Velocity="100"/>
  </Event>
  <Event>
    <Delta>0</Delta>
    <NoteOn Channel="3" Note="59" Velocity="100"/>
  </Event>
  <Event>
    <Delta>180</Delta>
    <NoteOn Channel="3" Note="59" Velocity="0"/>
  </Event>
  <Event>
    <Delta>0</Delta>
    <NoteOn Channel="3" Note="55" Velocity="0"/>
  </Event>
  <Event>
    <Delta>0</Delta>
    <NoteOn Channel="3" Note="52" Velocity="0"/>
  </Event>
  <Event>
    <Delta>0</Delta>
    <NoteOn Channel="3" Note="40" Velocity="100"/>
  </Event>
  <Event>
    <Delta>120</Delta>
    <NoteOn Channel="3" Note="40" Velocity="0"/>
  </Event>
  <Event>
    <Delta>0</Delta>
    <NoteOn Channel="3" Note="57" Velocity="100"/>
  </Event>
  <Event>
    <Delta>0</Delta>
    <NoteOn Channel="3" Note="64" Velocity="100"/>
  </Event>
  <Event>
    <Delta>180</Delta>
    <NoteOn Channel="3" Note="57" Velocity="0"/>
  </Event>
  <Event>
    <Delta>0</Delta>
    <NoteOn Channel="3" Note="57" Velocity="100"/>
  </Event>
  <Event>
    <Delta>60</Delta>
    <NoteOn Channel="3" Note="57" Velocity="0"/>
  </Event>
  <Event>
    <Delta>0</Delta>
    <NoteOn Channel="3" Note="56" Velocity="100"/>
  </Event>
  <Event>
    <Delta>180</Delta>
    <NoteOn Channel="3" Note="56" Velocity="0"/>
  </Event>
  <Event>
    <Delta>0</Delta>
    <NoteOn Channel="3" Note="56" Velocity="100"/>
  </Event>
  <Event>
    <Delta>60</Delta>
    <NoteOn Channel="3" Note="56" Velocity="0"/>
  </Event>
  <Event>
    <Delta>0</Delta>
    <NoteOn Channel="3" Note="55" Velocity="100"/>
  </Event>
  <Event>
    <Delta>180</Delta>
    <NoteOn Channel="3" Note="55" Velocity="0"/>
  </Event>
  <Event>
    <Delta>0</Delta>
    <NoteOn Channel="3" Note="55" Velocity="100"/>
  </Event>
  <Event>
    <Delta>60</Delta>
    <NoteOn Channel="3" Note="55" Velocity="0"/>
  </Event>
  <Event>
    <Delta>0</Delta>
    <NoteOn Channel="3" Note="54" Velocity="100"/>
  </Event>
  <Event>
    <Delta>180</Delta>
    <NoteOn Channel="3" Note="54" Velocity="0"/>
  </Event>
  <Event>
    <Delta>0</Delta>
    <NoteOn Channel="3" Note="54" Velocity="100"/>
  </Event>
  <Event>
    <Delta>60</Delta>
    <NoteOn Channel="3" Note="54" Velocity="0"/>
  </Event>
  <Event>
    <Delta>0</Delta>
    <NoteOn Channel="3" Note="64" Velocity="0"/>
  </Event>
  <Event>
    <Delta>0</Delta>
    <NoteOn Channel="3" Note="55" Velocity="100"/>
  </Event>
  <Event>
    <Delta>0</Delta>
    <NoteOn Channel="3" Note="62" Velocity="100"/>
  </Event>
  <Event>
    <Delta>120</Delta>
    <NoteOn Channel="3" Note="59" Velocity="100"/>
  </Event>
  <Event>
    <Delta>60</Delta>
    <NoteOn Channel="3" Note="62" Velocity="0"/>
  </Event>
  <Event>
    <Delta>0</Delta>
    <NoteOn Channel="3" Note="55" Velocity="0"/>
  </Event>
  <Event>
    <Delta>30</Delta>
    <NoteOn Channel="3" Note="59" Velocity="0"/>
  </Event>
  <Event>
    <Delta>30</Delta>
    <NoteOn Channel="3" Note="59" Velocity="100"/>
  </Event>
  <Event>
    <Delta>90</Delta>
    <NoteOn Channel="3" Note="59" Velocity="0"/>
  </Event>
  <Event>
    <Delta>0</Delta>
    <NoteOn Channel="3" Note="50" Velocity="100"/>
  </Event>
  <Event>
    <Delta>30</Delta>
    <NoteOn Channel="3" Note="50" Velocity="0"/>
  </Event>
  <Event>
    <Delta>0</Delta>
    <NoteOn Channel="3" Note="52" Velocity="100"/>
  </Event>
  <Event>
    <Delta>90</Delta>
    <NoteOn Channel="3" Note="52" Velocity="0"/>
  </Event>
  <Event>
    <Delta>0</Delta>
    <NoteOn Channel="3" Note="54" Velocity="100"/>
  </Event>
  <Event>
    <Delta>30</Delta>
    <NoteOn Channel="3" Note="54" Velocity="0"/>
  </Event>
  <Event>
    <Delta>0</Delta>
    <NoteOn Channel="3" Note="55" Velocity="100"/>
  </Event>
  <Event>
    <Delta>120</Delta>
    <NoteOn Channel="3" Note="55" Velocity="0"/>
  </Event>
  <Event>
    <Delta>0</Delta>
    <NoteOn Channel="3" Note="57" Velocity="100"/>
  </Event>
  <Event>
    <Delta>60</Delta>
    <NoteOn Channel="3" Note="57" Velocity="0"/>
  </Event>
  <Event>
    <Delta>0</Delta>
    <NoteOn Channel="3" Note="59" Velocity="100"/>
  </Event>
  <Event>
    <Delta>180</Delta>
    <NoteOn Channel="3" Note="59" Velocity="0"/>
  </Event>
  <Event>
    <Delta>0</Delta>
    <NoteOn Channel="3" Note="51" Velocity="100"/>
  </Event>
  <Event>
    <Delta>60</Delta>
    <NoteOn Channel="3" Note="51" Velocity="0"/>
  </Event>
  <Event>
    <Delta>0</Delta>
    <NoteOn Channel="3" Note="52" Velocity="100"/>
  </Event>
  <Event>
    <Delta>60</Delta>
    <NoteOn Channel="3" Note="52" Velocity="0"/>
  </Event>
  <Event>
    <Delta>0</Delta>
    <NoteOn Channel="3" Note="54" Velocity="100"/>
  </Event>
  <Event>
    <Delta>60</Delta>
    <NoteOn Channel="3" Note="54" Velocity="0"/>
  </Event>
  <Event>
    <Delta>0</Delta>
    <NoteOn Channel="3" Note="51" Velocity="100"/>
  </Event>
  <Event>
    <Delta>60</Delta>
    <NoteOn Channel="3" Note="51" Velocity="0"/>
  </Event>
  <Event>
    <Delta>0</Delta>
    <NoteOn Channel="3" Note="52" Velocity="100"/>
  </Event>
  <Event>
    <Delta>60</Delta>
    <NoteOn Channel="3" Note="52" Velocity="0"/>
  </Event>
  <Event>
    <Delta>0</Delta>
    <NoteOn Channel="3" Note="54" Velocity="100"/>
  </Event>
  <Event>
    <Delta>120</Delta>
    <NoteOn Channel="3" Note="47" Velocity="100"/>
  </Event>
  <Event>
    <Delta>20</Delta>
    <NoteOn Channel="3" Note="54" Velocity="0"/>
  </Event>
  <Event>
    <Delta>40</Delta>
    <NoteOn Channel="3" Note="47" Velocity="0"/>
  </Event>
  <Event>
    <Delta>0</Delta>
    <NoteOn Channel="3" Note="51" Velocity="100"/>
  </Event>
  <Event>
    <Delta>60</Delta>
    <NoteOn Channel="3" Note="51" Velocity="0"/>
  </Event>
  <Event>
    <Delta>0</Delta>
    <NoteOn Channel="3" Note="52" Velocity="100"/>
  </Event>
  <Event>
    <Delta>60</Delta>
    <NoteOn Channel="3" Note="52" Velocity="0"/>
  </Event>
  <Event>
    <Delta>0</Delta>
    <NoteOn Channel="3" Note="54" Velocity="100"/>
  </Event>
  <Event>
    <Delta>60</Delta>
    <NoteOn Channel="3" Note="54" Velocity="0"/>
  </Event>
  <Event>
    <Delta>0</Delta>
    <NoteOn Channel="3" Note="51" Velocity="100"/>
  </Event>
  <Event>
    <Delta>60</Delta>
    <NoteOn Channel="3" Note="51" Velocity="0"/>
  </Event>
  <Event>
    <Delta>0</Delta>
    <NoteOn Channel="3" Note="52" Velocity="100"/>
  </Event>
  <Event>
    <Delta>60</Delta>
    <NoteOn Channel="3" Note="52" Velocity="0"/>
  </Event>
  <Event>
    <Delta>0</Delta>
    <NoteOn Channel="3" Note="54" Velocity="100"/>
  </Event>
  <Event>
    <Delta>180</Delta>
    <NoteOn Channel="3" Note="54" Velocity="0"/>
  </Event>
  <Event>
    <Delta>0</Delta>
    <NoteOn Channel="3" Note="47" Velocity="100"/>
  </Event>
  <Event>
    <Delta>120</Delta>
    <NoteOn Channel="3" Note="47" Velocity="0"/>
  </Event>
  <Event>
    <Delta>0</Delta>
    <NoteOn Channel="3" Note="52" Velocity="100"/>
  </Event>
  <Event>
    <Delta>0</Delta>
    <NoteOn Channel="3" Note="59" Velocity="100"/>
  </Event>
  <Event>
    <Delta>120</Delta>
    <NoteOn Channel="3" Note="59" Velocity="0"/>
  </Event>
  <Event>
    <Delta>0</Delta>
    <NoteOn Channel="3" Note="52" Velocity="0"/>
  </Event>
  <Event>
    <Delta>0</Delta>
    <NoteOn Channel="3" Note="57" Velocity="100"/>
  </Event>
  <Event>
    <Delta>0</Delta>
    <NoteOn Channel="3" Note="60" Velocity="100"/>
  </Event>
  <Event>
    <Delta>60</Delta>
    <NoteOn Channel="3" Note="60" Velocity="0"/>
  </Event>
  <Event>
    <Delta>0</Delta>
    <NoteOn Channel="3" Note="57" Velocity="0"/>
  </Event>
  <Event>
    <Delta>0</Delta>
    <NoteOn Channel="3" Note="54" Velocity="100"/>
  </Event>
  <Event>
    <Delta>0</Delta>
    <NoteOn Channel="3" Note="59" Velocity="100"/>
  </Event>
  <Event>
    <Delta>180</Delta>
    <NoteOn Channel="3" Note="59" Velocity="0"/>
  </Event>
  <Event>
    <Delta>0</Delta>
    <NoteOn Channel="3" Note="54" Velocity="0"/>
  </Event>
  <Event>
    <Delta>0</Delta>
    <NoteOn Channel="3" Note="47" Velocity="100"/>
  </Event>
  <Event>
    <Delta>120</Delta>
    <NoteOn Channel="3" Note="47" Velocity="0"/>
  </Event>
  <Event>
    <Delta>0</Delta>
    <NoteOn Channel="3" Note="48" Velocity="100"/>
  </Event>
  <Event>
    <Delta>180</Delta>
    <NoteOn Channel="3" Note="48" Velocity="0"/>
  </Event>
  <Event>
    <Delta>0</Delta>
    <NoteOn Channel="3" Note="59" Velocity="100"/>
  </Event>
  <Event>
    <Delta>140</Delta>
    <NoteOn Channel="3" Note="59" Velocity="0"/>
  </Event>
  <Event>
    <Delta>10</Delta>
    <NoteOn Channel="3" Note="57" Velocity="100"/>
  </Event>
  <Event>
    <Delta>30</Delta>
    <NoteOn Channel="3" Note="57" Velocity="0"/>
  </Event>
  <Event>
    <Delta>0</Delta>
    <NoteOn Channel="3" Note="54" Velocity="100"/>
  </Event>
  <Event>
    <Delta>90</Delta>
    <NoteOn Channel="3" Note="54" Velocity="0"/>
  </Event>
  <Event>
    <Delta>0</Delta>
    <NoteOn Channel="3" Note="51" Velocity="100"/>
  </Event>
  <Event>
    <Delta>30</Delta>
    <NoteOn Channel="3" Note="51" Velocity="0"/>
  </Event>
  <Event>
    <Delta>0</Delta>
    <NoteOn Channel="3" Note="52" Velocity="100"/>
  </Event>
  <Event>
    <Delta>0</Delta>
    <NoteOn Channel="3" Note="55" Velocity="100"/>
  </Event>
  <Event>
    <Delta>210</Delta>
    <NoteOn Channel="3" Note="52" Velocity="0"/>
  </Event>
  <Event>
    <Delta>0</Delta>
    <NoteOn Channel="3" Note="52" Velocity="100"/>
  </Event>
  <Event>
    <Delta>30</Delta>
    <NoteOn Channel="3" Note="52" Velocity="0"/>
  </Event>
  <Event>
    <Delta>0</Delta>
    <NoteOn Channel="3" Note="51" Velocity="100"/>
  </Event>
  <Event>
    <Delta>210</Delta>
    <NoteOn Channel="3" Note="51" Velocity="0"/>
  </Event>
  <Event>
    <Delta>0</Delta>
    <NoteOn Channel="3" Note="51" Velocity="100"/>
  </Event>
  <Event>
    <Delta>30</Delta>
    <NoteOn Channel="3" Note="51" Velocity="0"/>
  </Event>
  <Event>
    <Delta>0</Delta>
    <NoteOn Channel="3" Note="50" Velocity="100"/>
  </Event>
  <Event>
    <Delta>210</Delta>
    <NoteOn Channel="3" Note="50" Velocity="0"/>
  </Event>
  <Event>
    <Delta>0</Delta>
    <NoteOn Channel="3" Note="50" Velocity="100"/>
  </Event>
  <Event>
    <Delta>30</Delta>
    <NoteOn Channel="3" Note="50" Velocity="0"/>
  </Event>
  <Event>
    <Delta>0</Delta>
    <NoteOn Channel="3" Note="49" Velocity="100"/>
  </Event>
  <Event>
    <Delta>210</Delta>
    <NoteOn Channel="3" Note="49" Velocity="0"/>
  </Event>
  <Event>
    <Delta>0</Delta>
    <NoteOn Channel="3" Note="49" Velocity="100"/>
  </Event>
  <Event>
    <Delta>30</Delta>
    <NoteOn Channel="3" Note="49" Velocity="0"/>
  </Event>
  <Event>
    <Delta>0</Delta>
    <NoteOn Channel="3" Note="55" Velocity="0"/>
  </Event>
  <Event>
    <Delta>0</Delta>
    <NoteOn Channel="3" Note="48" Velocity="100"/>
  </Event>
  <Event>
    <Delta>0</Delta>
    <NoteOn Channel="3" Note="55" Velocity="100"/>
  </Event>
  <Event>
    <Delta>240</Delta>
    <NoteOn Channel="3" Note="55" Velocity="0"/>
  </Event>
  <Event>
    <Delta>0</Delta>
    <NoteOn Channel="3" Note="54" Velocity="100"/>
  </Event>
  <Event>
    <Delta>240</Delta>
    <NoteOn Channel="3" Note="54" Velocity="0"/>
  </Event>
  <Event>
    <Delta>0</Delta>
    <NoteOn Channel="3" Note="48" Velocity="0"/>
  </Event>
  <Event>
    <Delta>0</Delta>
    <NoteOn Channel="3" Note="48" Velocity="100"/>
  </Event>
  <Event>
    <Delta>0</Delta>
    <NoteOn Channel="3" Note="58" Velocity="100"/>
  </Event>
  <Event>
    <Delta>240</Delta>
    <NoteOn Channel="3" Note="58" Velocity="0"/>
  </Event>
  <Event>
    <Delta>0</Delta>
    <NoteOn Channel="3" Note="48" Velocity="0"/>
  </Event>
  <Event>
    <Delta>0</Delta>
    <NoteOn Channel="3" Note="54" Velocity="100"/>
  </Event>
  <Event>
    <Delta>0</Delta>
    <NoteOn Channel="3" Note="57" Velocity="100"/>
  </Event>
  <Event>
    <Delta>90</Delta>
    <NoteOn Channel="3" Note="57" Velocity="0"/>
  </Event>
  <Event>
    <Delta>0</Delta>
    <NoteOn Channel="3" Note="54" Velocity="0"/>
  </Event>
  <Event>
    <Delta>0</Delta>
    <NoteOn Channel="3" Note="47" Velocity="100"/>
  </Event>
  <Event>
    <Delta>30</Delta>
    <NoteOn Channel="3" Note="47" Velocity="0"/>
  </Event>
  <Event>
    <Delta>0</Delta>
    <NoteOn Channel="3" Note="49" Velocity="100"/>
  </Event>
  <Event>
    <Delta>90</Delta>
    <NoteOn Channel="3" Note="49" Velocity="0"/>
  </Event>
  <Event>
    <Delta>0</Delta>
    <NoteOn Channel="3" Note="51" Velocity="100"/>
  </Event>
  <Event>
    <Delta>30</Delta>
    <NoteOn Channel="3" Note="51" Velocity="0"/>
  </Event>
  <Event>
    <Delta>0</Delta>
    <NoteOn Channel="3" Note="52" Velocity="100"/>
  </Event>
  <Event>
    <Delta>0</Delta>
    <NoteOn Channel="3" Note="55" Velocity="100"/>
  </Event>
  <Event>
    <Delta>210</Delta>
    <NoteOn Channel="3" Note="52" Velocity="0"/>
  </Event>
  <Event>
    <Delta>0</Delta>
    <NoteOn Channel="3" Note="52" Velocity="100"/>
  </Event>
  <Event>
    <Delta>30</Delta>
    <NoteOn Channel="3" Note="52" Velocity="0"/>
  </Event>
  <Event>
    <Delta>0</Delta>
    <NoteOn Channel="3" Note="51" Velocity="100"/>
  </Event>
  <Event>
    <Delta>210</Delta>
    <NoteOn Channel="3" Note="51" Velocity="0"/>
  </Event>
  <Event>
    <Delta>0</Delta>
    <NoteOn Channel="3" Note="51" Velocity="100"/>
  </Event>
  <Event>
    <Delta>30</Delta>
    <NoteOn Channel="3" Note="51" Velocity="0"/>
  </Event>
  <Event>
    <Delta>0</Delta>
    <NoteOn Channel="3" Note="55" Velocity="0"/>
  </Event>
  <Event>
    <Delta>0</Delta>
    <NoteOn Channel="3" Note="50" Velocity="100"/>
  </Event>
  <Event>
    <Delta>0</Delta>
    <NoteOn Channel="3" Note="55" Velocity="100"/>
  </Event>
  <Event>
    <Delta>120</Delta>
    <NoteOn Channel="3" Note="55" Velocity="0"/>
  </Event>
  <Event>
    <Delta>0</Delta>
    <NoteOn Channel="3" Note="50" Velocity="0"/>
  </Event>
  <Event>
    <Delta>0</Delta>
    <NoteOn Channel="3" Note="50" Velocity="100"/>
  </Event>
  <Event>
    <Delta>0</Delta>
    <NoteOn Channel="3" Note="55" Velocity="100"/>
  </Event>
  <Event>
    <Delta>60</Delta>
    <NoteOn Channel="3" Note="55" Velocity="0"/>
  </Event>
  <Event>
    <Delta>0</Delta>
    <NoteOn Channel="3" Note="50" Velocity="0"/>
  </Event>
  <Event>
    <Delta>0</Delta>
    <NoteOn Channel="3" Note="49" Velocity="100"/>
  </Event>
  <Event>
    <Delta>0</Delta>
    <NoteOn Channel="3" Note="55" Velocity="100"/>
  </Event>
  <Event>
    <Delta>180</Delta>
    <NoteOn Channel="3" Note="55" Velocity="0"/>
  </Event>
  <Event>
    <Delta>0</Delta>
    <NoteOn Channel="3" Note="49" Velocity="0"/>
  </Event>
  <Event>
    <Delta>0</Delta>
    <NoteOn Channel="3" Note="49" Velocity="100"/>
  </Event>
  <Event>
    <Delta>0</Delta>
    <NoteOn Channel="3" Note="55" Velocity="100"/>
  </Event>
  <Event>
    <Delta>60</Delta>
    <NoteOn Channel="3" Note="55" Velocity="0"/>
  </Event>
  <Event>
    <Delta>0</Delta>
    <NoteOn Channel="3" Note="49" Velocity="0"/>
  </Event>
  <Event>
    <Delta>0</Delta>
    <NoteOn Channel="3" Note="48" Velocity="100"/>
  </Event>
  <Event>
    <Delta>0</Delta>
    <NoteOn Channel="3" Note="55" Velocity="100"/>
  </Event>
  <Event>
    <Delta>420</Delta>
    <NoteOn Channel="3" Note="55" Velocity="0"/>
  </Event>
  <Event>
    <Delta>0</Delta>
    <NoteOn Channel="3" Note="48" Velocity="0"/>
  </Event>
  <Event>
    <Delta>0</Delta>
    <NoteOn Channel="3" Note="47" Velocity="100"/>
  </Event>
  <Event>
    <Delta>120</Delta>
    <NoteOn Channel="3" Note="47" Velocity="0"/>
  </Event>
  <Event>
    <Delta>0</Delta>
    <NoteOn Channel="3" Note="52" Velocity="100"/>
  </Event>
  <Event>
    <Delta>0</Delta>
    <NoteOn Channel="3" Note="55" Velocity="100"/>
  </Event>
  <Event>
    <Delta>120</Delta>
    <NoteOn Channel="3" Note="55" Velocity="0"/>
  </Event>
  <Event>
    <Delta>0</Delta>
    <NoteOn Channel="3" Note="52" Velocity="0"/>
  </Event>
  <Event>
    <Delta>0</Delta>
    <NoteOn Channel="3" Note="54" Velocity="100"/>
  </Event>
  <Event>
    <Delta>0</Delta>
    <NoteOn Channel="3" Note="57" Velocity="100"/>
  </Event>
  <Event>
    <Delta>0</Delta>
    <NoteOn Channel="3" Note="59" Velocity="100"/>
  </Event>
  <Event>
    <Delta>60</Delta>
    <NoteOn Channel="3" Note="59" Velocity="0"/>
  </Event>
  <Event>
    <Delta>0</Delta>
    <NoteOn Channel="3" Note="57" Velocity="0"/>
  </Event>
  <Event>
    <Delta>0</Delta>
    <NoteOn Channel="3" Note="54" Velocity="0"/>
  </Event>
  <Event>
    <Delta>0</Delta>
    <NoteOn Channel="3" Note="52" Velocity="100"/>
  </Event>
  <Event>
    <Delta>0</Delta>
    <NoteOn Channel="3" Note="55" Velocity="100"/>
  </Event>
  <Event>
    <Delta>0</Delta>
    <NoteOn Channel="3" Note="59" Velocity="100"/>
  </Event>
  <Event>
    <Delta>180</Delta>
    <NoteOn Channel="3" Note="59" Velocity="0"/>
  </Event>
  <Event>
    <Delta>0</Delta>
    <NoteOn Channel="3" Note="55" Velocity="0"/>
  </Event>
  <Event>
    <Delta>0</Delta>
    <NoteOn Channel="3" Note="52" Velocity="0"/>
  </Event>
  <Event>
    <Delta>0</Delta>
    <NoteOn Channel="3" Note="40" Velocity="100"/>
  </Event>
  <Event>
    <Delta>120</Delta>
    <NoteOn Channel="3" Note="40" Velocity="0"/>
  </Event>
  <Event>
    <Delta>0</Delta>
    <EndOfTrack/>
  </Event>
</Track>
<Track Number="4">
  <Event>
    <Delta>0</Delta>
    <MIDIChannelPrefix Value="00"/>
  </Event>
  <Event>
    <Delta>0</Delta>
    <ProgramChange Channel="4" Number="97"/>
  </Event>
  <Event>
    <Delta>0</Delta>
    <ControlChange Channel="4" Control="7" Value="100"/>
  </Event>
  <Event>
    <Delta>0</Delta>
    <ControlChange Channel="4" Control="10" Value="30"/>
  </Event>
  <Event>
    <Delta>0</Delta>
    <ControlChange Channel="4" Control="93" Value="127"/>
  </Event>
  <Event>
    <Delta>0</Delta>
    <ControlChange Channel="4" Control="91" Value="127"/>
  </Event>
  <Event>
    <Delta>0</Delta>
    <NoteOn Channel="4" Note="59" Velocity="100"/>
  </Event>
  <Event>
    <Delta>90</Delta>
    <NoteOn Channel="4" Note="59" Velocity="0"/>
  </Event>
  <Event>
    <Delta>0</Delta>
    <NoteOn Channel="4" Note="64" Velocity="100"/>
  </Event>
  <Event>
    <Delta>30</Delta>
    <NoteOn Channel="4" Note="64" Velocity="0"/>
  </Event>
  <Event>
    <Delta>0</Delta>
    <NoteOn Channel="4" Note="67" Velocity="100"/>
  </Event>
  <Event>
    <Delta>90</Delta>
    <NoteOn Channel="4" Note="67" Velocity="0"/>
  </Event>
  <Event>
    <Delta>0</Delta>
    <NoteOn Channel="4" Note="71" Velocity="100"/>
  </Event>
  <Event>
    <Delta>30</Delta>
    <NoteOn Channel="4" Note="71" Velocity="0"/>
  </Event>
  <Event>
    <Delta>0</Delta>
    <NoteOn Channel="4" Note="69" Velocity="100"/>
  </Event>
  <Event>
    <Delta>90</Delta>
    <NoteOn Channel="4" Note="69" Velocity="0"/>
  </Event>
  <Event>
    <Delta>0</Delta>
    <NoteOn Channel="4" Note="71" Velocity="100"/>
  </Event>
  <Event>
    <Delta>30</Delta>
    <NoteOn Channel="4" Note="71" Velocity="0"/>
  </Event>
  <Event>
    <Delta>0</Delta>
    <NoteOn Channel="4" Note="69" Velocity="100"/>
  </Event>
  <Event>
    <Delta>90</Delta>
    <NoteOn Channel="4" Note="69" Velocity="0"/>
  </Event>
  <Event>
    <Delta>0</Delta>
    <NoteOn Channel="4" Note="67" Velocity="100"/>
  </Event>
  <Event>
    <Delta>30</Delta>
    <NoteOn Channel="4" Note="67" Velocity="0"/>
  </Event>
  <Event>
    <Delta>0</Delta>
    <NoteOn Channel="4" Note="71" Velocity="100"/>
  </Event>
  <Event>
    <Delta>240</Delta>
    <NoteOn Channel="4" Note="71" Velocity="0"/>
  </Event>
  <Event>
    <Delta>60</Delta>
    <NoteOn Channel="4" Note="59" Velocity="100"/>
  </Event>
  <Event>
    <Delta>30</Delta>
    <NoteOn Channel="4" Note="59" Velocity="0"/>
  </Event>
  <Event>
    <Delta>30</Delta>
    <NoteOn Channel="4" Note="64" Velocity="100"/>
  </Event>
  <Event>
    <Delta>90</Delta>
    <NoteOn Channel="4" Note="64" Velocity="0"/>
  </Event>
  <Event>
    <Delta>0</Delta>
    <NoteOn Channel="4" Note="67" Velocity="100"/>
  </Event>
  <Event>
    <Delta>30</Delta>
    <NoteOn Channel="4" Note="67" Velocity="0"/>
  </Event>
  <Event>
    <Delta>0</Delta>
    <NoteOn Channel="4" Note="64" Velocity="100"/>
  </Event>
  <Event>
    <Delta>0</Delta>
    <NoteOn Channel="4" Note="71" Velocity="100"/>
  </Event>
  <Event>
    <Delta>90</Delta>
    <NoteOn Channel="4" Note="71" Velocity="0"/>
  </Event>
  <Event>
    <Delta>0</Delta>
    <NoteOn Channel="4" Note="67" Velocity="100"/>
  </Event>
  <Event>
    <Delta>30</Delta>
    <NoteOn Channel="4" Note="67" Velocity="0"/>
  </Event>
  <Event>
    <Delta>0</Delta>
    <NoteOn Channel="4" Note="69" Velocity="100"/>
  </Event>
  <Event>
    <Delta>90</Delta>
    <NoteOn Channel="4" Note="69" Velocity="0"/>
  </Event>
  <Event>
    <Delta>0</Delta>
    <NoteOn Channel="4" Note="71" Velocity="100"/>
  </Event>
  <Event>
    <Delta>30</Delta>
    <NoteOn Channel="4" Note="71" Velocity="0"/>
  </Event>
  <Event>
    <Delta>0</Delta>
    <NoteOn Channel="4" Note="69" Velocity="100"/>
  </Event>
  <Event>
    <Delta>120</Delta>
    <NoteOn Channel="4" Note="69" Velocity="0"/>
  </Event>
  <Event>
    <Delta>0</Delta>
    <NoteOn Channel="4" Note="64" Velocity="0"/>
  </Event>
  <Event>
    <Delta>60</Delta>
    <NoteOn Channel="4" Note="64" Velocity="100"/>
  </Event>
  <Event>
    <Delta>60</Delta>
    <NoteOn Channel="4" Note="64" Velocity="0"/>
  </Event>
  <Event>
    <Delta>0</Delta>
    <NoteOn Channel="4" Note="67" Velocity="100"/>
  </Event>
  <Event>
    <Delta>90</Delta>
    <NoteOn Channel="4" Note="67" Velocity="0"/>
  </Event>
  <Event>
    <Delta>0</Delta>
    <NoteOn Channel="4" Note="66" Velocity="100"/>
  </Event>
  <Event>
    <Delta>30</Delta>
    <NoteOn Channel="4" Note="66" Velocity="0"/>
  </Event>
  <Event>
    <Delta>0</Delta>
    <NoteOn Channel="4" Note="64" Velocity="100"/>
  </Event>
  <Event>
    <Delta>60</Delta>
    <NoteOn Channel="4" Note="64" Velocity="0"/>
  </Event>
  <Event>
    <Delta>0</Delta>
    <NoteOn Channel="4" Note="66" Velocity="100"/>
  </Event>
  <Event>
    <Delta>180</Delta>
    <NoteOn Channel="4" Note="66" Velocity="0"/>
  </Event>
  <Event>
    <Delta>120</Delta>
    <NoteOn Channel="4" Note="59" Velocity="100"/>
  </Event>
  <Event>
    <Delta>45</Delta>
    <NoteOn Channel="4" Note="59" Velocity="0"/>
  </Event>
  <Event>
    <Delta>45</Delta>
    <NoteOn Channel="4" Note="64" Velocity="100"/>
  </Event>
  <Event>
    <Delta>30</Delta>
    <NoteOn Channel="4" Note="64" Velocity="0"/>
  </Event>
  <Event>
    <Delta>0</Delta>
    <NoteOn Channel="4" Note="67" Velocity="100"/>
  </Event>
  <Event>
    <Delta>90</Delta>
    <NoteOn Channel="4" Note="67" Velocity="0"/>
  </Event>
  <Event>
    <Delta>0</Delta>
    <NoteOn Channel="4" Note="71" Velocity="100"/>
  </Event>
  <Event>
    <Delta>30</Delta>
    <NoteOn Channel="4" Note="71" Velocity="0"/>
  </Event>
  <Event>
    <Delta>0</Delta>
    <NoteOn Channel="4" Note="69" Velocity="100"/>
  </Event>
  <Event>
    <Delta>40</Delta>
    <NoteOn Channel="4" Note="69" Velocity="0"/>
  </Event>
  <Event>
    <Delta>0</Delta>
    <NoteOn Channel="4" Note="71" Velocity="100"/>
  </Event>
  <Event>
    <Delta>40</Delta>
    <NoteOn Channel="4" Note="71" Velocity="0"/>
  </Event>
  <Event>
    <Delta>0</Delta>
    <NoteOn Channel="4" Note="69" Velocity="100"/>
  </Event>
  <Event>
    <Delta>40</Delta>
    <NoteOn Channel="4" Note="69" Velocity="0"/>
  </Event>
  <Event>
    <Delta>0</Delta>
    <NoteOn Channel="4" Note="67" Velocity="100"/>
  </Event>
  <Event>
    <Delta>90</Delta>
    <NoteOn Channel="4" Note="67" Velocity="0"/>
  </Event>
  <Event>
    <Delta>0</Delta>
    <NoteOn Channel="4" Note="69" Velocity="100"/>
  </Event>
  <Event>
    <Delta>30</Delta>
    <NoteOn Channel="4" Note="69" Velocity="0"/>
  </Event>
  <Event>
    <Delta>0</Delta>
    <NoteOn Channel="4" Note="71" Velocity="100"/>
  </Event>
  <Event>
    <Delta>120</Delta>
    <NoteOn Channel="4" Note="71" Velocity="0"/>
  </Event>
  <Event>
    <Delta>0</Delta>
    <NoteOn Channel="4" Note="67" Velocity="100"/>
  </Event>
  <Event>
    <Delta>60</Delta>
    <NoteOn Channel="4" Note="67" Velocity="0"/>
  </Event>
  <Event>
    <Delta>0</Delta>
    <NoteOn Channel="4" Note="64" Velocity="100"/>
  </Event>
  <Event>
    <Delta>300</Delta>
    <NoteOn Channel="4" Note="64" Velocity="0"/>
  </Event>
  <Event>
    <Delta>0</Delta>
    <NoteOn Channel="4" Note="64" Velocity="100"/>
  </Event>
  <Event>
    <Delta>60</Delta>
    <NoteOn Channel="4" Note="67" Velocity="100"/>
  </Event>
  <Event>
    <Delta>30</Delta>
    <NoteOn Channel="4" Note="67" Velocity="0"/>
  </Event>
  <Event>
    <Delta>30</Delta>
    <NoteOn Channel="4" Note="69" Velocity="100"/>
  </Event>
  <Event>
    <Delta>40</Delta>
    <NoteOn Channel="4" Note="69" Velocity="0"/>
  </Event>
  <Event>
    <Delta>0</Delta>
    <NoteOn Channel="4" Note="69" Velocity="100"/>
  </Event>
  <Event>
    <Delta>40</Delta>
    <NoteOn Channel="4" Note="69" Velocity="0"/>
  </Event>
  <Event>
    <Delta>0</Delta>
    <NoteOn Channel="4" Note="67" Velocity="100"/>
  </Event>
  <Event>
    <Delta>40</Delta>
    <NoteOn Channel="4" Note="67" Velocity="0"/>
  </Event>
  <Event>
    <Delta>0</Delta>
    <NoteOn Channel="4" Note="64" Velocity="0"/>
  </Event>
  <Event>
    <Delta>0</Delta>
    <NoteOn Channel="4" Note="62" Velocity="100"/>
  </Event>
  <Event>
    <Delta>0</Delta>
    <NoteOn Channel="4" Note="69" Velocity="100"/>
  </Event>
  <Event>
    <Delta>90</Delta>
    <NoteOn Channel="4" Note="69" Velocity="0"/>
  </Event>
  <Event>
    <Delta>0</Delta>
    <NoteOn Channel="4" Note="67" Velocity="100"/>
  </Event>
  <Event>
    <Delta>30</Delta>
    <NoteOn Channel="4" Note="67" Velocity="0"/>
  </Event>
  <Event>
    <Delta>0</Delta>
    <NoteOn Channel="4" Note="64" Velocity="100"/>
  </Event>
  <Event>
    <Delta>90</Delta>
    <NoteOn Channel="4" Note="64" Velocity="0"/>
  </Event>
  <Event>
    <Delta>0</Delta>
    <NoteOn Channel="4" Note="62" Velocity="100"/>
  </Event>
  <Event>
    <Delta>30</Delta>
    <NoteOn Channel="4" Note="62" Velocity="0"/>
  </Event>
  <Event>
    <Delta>0</Delta>
    <NoteOn Channel="4" Note="62" Velocity="0"/>
  </Event>
  <Event>
    <Delta>0</Delta>
    <NoteOn Channel="4" Note="64" Velocity="100"/>
  </Event>
  <Event>
    <Delta>120</Delta>
    <NoteOn Channel="4" Note="64" Velocity="0"/>
  </Event>
  <Event>
    <Delta>0</Delta>
    <NoteOn Channel="4" Note="62" Velocity="100"/>
  </Event>
  <Event>
    <Delta>60</Delta>
    <NoteOn Channel="4" Note="62" Velocity="0"/>
  </Event>
  <Event>
    <Delta>0</Delta>
    <NoteOn Channel="4" Note="64" Velocity="100"/>
  </Event>
  <Event>
    <Delta>180</Delta>
    <NoteOn Channel="4" Note="64" Velocity="0"/>
  </Event>
  <Event>
    <Delta>0</Delta>
    <NoteOn Channel="4" Note="71" Velocity="100"/>
  </Event>
  <Event>
    <Delta>120</Delta>
    <NoteOn Channel="4" Note="71" Velocity="0"/>
  </Event>
  <Event>
    <Delta>0</Delta>
    <NoteOn Channel="4" Note="72" Velocity="100"/>
  </Event>
  <Event>
    <Delta>60</Delta>
    <NoteOn Channel="4" Note="72" Velocity="0"/>
  </Event>
  <Event>
    <Delta>0</Delta>
    <NoteOn Channel="4" Note="69" Velocity="100"/>
  </Event>
  <Event>
    <Delta>60</Delta>
    <NoteOn Channel="4" Note="69" Velocity="0"/>
  </Event>
  <Event>
    <Delta>0</Delta>
    <NoteOn Channel="4" Note="71" Velocity="100"/>
  </Event>
  <Event>
    <Delta>60</Delta>
    <NoteOn Channel="4" Note="71" Velocity="0"/>
  </Event>
  <Event>
    <Delta>0</Delta>
    <NoteOn Channel="4" Note="72" Velocity="100"/>
  </Event>
  <Event>
    <Delta>180</Delta>
    <NoteOn Channel="4" Note="72" Velocity="0"/>
  </Event>
  <Event>
    <Delta>0</Delta>
    <NoteOn Channel="4" Note="69" Velocity="100"/>
  </Event>
  <Event>
    <Delta>60</Delta>
    <NoteOn Channel="4" Note="69" Velocity="0"/>
  </Event>
  <Event>
    <Delta>0</Delta>
    <NoteOn Channel="4" Note="71" Velocity="100"/>
  </Event>
  <Event>
    <Delta>60</Delta>
    <NoteOn Channel="4" Note="71" Velocity="0"/>
  </Event>
  <Event>
    <Delta>0</Delta>
    <NoteOn Channel="4" Note="72" Velocity="100"/>
  </Event>
  <Event>
    <Delta>60</Delta>
    <NoteOn Channel="4" Note="72" Velocity="0"/>
  </Event>
  <Event>
    <Delta>0</Delta>
    <NoteOn Channel="4" Note="69" Velocity="100"/>
  </Event>
  <Event>
    <Delta>60</Delta>
    <NoteOn Channel="4" Note="69" Velocity="0"/>
  </Event>
  <Event>
    <Delta>0</Delta>
    <NoteOn Channel="4" Note="71" Velocity="100"/>
  </Event>
  <Event>
    <Delta>60</Delta>
    <NoteOn Channel="4" Note="71" Velocity="0"/>
  </Event>
  <Event>
    <Delta>0</Delta>
    <NoteOn Channel="4" Note="72" Velocity="100"/>
  </Event>
  <Event>
    <Delta>180</Delta>
    <NoteOn Channel="4" Note="72" Velocity="0"/>
  </Event>
  <Event>
    <Delta>0</Delta>
    <NoteOn Channel="4" Note="69" Velocity="100"/>
  </Event>
  <Event>
    <Delta>120</Delta>
    <NoteOn Channel="4" Note="69" Velocity="0"/>
  </Event>
  <Event>
    <Delta>0</Delta>
    <NoteOn Channel="4" Note="71" Velocity="100"/>
  </Event>
  <Event>
    <Delta>120</Delta>
    <NoteOn Channel="4" Note="71" Velocity="0"/>
  </Event>
  <Event>
    <Delta>0</Delta>
    <NoteOn Channel="4" Note="67" Velocity="100"/>
  </Event>
  <Event>
    <Delta>60</Delta>
    <NoteOn Channel="4" Note="67" Velocity="0"/>
  </Event>
  <Event>
    <Delta>0</Delta>
    <NoteOn Channel="4" Note="62" Velocity="100"/>
  </Event>
  <Event>
    <Delta>420</Delta>
    <NoteOn Channel="4" Note="62" Velocity="0"/>
  </Event>
  <Event>
    <Delta>240</Delta>
    <NoteOn Channel="4" Note="66" Velocity="100"/>
  </Event>
  <Event>
    <Delta>60</Delta>
    <NoteOn Channel="4" Note="66" Velocity="0"/>
  </Event>
  <Event>
    <Delta>0</Delta>
    <NoteOn Channel="4" Note="67" Velocity="100"/>
  </Event>
  <Event>
    <Delta>60</Delta>
    <NoteOn Channel="4" Note="67" Velocity="0"/>
  </Event>
  <Event>
    <Delta>0</Delta>
    <NoteOn Channel="4" Note="69" Velocity="100"/>
  </Event>
  <Event>
    <Delta>60</Delta>
    <NoteOn Channel="4" Note="69" Velocity="0"/>
  </Event>
  <Event>
    <Delta>0</Delta>
    <NoteOn Channel="4" Note="66" Velocity="100"/>
  </Event>
  <Event>
    <Delta>60</Delta>
    <NoteOn Channel="4" Note="66" Velocity="0"/>
  </Event>
  <Event>
    <Delta>0</Delta>
    <NoteOn Channel="4" Note="67" Velocity="100"/>
  </Event>
  <Event>
    <Delta>60</Delta>
    <NoteOn Channel="4" Note="67" Velocity="0"/>
  </Event>
  <Event>
    <Delta>0</Delta>
    <NoteOn Channel="4" Note="69" Velocity="100"/>
  </Event>
  <Event>
    <Delta>180</Delta>
    <NoteOn Channel="4" Note="69" Velocity="0"/>
  </Event>
  <Event>
    <Delta>0</Delta>
    <NoteOn Channel="4" Note="66" Velocity="100"/>
  </Event>
  <Event>
    <Delta>60</Delta>
    <NoteOn Channel="4" Note="66" Velocity="0"/>
  </Event>
  <Event>
    <Delta>0</Delta>
    <NoteOn Channel="4" Note="67" Velocity="100"/>
  </Event>
  <Event>
    <Delta>60</Delta>
    <NoteOn Channel="4" Note="67" Velocity="0"/>
  </Event>
  <Event>
    <Delta>0</Delta>
    <NoteOn Channel="4" Note="69" Velocity="100"/>
  </Event>
  <Event>
    <Delta>60</Delta>
    <NoteOn Channel="4" Note="69" Velocity="0"/>
  </Event>
  <Event>
    <Delta>0</Delta>
    <NoteOn Channel="4" Note="66" Velocity="100"/>
  </Event>
  <Event>
    <Delta>60</Delta>
    <NoteOn Channel="4" Note="66" Velocity="0"/>
  </Event>
  <Event>
    <Delta>0</Delta>
    <NoteOn Channel="4" Note="67" Velocity="100"/>
  </Event>
  <Event>
    <Delta>60</Delta>
    <NoteOn Channel="4" Note="67" Velocity="0"/>
  </Event>
  <Event>
    <Delta>0</Delta>
    <NoteOn Channel="4" Note="69" Velocity="100"/>
  </Event>
  <Event>
    <Delta>180</Delta>
    <NoteOn Channel="4" Note="69" Velocity="0"/>
  </Event>
  <Event>
    <Delta>60</Delta>
    <NoteOn Channel="4" Note="66" Velocity="100"/>
  </Event>
  <Event>
    <Delta>60</Delta>
    <NoteOn Channel="4" Note="66" Velocity="0"/>
  </Event>
  <Event>
    <Delta>0</Delta>
    <NoteOn Channel="4" Note="64" Velocity="100"/>
  </Event>
  <Event>
    <Delta>0</Delta>
    <NoteOn Channel="4" Note="67" Velocity="100"/>
  </Event>
  <Event>
    <Delta>120</Delta>
    <NoteOn Channel="4" Note="67" Velocity="0"/>
  </Event>
  <Event>
    <Delta>0</Delta>
    <NoteOn Channel="4" Note="69" Velocity="100"/>
  </Event>
  <Event>
    <Delta>60</Delta>
    <NoteOn Channel="4" Note="69" Velocity="0"/>
  </Event>
  <Event>
    <Delta>0</Delta>
    <NoteOn Channel="4" Note="64" Velocity="0"/>
  </Event>
  <Event>
    <Delta>0</Delta>
    <NoteOn Channel="4" Note="63" Velocity="100"/>
  </Event>
  <Event>
    <Delta>0</Delta>
    <NoteOn Channel="4" Note="71" Velocity="100"/>
  </Event>
  <Event>
    <Delta>180</Delta>
    <NoteOn Channel="4" Note="71" Velocity="0"/>
  </Event>
  <Event>
    <Delta>0</Delta>
    <NoteOn Channel="4" Note="63" Velocity="0"/>
  </Event>
  <Event>
    <Delta>120</Delta>
    <NoteOn Channel="4" Note="67" Velocity="100"/>
  </Event>
  <Event>
    <Delta>0</Delta>
    <NoteOn Channel="4" Note="64" Velocity="100"/>
  </Event>
  <Event>
    <Delta>90</Delta>
    <NoteOn Channel="4" Note="64" Velocity="0"/>
  </Event>
  <Event>
    <Delta>0</Delta>
    <NoteOn Channel="4" Note="67" Velocity="0"/>
  </Event>
  <Event>
    <Delta>0</Delta>
    <NoteOn Channel="4" Note="69" Velocity="100"/>
  </Event>
  <Event>
    <Delta>0</Delta>
    <NoteOn Channel="4" Note="66" Velocity="100"/>
  </Event>
  <Event>
    <Delta>30</Delta>
    <NoteOn Channel="4" Note="66" Velocity="0"/>
  </Event>
  <Event>
    <Delta>0</Delta>
    <NoteOn Channel="4" Note="69" Velocity="0"/>
  </Event>
  <Event>
    <Delta>0</Delta>
    <NoteOn Channel="4" Note="67" Velocity="100"/>
  </Event>
  <Event>
    <Delta>0</Delta>
    <NoteOn Channel="4" Note="64" Velocity="100"/>
  </Event>
  <Event>
    <Delta>90</Delta>
    <NoteOn Channel="4" Note="64" Velocity="0"/>
  </Event>
  <Event>
    <Delta>0</Delta>
    <NoteOn Channel="4" Note="67" Velocity="0"/>
  </Event>
  <Event>
    <Delta>0</Delta>
    <NoteOn Channel="4" Note="66" Velocity="100"/>
  </Event>
  <Event>
    <Delta>0</Delta>
    <NoteOn Channel="4" Note="63" Velocity="100"/>
  </Event>
  <Event>
    <Delta>150</Delta>
    <NoteOn Channel="4" Note="63" Velocity="0"/>
  </Event>
  <Event>
    <Delta>0</Delta>
    <NoteOn Channel="4" Note="66" Velocity="0"/>
  </Event>
  <Event>
    <Delta>90</Delta>
    <NoteOn Channel="4" Note="59" Velocity="100"/>
  </Event>
  <Event>
    <Delta>30</Delta>
    <NoteOn Channel="4" Note="59" Velocity="0"/>
  </Event>
  <Event>
    <Delta>0</Delta>
    <NoteOn Channel="4" Note="59" Velocity="100"/>
  </Event>
  <Event>
    <Delta>90</Delta>
    <NoteOn Channel="4" Note="59" Velocity="0"/>
  </Event>
  <Event>
    <Delta>0</Delta>
    <NoteOn Channel="4" Note="64" Velocity="100"/>
  </Event>
  <Event>
    <Delta>30</Delta>
    <NoteOn Channel="4" Note="64" Velocity="0"/>
  </Event>
  <Event>
    <Delta>0</Delta>
    <NoteOn Channel="4" Note="67" Velocity="100"/>
  </Event>
  <Event>
    <Delta>90</Delta>
    <NoteOn Channel="4" Note="67" Velocity="0"/>
  </Event>
  <Event>
    <Delta>0</Delta>
    <NoteOn Channel="4" Note="71" Velocity="100"/>
  </Event>
  <Event>
    <Delta>30</Delta>
    <NoteOn Channel="4" Note="71" Velocity="0"/>
  </Event>
  <Event>
    <Delta>0</Delta>
    <NoteOn Channel="4" Note="69" Velocity="100"/>
  </Event>
  <Event>
    <Delta>90</Delta>
    <NoteOn Channel="4" Note="69" Velocity="0"/>
  </Event>
  <Event>
    <Delta>0</Delta>
    <NoteOn Channel="4" Note="71" Velocity="100"/>
  </Event>
  <Event>
    <Delta>30</Delta>
    <NoteOn Channel="4" Note="71" Velocity="0"/>
  </Event>
  <Event>
    <Delta>0</Delta>
    <NoteOn Channel="4" Note="69" Velocity="100"/>
  </Event>
  <Event>
    <Delta>90</Delta>
    <NoteOn Channel="4" Note="69" Velocity="0"/>
  </Event>
  <Event>
    <Delta>0</Delta>
    <NoteOn Channel="4" Note="67" Velocity="100"/>
  </Event>
  <Event>
    <Delta>30</Delta>
    <NoteOn Channel="4" Note="67" Velocity="0"/>
  </Event>
  <Event>
    <Delta>0</Delta>
    <NoteOn Channel="4" Note="71" Velocity="100"/>
  </Event>
  <Event>
    <Delta>240</Delta>
    <NoteOn Channel="4" Note="71" Velocity="0"/>
  </Event>
  <Event>
    <Delta>60</Delta>
    <NoteOn Channel="4" Note="59" Velocity="100"/>
  </Event>
  <Event>
    <Delta>30</Delta>
    <NoteOn Channel="4" Note="59" Velocity="0"/>
  </Event>
  <Event>
    <Delta>30</Delta>
    <NoteOn Channel="4" Note="64" Velocity="100"/>
  </Event>
  <Event>
    <Delta>90</Delta>
    <NoteOn Channel="4" Note="64" Velocity="0"/>
  </Event>
  <Event>
    <Delta>0</Delta>
    <NoteOn Channel="4" Note="67" Velocity="100"/>
  </Event>
  <Event>
    <Delta>30</Delta>
    <NoteOn Channel="4" Note="67" Velocity="0"/>
  </Event>
  <Event>
    <Delta>0</Delta>
    <NoteOn Channel="4" Note="64" Velocity="100"/>
  </Event>
  <Event>
    <Delta>0</Delta>
    <NoteOn Channel="4" Note="71" Velocity="100"/>
  </Event>
  <Event>
    <Delta>90</Delta>
    <NoteOn Channel="4" Note="71" Velocity="0"/>
  </Event>
  <Event>
    <Delta>0</Delta>
    <NoteOn Channel="4" Note="67" Velocity="100"/>
  </Event>
  <Event>
    <Delta>30</Delta>
    <NoteOn Channel="4" Note="67" Velocity="0"/>
  </Event>
  <Event>
    <Delta>0</Delta>
    <NoteOn Channel="4" Note="69" Velocity="100"/>
  </Event>
  <Event>
    <Delta>90</Delta>
    <NoteOn Channel="4" Note="69" Velocity="0"/>
  </Event>
  <Event>
    <Delta>0</Delta>
    <NoteOn Channel="4" Note="71" Velocity="100"/>
  </Event>
  <Event>
    <Delta>30</Delta>
    <NoteOn Channel="4" Note="71" Velocity="0"/>
  </Event>
  <Event>
    <Delta>0</Delta>
    <NoteOn Channel="4" Note="69" Velocity="100"/>
  </Event>
  <Event>
    <Delta>120</Delta>
    <NoteOn Channel="4" Note="69" Velocity="0"/>
  </Event>
  <Event>
    <Delta>0</Delta>
    <NoteOn Channel="4" Note="64" Velocity="0"/>
  </Event>
  <Event>
    <Delta>60</Delta>
    <NoteOn Channel="4" Note="64" Velocity="100"/>
  </Event>
  <Event>
    <Delta>60</Delta>
    <NoteOn Channel="4" Note="64" Velocity="0"/>
  </Event>
  <Event>
    <Delta>0</Delta>
    <NoteOn Channel="4" Note="67" Velocity="100"/>
  </Event>
  <Event>
    <Delta>90</Delta>
    <NoteOn Channel="4" Note="67" Velocity="0"/>
  </Event>
  <Event>
    <Delta>0</Delta>
    <NoteOn Channel="4" Note="66" Velocity="100"/>
  </Event>
  <Event>
    <Delta>30</Delta>
    <NoteOn Channel="4" Note="66" Velocity="0"/>
  </Event>
  <Event>
    <Delta>0</Delta>
    <NoteOn Channel="4" Note="64" Velocity="100"/>
  </Event>
  <Event>
    <Delta>60</Delta>
    <NoteOn Channel="4" Note="64" Velocity="0"/>
  </Event>
  <Event>
    <Delta>0</Delta>
    <NoteOn Channel="4" Note="66" Velocity="100"/>
  </Event>
  <Event>
    <Delta>180</Delta>
    <NoteOn Channel="4" Note="66" Velocity="0"/>
  </Event>
  <Event>
    <Delta>90</Delta>
    <NoteOn Channel="4" Note="66" Velocity="100"/>
  </Event>
  <Event>
    <Delta>30</Delta>
    <NoteOn Channel="4" Note="66" Velocity="0"/>
  </Event>
  <Event>
    <Delta>0</Delta>
    <NoteOn Channel="4" Note="59" Velocity="100"/>
  </Event>
  <Event>
    <Delta>90</Delta>
    <NoteOn Channel="4" Note="59" Velocity="0"/>
  </Event>
  <Event>
    <Delta>0</Delta>
    <NoteOn Channel="4" Note="64" Velocity="100"/>
  </Event>
  <Event>
    <Delta>30</Delta>
    <NoteOn Channel="4" Note="64" Velocity="0"/>
  </Event>
  <Event>
    <Delta>0</Delta>
    <NoteOn Channel="4" Note="67" Velocity="100"/>
  </Event>
  <Event>
    <Delta>90</Delta>
    <NoteOn Channel="4" Note="67" Velocity="0"/>
  </Event>
  <Event>
    <Delta>0</Delta>
    <NoteOn Channel="4" Note="71" Velocity="100"/>
  </Event>
  <Event>
    <Delta>30</Delta>
    <NoteOn Channel="4" Note="71" Velocity="0"/>
  </Event>
  <Event>
    <Delta>0</Delta>
    <NoteOn Channel="4" Note="69" Velocity="100"/>
  </Event>
  <Event>
    <Delta>90</Delta>
    <NoteOn Channel="4" Note="69" Velocity="0"/>
  </Event>
  <Event>
    <Delta>0</Delta>
    <NoteOn Channel="4" Note="71" Velocity="100"/>
  </Event>
  <Event>
    <Delta>30</Delta>
    <NoteOn Channel="4" Note="71" Velocity="0"/>
  </Event>
  <Event>
    <Delta>0</Delta>
    <NoteOn Channel="4" Note="69" Velocity="100"/>
  </Event>
  <Event>
    <Delta>90</Delta>
    <NoteOn Channel="4" Note="69" Velocity="0"/>
  </Event>
  <Event>
    <Delta>0</Delta>
    <NoteOn Channel="4" Note="67" Velocity="100"/>
  </Event>
  <Event>
    <Delta>30</Delta>
    <NoteOn Channel="4" Note="67" Velocity="0"/>
  </Event>
  <Event>
    <Delta>0</Delta>
    <NoteOn Channel="4" Note="71" Velocity="100"/>
  </Event>
  <Event>
    <Delta>120</Delta>
    <NoteOn Channel="4" Note="71" Velocity="0"/>
  </Event>
  <Event>
    <Delta>0</Delta>
    <NoteOn Channel="4" Note="67" Velocity="100"/>
  </Event>
  <Event>
    <Delta>60</Delta>
    <NoteOn Channel="4" Note="67" Velocity="0"/>
  </Event>
  <Event>
    <Delta>0</Delta>
    <NoteOn Channel="4" Note="64" Velocity="100"/>
  </Event>
  <Event>
    <Delta>300</Delta>
    <NoteOn Channel="4" Note="64" Velocity="0"/>
  </Event>
  <Event>
    <Delta>90</Delta>
    <NoteOn Channel="4" Note="59" Velocity="100"/>
  </Event>
  <Event>
    <Delta>30</Delta>
    <NoteOn Channel="4" Note="59" Velocity="0"/>
  </Event>
  <Event>
    <Delta>0</Delta>
    <NoteOn Channel="4" Note="64" Velocity="100"/>
  </Event>
  <Event>
    <Delta>90</Delta>
    <NoteOn Channel="4" Note="64" Velocity="0"/>
  </Event>
  <Event>
    <Delta>0</Delta>
    <NoteOn Channel="4" Note="67" Velocity="100"/>
  </Event>
  <Event>
    <Delta>30</Delta>
    <NoteOn Channel="4" Note="67" Velocity="0"/>
  </Event>
  <Event>
    <Delta>0</Delta>
    <NoteOn Channel="4" Note="69" Velocity="100"/>
  </Event>
  <Event>
    <Delta>90</Delta>
    <NoteOn Channel="4" Note="69" Velocity="0"/>
  </Event>
  <Event>
    <Delta>0</Delta>
    <NoteOn Channel="4" Note="71" Velocity="100"/>
  </Event>
  <Event>
    <Delta>30</Delta>
    <NoteOn Channel="4" Note="71" Velocity="0"/>
  </Event>
  <Event>
    <Delta>0</Delta>
    <NoteOn Channel="4" Note="69" Velocity="100"/>
  </Event>
  <Event>
    <Delta>90</Delta>
    <NoteOn Channel="4" Note="69" Velocity="0"/>
  </Event>
  <Event>
    <Delta>0</Delta>
    <NoteOn Channel="4" Note="67" Velocity="100"/>
  </Event>
  <Event>
    <Delta>30</Delta>
    <NoteOn Channel="4" Note="67" Velocity="0"/>
  </Event>
  <Event>
    <Delta>0</Delta>
    <NoteOn Channel="4" Note="64" Velocity="100"/>
  </Event>
  <Event>
    <Delta>120</Delta>
    <NoteOn Channel="4" Note="64" Velocity="0"/>
  </Event>
  <Event>
    <Delta>0</Delta>
    <NoteOn Channel="4" Note="62" Velocity="100"/>
  </Event>
  <Event>
    <Delta>60</Delta>
    <NoteOn Channel="4" Note="62" Velocity="0"/>
  </Event>
  <Event>
    <Delta>0</Delta>
    <NoteOn Channel="4" Note="64" Velocity="100"/>
  </Event>
  <Event>
    <Delta>180</Delta>
    <NoteOn Channel="4" Note="64" Velocity="0"/>
  </Event>
  <Event>
    <Delta>120</Delta>
    <NoteOn Channel="4" Note="67" Velocity="100"/>
  </Event>
  <Event>
    <Delta>0</Delta>
    <NoteOn Channel="4" Note="64" Velocity="100"/>
  </Event>
  <Event>
    <Delta>60</Delta>
    <NoteOn Channel="4" Note="64" Velocity="0"/>
  </Event>
  <Event>
    <Delta>0</Delta>
    <NoteOn Channel="4" Note="67" Velocity="0"/>
  </Event>
  <Event>
    <Delta>0</Delta>
    <NoteOn Channel="4" Note="60" Velocity="100"/>
  </Event>
  <Event>
    <Delta>60</Delta>
    <NoteOn Channel="4" Note="60" Velocity="0"/>
  </Event>
  <Event>
    <Delta>0</Delta>
    <NoteOn Channel="4" Note="67" Velocity="100"/>
  </Event>
  <Event>
    <Delta>0</Delta>
    <NoteOn Channel="4" Note="64" Velocity="100"/>
  </Event>
  <Event>
    <Delta>60</Delta>
    <NoteOn Channel="4" Note="64" Velocity="0"/>
  </Event>
  <Event>
    <Delta>0</Delta>
    <NoteOn Channel="4" Note="67" Velocity="0"/>
  </Event>
  <Event>
    <Delta>0</Delta>
    <NoteOn Channel="4" Note="66" Velocity="100"/>
  </Event>
  <Event>
    <Delta>0</Delta>
    <NoteOn Channel="4" Note="63" Velocity="100"/>
  </Event>
  <Event>
    <Delta>180</Delta>
    <NoteOn Channel="4" Note="63" Velocity="0"/>
  </Event>
  <Event>
    <Delta>0</Delta>
    <NoteOn Channel="4" Note="66" Velocity="0"/>
  </Event>
  <Event>
    <Delta>120</Delta>
    <NoteOn Channel="4" Note="67" Velocity="100"/>
  </Event>
  <Event>
    <Delta>90</Delta>
    <NoteOn Channel="4" Note="67" Velocity="0"/>
  </Event>
  <Event>
    <Delta>0</Delta>
    <NoteOn Channel="4" Note="66" Velocity="100"/>
  </Event>
  <Event>
    <Delta>30</Delta>
    <NoteOn Channel="4" Note="66" Velocity="0"/>
  </Event>
  <Event>
    <Delta>0</Delta>
    <NoteOn Channel="4" Note="67" Velocity="100"/>
  </Event>
  <Event>
    <Delta>90</Delta>
    <NoteOn Channel="4" Note="67" Velocity="0"/>
  </Event>
  <Event>
    <Delta>0</Delta>
    <NoteOn Channel="4" Note="66" Velocity="100"/>
  </Event>
  <Event>
    <Delta>30</Delta>
    <NoteOn Channel="4" Note="66" Velocity="0"/>
  </Event>
  <Event>
    <Delta>0</Delta>
    <NoteOn Channel="4" Note="67" Velocity="100"/>
  </Event>
  <Event>
    <Delta>40</Delta>
    <NoteOn Channel="4" Note="67" Velocity="0"/>
  </Event>
  <Event>
    <Delta>0</Delta>
    <NoteOn Channel="4" Note="66" Velocity="100"/>
  </Event>
  <Event>
    <Delta>40</Delta>
    <NoteOn Channel="4" Note="66" Velocity="0"/>
  </Event>
  <Event>
    <Delta>0</Delta>
    <NoteOn Channel="4" Note="67" Velocity="100"/>
  </Event>
  <Event>
    <Delta>40</Delta>
    <NoteOn Channel="4" Note="67" Velocity="0"/>
  </Event>
  <Event>
    <Delta>0</Delta>
    <NoteOn Channel="4" Note="67" Velocity="100"/>
  </Event>
  <Event>
    <Delta>60</Delta>
    <NoteOn Channel="4" Note="67" Velocity="0"/>
  </Event>
  <Event>
    <Delta>0</Delta>
    <NoteOn Channel="4" Note="66" Velocity="100"/>
  </Event>
  <Event>
    <Delta>60</Delta>
    <NoteOn Channel="4" Note="66" Velocity="0"/>
  </Event>
  <Event>
    <Delta>0</Delta>
    <NoteOn Channel="4" Note="67" Velocity="100"/>
  </Event>
  <Event>
    <Delta>90</Delta>
    <NoteOn Channel="4" Note="67" Velocity="0"/>
  </Event>
  <Event>
    <Delta>0</Delta>
    <NoteOn Channel="4" Note="66" Velocity="100"/>
  </Event>
  <Event>
    <Delta>30</Delta>
    <NoteOn Channel="4" Note="66" Velocity="0"/>
  </Event>
  <Event>
    <Delta>0</Delta>
    <NoteOn Channel="4" Note="67" Velocity="100"/>
  </Event>
  <Event>
    <Delta>90</Delta>
    <NoteOn Channel="4" Note="67" Velocity="0"/>
  </Event>
  <Event>
    <Delta>0</Delta>
    <NoteOn Channel="4" Note="66" Velocity="100"/>
  </Event>
  <Event>
    <Delta>30</Delta>
    <NoteOn Channel="4" Note="66" Velocity="0"/>
  </Event>
  <Event>
    <Delta>0</Delta>
    <NoteOn Channel="4" Note="67" Velocity="100"/>
  </Event>
  <Event>
    <Delta>40</Delta>
    <NoteOn Channel="4" Note="67" Velocity="0"/>
  </Event>
  <Event>
    <Delta>0</Delta>
    <NoteOn Channel="4" Note="66" Velocity="100"/>
  </Event>
  <Event>
    <Delta>40</Delta>
    <NoteOn Channel="4" Note="66" Velocity="0"/>
  </Event>
  <Event>
    <Delta>0</Delta>
    <NoteOn Channel="4" Note="67" Velocity="100"/>
  </Event>
  <Event>
    <Delta>40</Delta>
    <NoteOn Channel="4" Note="67" Velocity="0"/>
  </Event>
  <Event>
    <Delta>0</Delta>
    <NoteOn Channel="4" Note="67" Velocity="100"/>
  </Event>
  <Event>
    <Delta>60</Delta>
    <NoteOn Channel="4" Note="67" Velocity="0"/>
  </Event>
  <Event>
    <Delta>0</Delta>
    <NoteOn Channel="4" Note="66" Velocity="100"/>
  </Event>
  <Event>
    <Delta>60</Delta>
    <NoteOn Channel="4" Note="66" Velocity="0"/>
  </Event>
  <Event>
    <Delta>0</Delta>
    <NoteOn Channel="4" Note="59" Velocity="100"/>
  </Event>
  <Event>
    <Delta>90</Delta>
    <NoteOn Channel="4" Note="59" Velocity="0"/>
  </Event>
  <Event>
    <Delta>0</Delta>
    <NoteOn Channel="4" Note="59" Velocity="100"/>
  </Event>
  <Event>
    <Delta>30</Delta>
    <NoteOn Channel="4" Note="59" Velocity="0"/>
  </Event>
  <Event>
    <Delta>0</Delta>
    <NoteOn Channel="4" Note="60" Velocity="100"/>
  </Event>
  <Event>
    <Delta>90</Delta>
    <NoteOn Channel="4" Note="60" Velocity="0"/>
  </Event>
  <Event>
    <Delta>0</Delta>
    <NoteOn Channel="4" Note="60" Velocity="100"/>
  </Event>
  <Event>
    <Delta>30</Delta>
    <NoteOn Channel="4" Note="60" Velocity="0"/>
  </Event>
  <Event>
    <Delta>0</Delta>
    <NoteOn Channel="4" Note="61" Velocity="100"/>
  </Event>
  <Event>
    <Delta>90</Delta>
    <NoteOn Channel="4" Note="61" Velocity="0"/>
  </Event>
  <Event>
    <Delta>0</Delta>
    <NoteOn Channel="4" Note="71" Velocity="100"/>
  </Event>
  <Event>
    <Delta>30</Delta>
    <NoteOn Channel="4" Note="71" Velocity="0"/>
  </Event>
  <Event>
    <Delta>0</Delta>
    <NoteOn Channel="4" Note="68" Velocity="100"/>
  </Event>
  <Event>
    <Delta>90</Delta>
    <NoteOn Channel="4" Note="68" Velocity="0"/>
  </Event>
  <Event>
    <Delta>0</Delta>
    <NoteOn Channel="4" Note="66" Velocity="100"/>
  </Event>
  <Event>
    <Delta>30</Delta>
    <NoteOn Channel="4" Note="66" Velocity="0"/>
  </Event>
  <Event>
    <Delta>0</Delta>
    <NoteOn Channel="4" Note="67" Velocity="100"/>
  </Event>
  <Event>
    <Delta>360</Delta>
    <NoteOn Channel="4" Note="67" Velocity="0"/>
  </Event>
  <Event>
    <Delta>120</Delta>
    <NoteOn Channel="4" Note="61" Velocity="100"/>
  </Event>
  <Event>
    <Delta>0</Delta>
    <NoteOn Channel="4" Note="66" Velocity="100"/>
  </Event>
  <Event>
    <Delta>120</Delta>
    <NoteOn Channel="4" Note="66" Velocity="0"/>
  </Event>
  <Event>
    <Delta>0</Delta>
    <NoteOn Channel="4" Note="61" Velocity="0"/>
  </Event>
  <Event>
    <Delta>0</Delta>
    <NoteOn Channel="4" Note="69" Velocity="100"/>
  </Event>
  <Event>
    <Delta>60</Delta>
    <NoteOn Channel="4" Note="69" Velocity="0"/>
  </Event>
  <Event>
    <Delta>0</Delta>
    <NoteOn Channel="4" Note="63" Velocity="100"/>
  </Event>
  <Event>
    <Delta>0</Delta>
    <NoteOn Channel="4" Note="68" Velocity="100"/>
  </Event>
  <Event>
    <Delta>180</Delta>
    <NoteOn Channel="4" Note="68" Velocity="0"/>
  </Event>
  <Event>
    <Delta>0</Delta>
    <NoteOn Channel="4" Note="63" Velocity="0"/>
  </Event>
  <Event>
    <Delta>60</Delta>
    <NoteOn Channel="4" Note="68" Velocity="100"/>
  </Event>
  <Event>
    <Delta>60</Delta>
    <NoteOn Channel="4" Note="68" Velocity="0"/>
  </Event>
  <Event>
    <Delta>0</Delta>
    <NoteOn Channel="4" Note="69" Velocity="100"/>
  </Event>
  <Event>
    <Delta>90</Delta>
    <NoteOn Channel="4" Note="69" Velocity="0"/>
  </Event>
  <Event>
    <Delta>0</Delta>
    <NoteOn Channel="4" Note="67" Velocity="100"/>
  </Event>
  <Event>
    <Delta>30</Delta>
    <NoteOn Channel="4" Note="67" Velocity="0"/>
  </Event>
  <Event>
    <Delta>0</Delta>
    <NoteOn Channel="4" Note="69" Velocity="100"/>
  </Event>
  <Event>
    <Delta>90</Delta>
    <NoteOn Channel="4" Note="69" Velocity="0"/>
  </Event>
  <Event>
    <Delta>0</Delta>
    <NoteOn Channel="4" Note="67" Velocity="100"/>
  </Event>
  <Event>
    <Delta>30</Delta>
    <NoteOn Channel="4" Note="67" Velocity="0"/>
  </Event>
  <Event>
    <Delta>0</Delta>
    <NoteOn Channel="4" Note="69" Velocity="100"/>
  </Event>
  <Event>
    <Delta>40</Delta>
    <NoteOn Channel="4" Note="69" Velocity="0"/>
  </Event>
  <Event>
    <Delta>0</Delta>
    <NoteOn Channel="4" Note="67" Velocity="100"/>
  </Event>
  <Event>
    <Delta>40</Delta>
    <NoteOn Channel="4" Note="67" Velocity="0"/>
  </Event>
  <Event>
    <Delta>0</Delta>
    <NoteOn Channel="4" Note="69" Velocity="100"/>
  </Event>
  <Event>
    <Delta>40</Delta>
    <NoteOn Channel="4" Note="69" Velocity="0"/>
  </Event>
  <Event>
    <Delta>0</Delta>
    <NoteOn Channel="4" Note="69" Velocity="100"/>
  </Event>
  <Event>
    <Delta>120</Delta>
    <NoteOn Channel="4" Note="69" Velocity="0"/>
  </Event>
  <Event>
    <Delta>0</Delta>
    <NoteOn Channel="4" Note="69" Velocity="100"/>
  </Event>
  <Event>
    <Delta>90</Delta>
    <NoteOn Channel="4" Note="69" Velocity="0"/>
  </Event>
  <Event>
    <Delta>0</Delta>
    <NoteOn Channel="4" Note="67" Velocity="100"/>
  </Event>
  <Event>
    <Delta>30</Delta>
    <NoteOn Channel="4" Note="67" Velocity="0"/>
  </Event>
  <Event>
    <Delta>0</Delta>
    <NoteOn Channel="4" Note="69" Velocity="100"/>
  </Event>
  <Event>
    <Delta>90</Delta>
    <NoteOn Channel="4" Note="69" Velocity="0"/>
  </Event>
  <Event>
    <Delta>0</Delta>
    <NoteOn Channel="4" Note="67" Velocity="100"/>
  </Event>
  <Event>
    <Delta>30</Delta>
    <NoteOn Channel="4" Note="67" Velocity="0"/>
  </Event>
  <Event>
    <Delta>0</Delta>
    <NoteOn Channel="4" Note="69" Velocity="100"/>
  </Event>
  <Event>
    <Delta>40</Delta>
    <NoteOn Channel="4" Note="69" Velocity="0"/>
  </Event>
  <Event>
    <Delta>0</Delta>
    <NoteOn Channel="4" Note="67" Velocity="100"/>
  </Event>
  <Event>
    <Delta>40</Delta>
    <NoteOn Channel="4" Note="67" Velocity="0"/>
  </Event>
  <Event>
    <Delta>0</Delta>
    <NoteOn Channel="4" Note="69" Velocity="100"/>
  </Event>
  <Event>
    <Delta>40</Delta>
    <NoteOn Channel="4" Note="69" Velocity="0"/>
  </Event>
  <Event>
    <Delta>0</Delta>
    <NoteOn Channel="4" Note="69" Velocity="100"/>
  </Event>
  <Event>
    <Delta>60</Delta>
    <NoteOn Channel="4" Note="69" Velocity="0"/>
  </Event>
  <Event>
    <Delta>0</Delta>
    <NoteOn Channel="4" Note="67" Velocity="100"/>
  </Event>
  <Event>
    <Delta>60</Delta>
    <NoteOn Channel="4" Note="67" Velocity="0"/>
  </Event>
  <Event>
    <Delta>0</Delta>
    <NoteOn Channel="4" Note="69" Velocity="100"/>
  </Event>
  <Event>
    <Delta>90</Delta>
    <NoteOn Channel="4" Note="69" Velocity="0"/>
  </Event>
  <Event>
    <Delta>0</Delta>
    <NoteOn Channel="4" Note="72" Velocity="100"/>
  </Event>
  <Event>
    <Delta>30</Delta>
    <NoteOn Channel="4" Note="72" Velocity="0"/>
  </Event>
  <Event>
    <Delta>0</Delta>
    <NoteOn Channel="4" Note="69" Velocity="100"/>
  </Event>
  <Event>
    <Delta>90</Delta>
    <NoteOn Channel="4" Note="69" Velocity="0"/>
  </Event>
  <Event>
    <Delta>0</Delta>
    <NoteOn Channel="4" Note="65" Velocity="100"/>
  </Event>
  <Event>
    <Delta>30</Delta>
    <NoteOn Channel="4" Note="65" Velocity="0"/>
  </Event>
  <Event>
    <Delta>0</Delta>
    <NoteOn Channel="4" Note="62" Velocity="100"/>
  </Event>
  <Event>
    <Delta>90</Delta>
    <NoteOn Channel="4" Note="62" Velocity="0"/>
  </Event>
  <Event>
    <Delta>0</Delta>
    <NoteOn Channel="4" Note="66" Velocity="100"/>
  </Event>
  <Event>
    <Delta>30</Delta>
    <NoteOn Channel="4" Note="66" Velocity="0"/>
  </Event>
  <Event>
    <Delta>0</Delta>
    <NoteOn Channel="4" Note="67" Velocity="100"/>
  </Event>
  <Event>
    <Delta>60</Delta>
    <NoteOn Channel="4" Note="67" Velocity="0"/>
  </Event>
  <Event>
    <Delta>0</Delta>
    <NoteOn Channel="4" Note="66" Velocity="100"/>
  </Event>
  <Event>
    <Delta>60</Delta>
    <NoteOn Channel="4" Note="66" Velocity="0"/>
  </Event>
  <Event>
    <Delta>0</Delta>
    <NoteOn Channel="4" Note="69" Velocity="100"/>
  </Event>
  <Event>
    <Delta>360</Delta>
    <NoteOn Channel="4" Note="69" Velocity="0"/>
  </Event>
  <Event>
    <Delta>60</Delta>
    <NoteOn Channel="4" Note="69" Velocity="100"/>
  </Event>
  <Event>
    <Delta>60</Delta>
    <NoteOn Channel="4" Note="69" Velocity="0"/>
  </Event>
  <Event>
    <Delta>0</Delta>
    <NoteOn Channel="4" Note="66" Velocity="100"/>
  </Event>
  <Event>
    <Delta>0</Delta>
    <NoteOn Channel="4" Note="70" Velocity="100"/>
  </Event>
  <Event>
    <Delta>90</Delta>
    <NoteOn Channel="4" Note="70" Velocity="0"/>
  </Event>
  <Event>
    <Delta>0</Delta>
    <NoteOn Channel="4" Note="68" Velocity="100"/>
  </Event>
  <Event>
    <Delta>30</Delta>
    <NoteOn Channel="4" Note="68" Velocity="0"/>
  </Event>
  <Event>
    <Delta>0</Delta>
    <NoteOn Channel="4" Note="70" Velocity="100"/>
  </Event>
  <Event>
    <Delta>90</Delta>
    <NoteOn Channel="4" Note="70" Velocity="0"/>
  </Event>
  <Event>
    <Delta>0</Delta>
    <NoteOn Channel="4" Note="68" Velocity="100"/>
  </Event>
  <Event>
    <Delta>30</Delta>
    <NoteOn Channel="4" Note="68" Velocity="0"/>
  </Event>
  <Event>
    <Delta>0</Delta>
    <NoteOn Channel="4" Note="66" Velocity="0"/>
  </Event>
  <Event>
    <Delta>0</Delta>
    <NoteOn Channel="4" Note="65" Velocity="100"/>
  </Event>
  <Event>
    <Delta>0</Delta>
    <NoteOn Channel="4" Note="70" Velocity="100"/>
  </Event>
  <Event>
    <Delta>40</Delta>
    <NoteOn Channel="4" Note="70" Velocity="0"/>
  </Event>
  <Event>
    <Delta>0</Delta>
    <NoteOn Channel="4" Note="68" Velocity="100"/>
  </Event>
  <Event>
    <Delta>40</Delta>
    <NoteOn Channel="4" Note="68" Velocity="0"/>
  </Event>
  <Event>
    <Delta>0</Delta>
    <NoteOn Channel="4" Note="70" Velocity="100"/>
  </Event>
  <Event>
    <Delta>40</Delta>
    <NoteOn Channel="4" Note="70" Velocity="0"/>
  </Event>
  <Event>
    <Delta>0</Delta>
    <NoteOn Channel="4" Note="70" Velocity="100"/>
  </Event>
  <Event>
    <Delta>120</Delta>
    <NoteOn Channel="4" Note="70" Velocity="0"/>
  </Event>
  <Event>
    <Delta>0</Delta>
    <NoteOn Channel="4" Note="65" Velocity="0"/>
  </Event>
  <Event>
    <Delta>0</Delta>
    <NoteOn Channel="4" Note="66" Velocity="100"/>
  </Event>
  <Event>
    <Delta>0</Delta>
    <NoteOn Channel="4" Note="70" Velocity="100"/>
  </Event>
  <Event>
    <Delta>90</Delta>
    <NoteOn Channel="4" Note="70" Velocity="0"/>
  </Event>
  <Event>
    <Delta>0</Delta>
    <NoteOn Channel="4" Note="68" Velocity="100"/>
  </Event>
  <Event>
    <Delta>30</Delta>
    <NoteOn Channel="4" Note="68" Velocity="0"/>
  </Event>
  <Event>
    <Delta>0</Delta>
    <NoteOn Channel="4" Note="70" Velocity="100"/>
  </Event>
  <Event>
    <Delta>90</Delta>
    <NoteOn Channel="4" Note="70" Velocity="0"/>
  </Event>
  <Event>
    <Delta>0</Delta>
    <NoteOn Channel="4" Note="68" Velocity="100"/>
  </Event>
  <Event>
    <Delta>30</Delta>
    <NoteOn Channel="4" Note="68" Velocity="0"/>
  </Event>
  <Event>
    <Delta>0</Delta>
    <NoteOn Channel="4" Note="66" Velocity="0"/>
  </Event>
  <Event>
    <Delta>0</Delta>
    <NoteOn Channel="4" Note="65" Velocity="100"/>
  </Event>
  <Event>
    <Delta>0</Delta>
    <NoteOn Channel="4" Note="70" Velocity="100"/>
  </Event>
  <Event>
    <Delta>40</Delta>
    <NoteOn Channel="4" Note="70" Velocity="0"/>
  </Event>
  <Event>
    <Delta>0</Delta>
    <NoteOn Channel="4" Note="68" Velocity="100"/>
  </Event>
  <Event>
    <Delta>40</Delta>
    <NoteOn Channel="4" Note="68" Velocity="0"/>
  </Event>
  <Event>
    <Delta>0</Delta>
    <NoteOn Channel="4" Note="70" Velocity="100"/>
  </Event>
  <Event>
    <Delta>40</Delta>
    <NoteOn Channel="4" Note="70" Velocity="0"/>
  </Event>
  <Event>
    <Delta>0</Delta>
    <NoteOn Channel="4" Note="70" Velocity="100"/>
  </Event>
  <Event>
    <Delta>60</Delta>
    <NoteOn Channel="4" Note="70" Velocity="0"/>
  </Event>
  <Event>
    <Delta>0</Delta>
    <NoteOn Channel="4" Note="70" Velocity="100"/>
  </Event>
  <Event>
    <Delta>60</Delta>
    <NoteOn Channel="4" Note="70" Velocity="0"/>
  </Event>
  <Event>
    <Delta>0</Delta>
    <NoteOn Channel="4" Note="65" Velocity="0"/>
  </Event>
  <Event>
    <Delta>0</Delta>
    <NoteOn Channel="4" Note="67" Velocity="100"/>
  </Event>
  <Event>
    <Delta>0</Delta>
    <NoteOn Channel="4" Note="71" Velocity="100"/>
  </Event>
  <Event>
    <Delta>90</Delta>
    <NoteOn Channel="4" Note="71" Velocity="0"/>
  </Event>
  <Event>
    <Delta>0</Delta>
    <NoteOn Channel="4" Note="69" Velocity="100"/>
  </Event>
  <Event>
    <Delta>30</Delta>
    <NoteOn Channel="4" Note="69" Velocity="0"/>
  </Event>
  <Event>
    <Delta>0</Delta>
    <NoteOn Channel="4" Note="71" Velocity="100"/>
  </Event>
  <Event>
    <Delta>90</Delta>
    <NoteOn Channel="4" Note="71" Velocity="0"/>
  </Event>
  <Event>
    <Delta>0</Delta>
    <NoteOn Channel="4" Note="69" Velocity="100"/>
  </Event>
  <Event>
    <Delta>30</Delta>
    <NoteOn Channel="4" Note="69" Velocity="0"/>
  </Event>
  <Event>
    <Delta>0</Delta>
    <NoteOn Channel="4" Note="67" Velocity="0"/>
  </Event>
  <Event>
    <Delta>0</Delta>
    <NoteOn Channel="4" Note="66" Velocity="100"/>
  </Event>
  <Event>
    <Delta>0</Delta>
    <NoteOn Channel="4" Note="71" Velocity="100"/>
  </Event>
  <Event>
    <Delta>40</Delta>
    <NoteOn Channel="4" Note="71" Velocity="0"/>
  </Event>
  <Event>
    <Delta>0</Delta>
    <NoteOn Channel="4" Note="69" Velocity="100"/>
  </Event>
  <Event>
    <Delta>40</Delta>
    <NoteOn Channel="4" Note="69" Velocity="0"/>
  </Event>
  <Event>
    <Delta>0</Delta>
    <NoteOn Channel="4" Note="71" Velocity="100"/>
  </Event>
  <Event>
    <Delta>40</Delta>
    <NoteOn Channel="4" Note="71" Velocity="0"/>
  </Event>
  <Event>
    <Delta>0</Delta>
    <NoteOn Channel="4" Note="71" Velocity="100"/>
  </Event>
  <Event>
    <Delta>60</Delta>
    <NoteOn Channel="4" Note="71" Velocity="0"/>
  </Event>
  <Event>
    <Delta>0</Delta>
    <NoteOn Channel="4" Note="69" Velocity="100"/>
  </Event>
  <Event>
    <Delta>60</Delta>
    <NoteOn Channel="4" Note="69" Velocity="0"/>
  </Event>
  <Event>
    <Delta>0</Delta>
    <NoteOn Channel="4" Note="66" Velocity="0"/>
  </Event>
  <Event>
    <Delta>0</Delta>
    <NoteOn Channel="4" Note="67" Velocity="100"/>
  </Event>
  <Event>
    <Delta>0</Delta>
    <NoteOn Channel="4" Note="71" Velocity="100"/>
  </Event>
  <Event>
    <Delta>90</Delta>
    <NoteOn Channel="4" Note="71" Velocity="0"/>
  </Event>
  <Event>
    <Delta>0</Delta>
    <NoteOn Channel="4" Note="69" Velocity="100"/>
  </Event>
  <Event>
    <Delta>30</Delta>
    <NoteOn Channel="4" Note="69" Velocity="0"/>
  </Event>
  <Event>
    <Delta>0</Delta>
    <NoteOn Channel="4" Note="71" Velocity="100"/>
  </Event>
  <Event>
    <Delta>90</Delta>
    <NoteOn Channel="4" Note="71" Velocity="0"/>
  </Event>
  <Event>
    <Delta>0</Delta>
    <NoteOn Channel="4" Note="69" Velocity="100"/>
  </Event>
  <Event>
    <Delta>30</Delta>
    <NoteOn Channel="4" Note="69" Velocity="0"/>
  </Event>
  <Event>
    <Delta>0</Delta>
    <NoteOn Channel="4" Note="67" Velocity="0"/>
  </Event>
  <Event>
    <Delta>0</Delta>
    <NoteOn Channel="4" Note="67" Velocity="100"/>
  </Event>
  <Event>
    <Delta>0</Delta>
    <NoteOn Channel="4" Note="75" Velocity="100"/>
  </Event>
  <Event>
    <Delta>180</Delta>
    <NoteOn Channel="4" Note="75" Velocity="0"/>
  </Event>
  <Event>
    <Delta>0</Delta>
    <NoteOn Channel="4" Note="72" Velocity="100"/>
  </Event>
  <Event>
    <Delta>60</Delta>
    <NoteOn Channel="4" Note="72" Velocity="0"/>
  </Event>
  <Event>
    <Delta>0</Delta>
    <NoteOn Channel="4" Note="67" Velocity="0"/>
  </Event>
  <Event>
    <Delta>0</Delta>
    <NoteOn Channel="4" Note="64" Velocity="100"/>
  </Event>
  <Event>
    <Delta>0</Delta>
    <NoteOn Channel="4" Note="71" Velocity="100"/>
  </Event>
  <Event>
    <Delta>240</Delta>
    <NoteOn Channel="4" Note="64" Velocity="0"/>
  </Event>
  <Event>
    <Delta>0</Delta>
    <NoteOn Channel="4" Note="63" Velocity="100"/>
  </Event>
  <Event>
    <Delta>240</Delta>
    <NoteOn Channel="4" Note="63" Velocity="0"/>
  </Event>
  <Event>
    <Delta>0</Delta>
    <NoteOn Channel="4" Note="71" Velocity="0"/>
  </Event>
  <Event>
    <Delta>0</Delta>
    <NoteOn Channel="4" Note="59" Velocity="100"/>
  </Event>
  <Event>
    <Delta>90</Delta>
    <NoteOn Channel="4" Note="59" Velocity="0"/>
  </Event>
  <Event>
    <Delta>0</Delta>
    <NoteOn Channel="4" Note="64" Velocity="100"/>
  </Event>
  <Event>
    <Delta>30</Delta>
    <NoteOn Channel="4" Note="64" Velocity="0"/>
  </Event>
  <Event>
    <Delta>0</Delta>
    <NoteOn Channel="4" Note="67" Velocity="100"/>
  </Event>
  <Event>
    <Delta>90</Delta>
    <NoteOn Channel="4" Note="67" Velocity="0"/>
  </Event>
  <Event>
    <Delta>0</Delta>
    <NoteOn Channel="4" Note="71" Velocity="100"/>
  </Event>
  <Event>
    <Delta>30</Delta>
    <NoteOn Channel="4" Note="71" Velocity="0"/>
  </Event>
  <Event>
    <Delta>0</Delta>
    <NoteOn Channel="4" Note="69" Velocity="100"/>
  </Event>
  <Event>
    <Delta>90</Delta>
    <NoteOn Channel="4" Note="69" Velocity="0"/>
  </Event>
  <Event>
    <Delta>0</Delta>
    <NoteOn Channel="4" Note="71" Velocity="100"/>
  </Event>
  <Event>
    <Delta>30</Delta>
    <NoteOn Channel="4" Note="71" Velocity="0"/>
  </Event>
  <Event>
    <Delta>0</Delta>
    <NoteOn Channel="4" Note="69" Velocity="100"/>
  </Event>
  <Event>
    <Delta>90</Delta>
    <NoteOn Channel="4" Note="69" Velocity="0"/>
  </Event>
  <Event>
    <Delta>0</Delta>
    <NoteOn Channel="4" Note="67" Velocity="100"/>
  </Event>
  <Event>
    <Delta>30</Delta>
    <NoteOn Channel="4" Note="67" Velocity="0"/>
  </Event>
  <Event>
    <Delta>0</Delta>
    <NoteOn Channel="4" Note="71" Velocity="100"/>
  </Event>
  <Event>
    <Delta>240</Delta>
    <NoteOn Channel="4" Note="71" Velocity="0"/>
  </Event>
  <Event>
    <Delta>60</Delta>
    <NoteOn Channel="4" Note="59" Velocity="100"/>
  </Event>
  <Event>
    <Delta>30</Delta>
    <NoteOn Channel="4" Note="59" Velocity="0"/>
  </Event>
  <Event>
    <Delta>30</Delta>
    <NoteOn Channel="4" Note="64" Velocity="100"/>
  </Event>
  <Event>
    <Delta>90</Delta>
    <NoteOn Channel="4" Note="64" Velocity="0"/>
  </Event>
  <Event>
    <Delta>0</Delta>
    <NoteOn Channel="4" Note="67" Velocity="100"/>
  </Event>
  <Event>
    <Delta>30</Delta>
    <NoteOn Channel="4" Note="67" Velocity="0"/>
  </Event>
  <Event>
    <Delta>0</Delta>
    <NoteOn Channel="4" Note="64" Velocity="100"/>
  </Event>
  <Event>
    <Delta>0</Delta>
    <NoteOn Channel="4" Note="71" Velocity="100"/>
  </Event>
  <Event>
    <Delta>90</Delta>
    <NoteOn Channel="4" Note="71" Velocity="0"/>
  </Event>
  <Event>
    <Delta>0</Delta>
    <NoteOn Channel="4" Note="67" Velocity="100"/>
  </Event>
  <Event>
    <Delta>30</Delta>
    <NoteOn Channel="4" Note="67" Velocity="0"/>
  </Event>
  <Event>
    <Delta>0</Delta>
    <NoteOn Channel="4" Note="69" Velocity="100"/>
  </Event>
  <Event>
    <Delta>90</Delta>
    <NoteOn Channel="4" Note="69" Velocity="0"/>
  </Event>
  <Event>
    <Delta>0</Delta>
    <NoteOn Channel="4" Note="71" Velocity="100"/>
  </Event>
  <Event>
    <Delta>30</Delta>
    <NoteOn Channel="4" Note="71" Velocity="0"/>
  </Event>
  <Event>
    <Delta>0</Delta>
    <NoteOn Channel="4" Note="69" Velocity="100"/>
  </Event>
  <Event>
    <Delta>120</Delta>
    <NoteOn Channel="4" Note="69" Velocity="0"/>
  </Event>
  <Event>
    <Delta>0</Delta>
    <NoteOn Channel="4" Note="64" Velocity="0"/>
  </Event>
  <Event>
    <Delta>60</Delta>
    <NoteOn Channel="4" Note="64" Velocity="100"/>
  </Event>
  <Event>
    <Delta>60</Delta>
    <NoteOn Channel="4" Note="64" Velocity="0"/>
  </Event>
  <Event>
    <Delta>0</Delta>
    <NoteOn Channel="4" Note="67" Velocity="100"/>
  </Event>
  <Event>
    <Delta>90</Delta>
    <NoteOn Channel="4" Note="67" Velocity="0"/>
  </Event>
  <Event>
    <Delta>0</Delta>
    <NoteOn Channel="4" Note="66" Velocity="100"/>
  </Event>
  <Event>
    <Delta>30</Delta>
    <NoteOn Channel="4" Note="66" Velocity="0"/>
  </Event>
  <Event>
    <Delta>0</Delta>
    <NoteOn Channel="4" Note="64" Velocity="100"/>
  </Event>
  <Event>
    <Delta>60</Delta>
    <NoteOn Channel="4" Note="64" Velocity="0"/>
  </Event>
  <Event>
    <Delta>0</Delta>
    <NoteOn Channel="4" Note="66" Velocity="100"/>
  </Event>
  <Event>
    <Delta>180</Delta>
    <NoteOn Channel="4" Note="66" Velocity="0"/>
  </Event>
  <Event>
    <Delta>120</Delta>
    <NoteOn Channel="4" Note="59" Velocity="100"/>
  </Event>
  <Event>
    <Delta>45</Delta>
    <NoteOn Channel="4" Note="59" Velocity="0"/>
  </Event>
  <Event>
    <Delta>45</Delta>
    <NoteOn Channel="4" Note="64" Velocity="100"/>
  </Event>
  <Event>
    <Delta>30</Delta>
    <NoteOn Channel="4" Note="64" Velocity="0"/>
  </Event>
  <Event>
    <Delta>0</Delta>
    <NoteOn Channel="4" Note="67" Velocity="100"/>
  </Event>
  <Event>
    <Delta>90</Delta>
    <NoteOn Channel="4" Note="67" Velocity="0"/>
  </Event>
  <Event>
    <Delta>0</Delta>
    <NoteOn Channel="4" Note="71" Velocity="100"/>
  </Event>
  <Event>
    <Delta>30</Delta>
    <NoteOn Channel="4" Note="71" Velocity="0"/>
  </Event>
  <Event>
    <Delta>0</Delta>
    <NoteOn Channel="4" Note="69" Velocity="100"/>
  </Event>
  <Event>
    <Delta>40</Delta>
    <NoteOn Channel="4" Note="69" Velocity="0"/>
  </Event>
  <Event>
    <Delta>0</Delta>
    <NoteOn Channel="4" Note="71" Velocity="100"/>
  </Event>
  <Event>
    <Delta>40</Delta>
    <NoteOn Channel="4" Note="71" Velocity="0"/>
  </Event>
  <Event>
    <Delta>0</Delta>
    <NoteOn Channel="4" Note="69" Velocity="100"/>
  </Event>
  <Event>
    <Delta>40</Delta>
    <NoteOn Channel="4" Note="69" Velocity="0"/>
  </Event>
  <Event>
    <Delta>0</Delta>
    <NoteOn Channel="4" Note="67" Velocity="100"/>
  </Event>
  <Event>
    <Delta>90</Delta>
    <NoteOn Channel="4" Note="67" Velocity="0"/>
  </Event>
  <Event>
    <Delta>0</Delta>
    <NoteOn Channel="4" Note="69" Velocity="100"/>
  </Event>
  <Event>
    <Delta>30</Delta>
    <NoteOn Channel="4" Note="69" Velocity="0"/>
  </Event>
  <Event>
    <Delta>0</Delta>
    <NoteOn Channel="4" Note="71" Velocity="100"/>
  </Event>
  <Event>
    <Delta>120</Delta>
    <NoteOn Channel="4" Note="71" Velocity="0"/>
  </Event>
  <Event>
    <Delta>0</Delta>
    <NoteOn Channel="4" Note="67" Velocity="100"/>
  </Event>
  <Event>
    <Delta>60</Delta>
    <NoteOn Channel="4" Note="67" Velocity="0"/>
  </Event>
  <Event>
    <Delta>0</Delta>
    <NoteOn Channel="4" Note="64" Velocity="100"/>
  </Event>
  <Event>
    <Delta>300</Delta>
    <NoteOn Channel="4" Note="64" Velocity="0"/>
  </Event>
  <Event>
    <Delta>0</Delta>
    <NoteOn Channel="4" Note="64" Velocity="100"/>
  </Event>
  <Event>
    <Delta>60</Delta>
    <NoteOn Channel="4" Note="67" Velocity="100"/>
  </Event>
  <Event>
    <Delta>30</Delta>
    <NoteOn Channel="4" Note="67" Velocity="0"/>
  </Event>
  <Event>
    <Delta>30</Delta>
    <NoteOn Channel="4" Note="69" Velocity="100"/>
  </Event>
  <Event>
    <Delta>40</Delta>
    <NoteOn Channel="4" Note="69" Velocity="0"/>
  </Event>
  <Event>
    <Delta>0</Delta>
    <NoteOn Channel="4" Note="69" Velocity="100"/>
  </Event>
  <Event>
    <Delta>40</Delta>
    <NoteOn Channel="4" Note="69" Velocity="0"/>
  </Event>
  <Event>
    <Delta>0</Delta>
    <NoteOn Channel="4" Note="67" Velocity="100"/>
  </Event>
  <Event>
    <Delta>40</Delta>
    <NoteOn Channel="4" Note="67" Velocity="0"/>
  </Event>
  <Event>
    <Delta>0</Delta>
    <NoteOn Channel="4" Note="64" Velocity="0"/>
  </Event>
  <Event>
    <Delta>0</Delta>
    <NoteOn Channel="4" Note="62" Velocity="100"/>
  </Event>
  <Event>
    <Delta>0</Delta>
    <NoteOn Channel="4" Note="69" Velocity="100"/>
  </Event>
  <Event>
    <Delta>90</Delta>
    <NoteOn Channel="4" Note="69" Velocity="0"/>
  </Event>
  <Event>
    <Delta>0</Delta>
    <NoteOn Channel="4" Note="67" Velocity="100"/>
  </Event>
  <Event>
    <Delta>30</Delta>
    <NoteOn Channel="4" Note="67" Velocity="0"/>
  </Event>
  <Event>
    <Delta>0</Delta>
    <NoteOn Channel="4" Note="64" Velocity="100"/>
  </Event>
  <Event>
    <Delta>90</Delta>
    <NoteOn Channel="4" Note="64" Velocity="0"/>
  </Event>
  <Event>
    <Delta>0</Delta>
    <NoteOn Channel="4" Note="62" Velocity="100"/>
  </Event>
  <Event>
    <Delta>30</Delta>
    <NoteOn Channel="4" Note="62" Velocity="0"/>
  </Event>
  <Event>
    <Delta>0</Delta>
    <NoteOn Channel="4" Note="62" Velocity="0"/>
  </Event>
  <Event>
    <Delta>0</Delta>
    <NoteOn Channel="4" Note="64" Velocity="100"/>
  </Event>
  <Event>
    <Delta>120</Delta>
    <NoteOn Channel="4" Note="64" Velocity="0"/>
  </Event>
  <Event>
    <Delta>0</Delta>
    <NoteOn Channel="4" Note="62" Velocity="100"/>
  </Event>
  <Event>
    <Delta>60</Delta>
    <NoteOn Channel="4" Note="62" Velocity="0"/>
  </Event>
  <Event>
    <Delta>0</Delta>
    <NoteOn Channel="4" Note="64" Velocity="100"/>
  </Event>
  <Event>
    <Delta>180</Delta>
    <NoteOn Channel="4" Note="64" Velocity="0"/>
  </Event>
  <Event>
    <Delta>0</Delta>
    <NoteOn Channel="4" Note="71" Velocity="100"/>
  </Event>
  <Event>
    <Delta>120</Delta>
    <NoteOn Channel="4" Note="71" Velocity="0"/>
  </Event>
  <Event>
    <Delta>0</Delta>
    <NoteOn Channel="4" Note="72" Velocity="100"/>
  </Event>
  <Event>
    <Delta>60</Delta>
    <NoteOn Channel="4" Note="72" Velocity="0"/>
  </Event>
  <Event>
    <Delta>0</Delta>
    <NoteOn Channel="4" Note="69" Velocity="100"/>
  </Event>
  <Event>
    <Delta>60</Delta>
    <NoteOn Channel="4" Note="69" Velocity="0"/>
  </Event>
  <Event>
    <Delta>0</Delta>
    <NoteOn Channel="4" Note="71" Velocity="100"/>
  </Event>
  <Event>
    <Delta>60</Delta>
    <NoteOn Channel="4" Note="71" Velocity="0"/>
  </Event>
  <Event>
    <Delta>0</Delta>
    <NoteOn Channel="4" Note="72" Velocity="100"/>
  </Event>
  <Event>
    <Delta>180</Delta>
    <NoteOn Channel="4" Note="72" Velocity="0"/>
  </Event>
  <Event>
    <Delta>0</Delta>
    <NoteOn Channel="4" Note="69" Velocity="100"/>
  </Event>
  <Event>
    <Delta>60</Delta>
    <NoteOn Channel="4" Note="69" Velocity="0"/>
  </Event>
  <Event>
    <Delta>0</Delta>
    <NoteOn Channel="4" Note="71" Velocity="100"/>
  </Event>
  <Event>
    <Delta>60</Delta>
    <NoteOn Channel="4" Note="71" Velocity="0"/>
  </Event>
  <Event>
    <Delta>0</Delta>
    <NoteOn Channel="4" Note="72" Velocity="100"/>
  </Event>
  <Event>
    <Delta>60</Delta>
    <NoteOn Channel="4" Note="72" Velocity="0"/>
  </Event>
  <Event>
    <Delta>0</Delta>
    <NoteOn Channel="4" Note="69" Velocity="100"/>
  </Event>
  <Event>
    <Delta>60</Delta>
    <NoteOn Channel="4" Note="69" Velocity="0"/>
  </Event>
  <Event>
    <Delta>0</Delta>
    <NoteOn Channel="4" Note="71" Velocity="100"/>
  </Event>
  <Event>
    <Delta>60</Delta>
    <NoteOn Channel="4" Note="71" Velocity="0"/>
  </Event>
  <Event>
    <Delta>0</Delta>
    <NoteOn Channel="4" Note="72" Velocity="100"/>
  </Event>
  <Event>
    <Delta>180</Delta>
    <NoteOn Channel="4" Note="72" Velocity="0"/>
  </Event>
  <Event>
    <Delta>0</Delta>
    <NoteOn Channel="4" Note="69" Velocity="100"/>
  </Event>
  <Event>
    <Delta>120</Delta>
    <NoteOn Channel="4" Note="69" Velocity="0"/>
  </Event>
  <Event>
    <Delta>0</Delta>
    <NoteOn Channel="4" Note="71" Velocity="100"/>
  </Event>
  <Event>
    <Delta>120</Delta>
    <NoteOn Channel="4" Note="71" Velocity="0"/>
  </Event>
  <Event>
    <Delta>0</Delta>
    <NoteOn Channel="4" Note="67" Velocity="100"/>
  </Event>
  <Event>
    <Delta>60</Delta>
    <NoteOn Channel="4" Note="67" Velocity="0"/>
  </Event>
  <Event>
    <Delta>0</Delta>
    <NoteOn Channel="4" Note="62" Velocity="100"/>
  </Event>
  <Event>
    <Delta>420</Delta>
    <NoteOn Channel="4" Note="62" Velocity="0"/>
  </Event>
  <Event>
    <Delta>240</Delta>
    <NoteOn Channel="4" Note="66" Velocity="100"/>
  </Event>
  <Event>
    <Delta>60</Delta>
    <NoteOn Channel="4" Note="66" Velocity="0"/>
  </Event>
  <Event>
    <Delta>0</Delta>
    <NoteOn Channel="4" Note="67" Velocity="100"/>
  </Event>
  <Event>
    <Delta>60</Delta>
    <NoteOn Channel="4" Note="67" Velocity="0"/>
  </Event>
  <Event>
    <Delta>0</Delta>
    <NoteOn Channel="4" Note="69" Velocity="100"/>
  </Event>
  <Event>
    <Delta>60</Delta>
    <NoteOn Channel="4" Note="69" Velocity="0"/>
  </Event>
  <Event>
    <Delta>0</Delta>
    <NoteOn Channel="4" Note="66" Velocity="100"/>
  </Event>
  <Event>
    <Delta>60</Delta>
    <NoteOn Channel="4" Note="66" Velocity="0"/>
  </Event>
  <Event>
    <Delta>0</Delta>
    <NoteOn Channel="4" Note="67" Velocity="100"/>
  </Event>
  <Event>
    <Delta>60</Delta>
    <NoteOn Channel="4" Note="67" Velocity="0"/>
  </Event>
  <Event>
    <Delta>0</Delta>
    <NoteOn Channel="4" Note="69" Velocity="100"/>
  </Event>
  <Event>
    <Delta>180</Delta>
    <NoteOn Channel="4" Note="69" Velocity="0"/>
  </Event>
  <Event>
    <Delta>0</Delta>
    <NoteOn Channel="4" Note="66" Velocity="100"/>
  </Event>
  <Event>
    <Delta>60</Delta>
    <NoteOn Channel="4" Note="66" Velocity="0"/>
  </Event>
  <Event>
    <Delta>0</Delta>
    <NoteOn Channel="4" Note="67" Velocity="100"/>
  </Event>
  <Event>
    <Delta>60</Delta>
    <NoteOn Channel="4" Note="67" Velocity="0"/>
  </Event>
  <Event>
    <Delta>0</Delta>
    <NoteOn Channel="4" Note="69" Velocity="100"/>
  </Event>
  <Event>
    <Delta>60</Delta>
    <NoteOn Channel="4" Note="69" Velocity="0"/>
  </Event>
  <Event>
    <Delta>0</Delta>
    <NoteOn Channel="4" Note="66" Velocity="100"/>
  </Event>
  <Event>
    <Delta>60</Delta>
    <NoteOn Channel="4" Note="66" Velocity="0"/>
  </Event>
  <Event>
    <Delta>0</Delta>
    <NoteOn Channel="4" Note="67" Velocity="100"/>
  </Event>
  <Event>
    <Delta>60</Delta>
    <NoteOn Channel="4" Note="67" Velocity="0"/>
  </Event>
  <Event>
    <Delta>0</Delta>
    <NoteOn Channel="4" Note="69" Velocity="100"/>
  </Event>
  <Event>
    <Delta>180</Delta>
    <NoteOn Channel="4" Note="69" Velocity="0"/>
  </Event>
  <Event>
    <Delta>60</Delta>
    <NoteOn Channel="4" Note="66" Velocity="100"/>
  </Event>
  <Event>
    <Delta>60</Delta>
    <NoteOn Channel="4" Note="66" Velocity="0"/>
  </Event>
  <Event>
    <Delta>0</Delta>
    <NoteOn Channel="4" Note="64" Velocity="100"/>
  </Event>
  <Event>
    <Delta>0</Delta>
    <NoteOn Channel="4" Note="67" Velocity="100"/>
  </Event>
  <Event>
    <Delta>120</Delta>
    <NoteOn Channel="4" Note="67" Velocity="0"/>
  </Event>
  <Event>
    <Delta>0</Delta>
    <NoteOn Channel="4" Note="69" Velocity="100"/>
  </Event>
  <Event>
    <Delta>60</Delta>
    <NoteOn Channel="4" Note="69" Velocity="0"/>
  </Event>
  <Event>
    <Delta>0</Delta>
    <NoteOn Channel="4" Note="64" Velocity="0"/>
  </Event>
  <Event>
    <Delta>0</Delta>
    <NoteOn Channel="4" Note="63" Velocity="100"/>
  </Event>
  <Event>
    <Delta>0</Delta>
    <NoteOn Channel="4" Note="71" Velocity="100"/>
  </Event>
  <Event>
    <Delta>180</Delta>
    <NoteOn Channel="4" Note="71" Velocity="0"/>
  </Event>
  <Event>
    <Delta>0</Delta>
    <NoteOn Channel="4" Note="63" Velocity="0"/>
  </Event>
  <Event>
    <Delta>120</Delta>
    <NoteOn Channel="4" Note="67" Velocity="100"/>
  </Event>
  <Event>
    <Delta>0</Delta>
    <NoteOn Channel="4" Note="64" Velocity="100"/>
  </Event>
  <Event>
    <Delta>90</Delta>
    <NoteOn Channel="4" Note="64" Velocity="0"/>
  </Event>
  <Event>
    <Delta>0</Delta>
    <NoteOn Channel="4" Note="67" Velocity="0"/>
  </Event>
  <Event>
    <Delta>0</Delta>
    <NoteOn Channel="4" Note="69" Velocity="100"/>
  </Event>
  <Event>
    <Delta>0</Delta>
    <NoteOn Channel="4" Note="66" Velocity="100"/>
  </Event>
  <Event>
    <Delta>30</Delta>
    <NoteOn Channel="4" Note="66" Velocity="0"/>
  </Event>
  <Event>
    <Delta>0</Delta>
    <NoteOn Channel="4" Note="69" Velocity="0"/>
  </Event>
  <Event>
    <Delta>0</Delta>
    <NoteOn Channel="4" Note="67" Velocity="100"/>
  </Event>
  <Event>
    <Delta>0</Delta>
    <NoteOn Channel="4" Note="64" Velocity="100"/>
  </Event>
  <Event>
    <Delta>90</Delta>
    <NoteOn Channel="4" Note="64" Velocity="0"/>
  </Event>
  <Event>
    <Delta>0</Delta>
    <NoteOn Channel="4" Note="67" Velocity="0"/>
  </Event>
  <Event>
    <Delta>0</Delta>
    <NoteOn Channel="4" Note="66" Velocity="100"/>
  </Event>
  <Event>
    <Delta>0</Delta>
    <NoteOn Channel="4" Note="63" Velocity="100"/>
  </Event>
  <Event>
    <Delta>150</Delta>
    <NoteOn Channel="4" Note="63" Velocity="0"/>
  </Event>
  <Event>
    <Delta>0</Delta>
    <NoteOn Channel="4" Note="66" Velocity="0"/>
  </Event>
  <Event>
    <Delta>90</Delta>
    <NoteOn Channel="4" Note="59" Velocity="100"/>
  </Event>
  <Event>
    <Delta>30</Delta>
    <NoteOn Channel="4" Note="59" Velocity="0"/>
  </Event>
  <Event>
    <Delta>0</Delta>
    <NoteOn Channel="4" Note="59" Velocity="100"/>
  </Event>
  <Event>
    <Delta>90</Delta>
    <NoteOn Channel="4" Note="59" Velocity="0"/>
  </Event>
  <Event>
    <Delta>0</Delta>
    <NoteOn Channel="4" Note="64" Velocity="100"/>
  </Event>
  <Event>
    <Delta>30</Delta>
    <NoteOn Channel="4" Note="64" Velocity="0"/>
  </Event>
  <Event>
    <Delta>0</Delta>
    <NoteOn Channel="4" Note="67" Velocity="100"/>
  </Event>
  <Event>
    <Delta>90</Delta>
    <NoteOn Channel="4" Note="67" Velocity="0"/>
  </Event>
  <Event>
    <Delta>0</Delta>
    <NoteOn Channel="4" Note="71" Velocity="100"/>
  </Event>
  <Event>
    <Delta>30</Delta>
    <NoteOn Channel="4" Note="71" Velocity="0"/>
  </Event>
  <Event>
    <Delta>0</Delta>
    <NoteOn Channel="4" Note="69" Velocity="100"/>
  </Event>
  <Event>
    <Delta>90</Delta>
    <NoteOn Channel="4" Note="69" Velocity="0"/>
  </Event>
  <Event>
    <Delta>0</Delta>
    <NoteOn Channel="4" Note="71" Velocity="100"/>
  </Event>
  <Event>
    <Delta>30</Delta>
    <NoteOn Channel="4" Note="71" Velocity="0"/>
  </Event>
  <Event>
    <Delta>0</Delta>
    <NoteOn Channel="4" Note="69" Velocity="100"/>
  </Event>
  <Event>
    <Delta>90</Delta>
    <NoteOn Channel="4" Note="69" Velocity="0"/>
  </Event>
  <Event>
    <Delta>0</Delta>
    <NoteOn Channel="4" Note="67" Velocity="100"/>
  </Event>
  <Event>
    <Delta>30</Delta>
    <NoteOn Channel="4" Note="67" Velocity="0"/>
  </Event>
  <Event>
    <Delta>0</Delta>
    <NoteOn Channel="4" Note="71" Velocity="100"/>
  </Event>
  <Event>
    <Delta>240</Delta>
    <NoteOn Channel="4" Note="71" Velocity="0"/>
  </Event>
  <Event>
    <Delta>60</Delta>
    <NoteOn Channel="4" Note="59" Velocity="100"/>
  </Event>
  <Event>
    <Delta>30</Delta>
    <NoteOn Channel="4" Note="59" Velocity="0"/>
  </Event>
  <Event>
    <Delta>30</Delta>
    <NoteOn Channel="4" Note="64" Velocity="100"/>
  </Event>
  <Event>
    <Delta>90</Delta>
    <NoteOn Channel="4" Note="64" Velocity="0"/>
  </Event>
  <Event>
    <Delta>0</Delta>
    <NoteOn Channel="4" Note="67" Velocity="100"/>
  </Event>
  <Event>
    <Delta>30</Delta>
    <NoteOn Channel="4" Note="67" Velocity="0"/>
  </Event>
  <Event>
    <Delta>0</Delta>
    <NoteOn Channel="4" Note="64" Velocity="100"/>
  </Event>
  <Event>
    <Delta>0</Delta>
    <NoteOn Channel="4" Note="71" Velocity="100"/>
  </Event>
  <Event>
    <Delta>90</Delta>
    <NoteOn Channel="4" Note="71" Velocity="0"/>
  </Event>
  <Event>
    <Delta>0</Delta>
    <NoteOn Channel="4" Note="67" Velocity="100"/>
  </Event>
  <Event>
    <Delta>30</Delta>
    <NoteOn Channel="4" Note="67" Velocity="0"/>
  </Event>
  <Event>
    <Delta>0</Delta>
    <NoteOn Channel="4" Note="69" Velocity="100"/>
  </Event>
  <Event>
    <Delta>90</Delta>
    <NoteOn Channel="4" Note="69" Velocity="0"/>
  </Event>
  <Event>
    <Delta>0</Delta>
    <NoteOn Channel="4" Note="71" Velocity="100"/>
  </Event>
  <Event>
    <Delta>30</Delta>
    <NoteOn Channel="4" Note="71" Velocity="0"/>
  </Event>
  <Event>
    <Delta>0</Delta>
    <NoteOn Channel="4" Note="69" Velocity="100"/>
  </Event>
  <Event>
    <Delta>120</Delta>
    <NoteOn Channel="4" Note="69" Velocity="0"/>
  </Event>
  <Event>
    <Delta>0</Delta>
    <NoteOn Channel="4" Note="64" Velocity="0"/>
  </Event>
  <Event>
    <Delta>60</Delta>
    <NoteOn Channel="4" Note="64" Velocity="100"/>
  </Event>
  <Event>
    <Delta>60</Delta>
    <NoteOn Channel="4" Note="64" Velocity="0"/>
  </Event>
  <Event>
    <Delta>0</Delta>
    <NoteOn Channel="4" Note="67" Velocity="100"/>
  </Event>
  <Event>
    <Delta>90</Delta>
    <NoteOn Channel="4" Note="67" Velocity="0"/>
  </Event>
  <Event>
    <Delta>0</Delta>
    <NoteOn Channel="4" Note="66" Velocity="100"/>
  </Event>
  <Event>
    <Delta>30</Delta>
    <NoteOn Channel="4" Note="66" Velocity="0"/>
  </Event>
  <Event>
    <Delta>0</Delta>
    <NoteOn Channel="4" Note="64" Velocity="100"/>
  </Event>
  <Event>
    <Delta>60</Delta>
    <NoteOn Channel="4" Note="64" Velocity="0"/>
  </Event>
  <Event>
    <Delta>0</Delta>
    <NoteOn Channel="4" Note="66" Velocity="100"/>
  </Event>
  <Event>
    <Delta>180</Delta>
    <NoteOn Channel="4" Note="66" Velocity="0"/>
  </Event>
  <Event>
    <Delta>90</Delta>
    <NoteOn Channel="4" Note="66" Velocity="100"/>
  </Event>
  <Event>
    <Delta>30</Delta>
    <NoteOn Channel="4" Note="66" Velocity="0"/>
  </Event>
  <Event>
    <Delta>0</Delta>
    <NoteOn Channel="4" Note="59" Velocity="100"/>
  </Event>
  <Event>
    <Delta>90</Delta>
    <NoteOn Channel="4" Note="59" Velocity="0"/>
  </Event>
  <Event>
    <Delta>0</Delta>
    <NoteOn Channel="4" Note="64" Velocity="100"/>
  </Event>
  <Event>
    <Delta>30</Delta>
    <NoteOn Channel="4" Note="64" Velocity="0"/>
  </Event>
  <Event>
    <Delta>0</Delta>
    <NoteOn Channel="4" Note="67" Velocity="100"/>
  </Event>
  <Event>
    <Delta>90</Delta>
    <NoteOn Channel="4" Note="67" Velocity="0"/>
  </Event>
  <Event>
    <Delta>0</Delta>
    <NoteOn Channel="4" Note="71" Velocity="100"/>
  </Event>
  <Event>
    <Delta>30</Delta>
    <NoteOn Channel="4" Note="71" Velocity="0"/>
  </Event>
  <Event>
    <Delta>0</Delta>
    <NoteOn Channel="4" Note="69" Velocity="100"/>
  </Event>
  <Event>
    <Delta>90</Delta>
    <NoteOn Channel="4" Note="69" Velocity="0"/>
  </Event>
  <Event>
    <Delta>0</Delta>
    <NoteOn Channel="4" Note="71" Velocity="100"/>
  </Event>
  <Event>
    <Delta>30</Delta>
    <NoteOn Channel="4" Note="71" Velocity="0"/>
  </Event>
  <Event>
    <Delta>0</Delta>
    <NoteOn Channel="4" Note="69" Velocity="100"/>
  </Event>
  <Event>
    <Delta>90</Delta>
    <NoteOn Channel="4" Note="69" Velocity="0"/>
  </Event>
  <Event>
    <Delta>0</Delta>
    <NoteOn Channel="4" Note="67" Velocity="100"/>
  </Event>
  <Event>
    <Delta>30</Delta>
    <NoteOn Channel="4" Note="67" Velocity="0"/>
  </Event>
  <Event>
    <Delta>0</Delta>
    <NoteOn Channel="4" Note="71" Velocity="100"/>
  </Event>
  <Event>
    <Delta>120</Delta>
    <NoteOn Channel="4" Note="71" Velocity="0"/>
  </Event>
  <Event>
    <Delta>0</Delta>
    <NoteOn Channel="4" Note="67" Velocity="100"/>
  </Event>
  <Event>
    <Delta>60</Delta>
    <NoteOn Channel="4" Note="67" Velocity="0"/>
  </Event>
  <Event>
    <Delta>0</Delta>
    <NoteOn Channel="4" Note="64" Velocity="100"/>
  </Event>
  <Event>
    <Delta>300</Delta>
    <NoteOn Channel="4" Note="64" Velocity="0"/>
  </Event>
  <Event>
    <Delta>90</Delta>
    <NoteOn Channel="4" Note="59" Velocity="100"/>
  </Event>
  <Event>
    <Delta>30</Delta>
    <NoteOn Channel="4" Note="59" Velocity="0"/>
  </Event>
  <Event>
    <Delta>0</Delta>
    <NoteOn Channel="4" Note="64" Velocity="100"/>
  </Event>
  <Event>
    <Delta>90</Delta>
    <NoteOn Channel="4" Note="64" Velocity="0"/>
  </Event>
  <Event>
    <Delta>0</Delta>
    <NoteOn Channel="4" Note="67" Velocity="100"/>
  </Event>
  <Event>
    <Delta>30</Delta>
    <NoteOn Channel="4" Note="67" Velocity="0"/>
  </Event>
  <Event>
    <Delta>0</Delta>
    <NoteOn Channel="4" Note="69" Velocity="100"/>
  </Event>
  <Event>
    <Delta>90</Delta>
    <NoteOn Channel="4" Note="69" Velocity="0"/>
  </Event>
  <Event>
    <Delta>0</Delta>
    <NoteOn Channel="4" Note="71" Velocity="100"/>
  </Event>
  <Event>
    <Delta>30</Delta>
    <NoteOn Channel="4" Note="71" Velocity="0"/>
  </Event>
  <Event>
    <Delta>0</Delta>
    <NoteOn Channel="4" Note="69" Velocity="100"/>
  </Event>
  <Event>
    <Delta>90</Delta>
    <NoteOn Channel="4" Note="69" Velocity="0"/>
  </Event>
  <Event>
    <Delta>0</Delta>
    <NoteOn Channel="4" Note="67" Velocity="100"/>
  </Event>
  <Event>
    <Delta>30</Delta>
    <NoteOn Channel="4" Note="67" Velocity="0"/>
  </Event>
  <Event>
    <Delta>0</Delta>
    <NoteOn Channel="4" Note="64" Velocity="100"/>
  </Event>
  <Event>
    <Delta>120</Delta>
    <NoteOn Channel="4" Note="64" Velocity="0"/>
  </Event>
  <Event>
    <Delta>0</Delta>
    <NoteOn Channel="4" Note="62" Velocity="100"/>
  </Event>
  <Event>
    <Delta>60</Delta>
    <NoteOn Channel="4" Note="62" Velocity="0"/>
  </Event>
  <Event>
    <Delta>0</Delta>
    <NoteOn Channel="4" Note="64" Velocity="100"/>
  </Event>
  <Event>
    <Delta>180</Delta>
    <NoteOn Channel="4" Note="64" Velocity="0"/>
  </Event>
  <Event>
    <Delta>0</Delta>
    <EndOfTrack/>
  </Event>
</Track>
<Track Number="5">
  <Event>
    <Delta>0</Delta>
    <MIDIChannelPrefix Value="00"/>
  </Event>
  <Event>
    <Delta>0</Delta>
    <EndOfTrack/>
  </Event>
</Track>
<Track Number="6">
  <Event>
    <Delta>0</Delta>
    <MIDIChannelPrefix Value="00"/>
  </Event>
  <Event>
    <Delta>0</Delta>
    <EndOfTrack/>
  </Event>
</Track>
</MIDIFile>